STARTFONT 2.1
COMMENT
COMMENT Converted from OpenType font "UbuntuMono-BoldItalic.ttf" by "otf2bdf 3.0".
COMMENT
FONT -FreeType-Ubuntu Mono-Bold-I-Normal--55-400-100-100-P-274-ISO10646-1
SIZE 40 100 100
FONTBOUNDINGBOX 54 55 -16 -9
STARTPROPERTIES 19
FOUNDRY "FreeType"
FAMILY_NAME "Ubuntu Mono"
WEIGHT_NAME "Bold"
SLANT "I"
SETWIDTH_NAME "Normal"
ADD_STYLE_NAME ""
PIXEL_SIZE 55
POINT_SIZE 400
RESOLUTION_X 100
RESOLUTION_Y 100
SPACING "P"
AVERAGE_WIDTH 274
CHARSET_REGISTRY "ISO10646"
CHARSET_ENCODING "1"
FONT_ASCENT 46
FONT_DESCENT 9
COPYRIGHT "Copyright 2011 Canonical Ltd.  Licensed under the Ubuntu Font Licence 1.0"
_OTF_FONTFILE "UbuntuMono-BoldItalic.ttf"
_OTF_PSNAME "UbuntuMono-BoldItalic"
ENDPROPERTIES
CHARS 1224
STARTCHAR 0000
ENCODING 0
SWIDTH 486 0
DWIDTH 27 0
BBX 0 0 0 0
BITMAP
ENDCHAR
STARTCHAR 0008
ENCODING 8
SWIDTH 486 0
DWIDTH 27 0
BBX 0 0 0 0
BITMAP
ENDCHAR
STARTCHAR 0009
ENCODING 9
SWIDTH 486 0
DWIDTH 27 0
BBX 0 0 0 0
BITMAP
ENDCHAR
STARTCHAR 000D
ENCODING 13
SWIDTH 486 0
DWIDTH 27 0
BBX 0 0 0 0
BITMAP
ENDCHAR
STARTCHAR 001D
ENCODING 29
SWIDTH 486 0
DWIDTH 27 0
BBX 0 0 0 0
BITMAP
ENDCHAR
STARTCHAR 0020
ENCODING 32
SWIDTH 486 0
DWIDTH 27 0
BBX 0 0 0 0
BITMAP
ENDCHAR
STARTCHAR 0021
ENCODING 33
SWIDTH 486 0
DWIDTH 27 0
BBX 16 35 9 -1
BITMAP
00FF
01FE
01FE
01FE
01FE
03FC
03FC
03FC
03FC
07F8
07F8
07F8
07F8
07F0
0FF0
0FF0
0FE0
0FE0
0FE0
0FC0
0FC0
0F80
0000
0000
0000
0400
3F00
7F80
7F80
FF80
FF80
FF80
7F00
7E00
1800
ENDCHAR
STARTCHAR 0022
ENCODING 34
SWIDTH 486 0
DWIDTH 27 0
BBX 20 16 11 22
BITMAP
3F87F0
7F8FF0
7F0FE0
7F0FE0
7F0FE0
7F0FE0
FE1FC0
FE1FC0
FE1FC0
FC1F80
FC1F80
F81F00
F81F00
F81F00
F01E00
F01E00
ENDCHAR
STARTCHAR 0023
ENCODING 35
SWIDTH 486 0
DWIDTH 27 0
BBX 29 34 2 0
BITMAP
0007E1F8
0007C1F8
000FC1F0
000FC3F0
000F83E0
001F87E0
001F07E0
003F07C0
0FFFFFF8
0FFFFFF8
1FFFFFF8
1FFFFFF8
1FFFFFF0
1FFFFFF0
00F83E00
01F87E00
01F07E00
03F07C00
03F0FC00
03E0F800
7FFFFFC0
7FFFFFC0
7FFFFFC0
FFFFFFC0
FFFFFFC0
FFFFFF80
1F07E000
3F07C000
3F0FC000
3E0F8000
7E1F8000
7C1F8000
FC1F0000
FC3F0000
ENDCHAR
STARTCHAR 0024
ENCODING 36
SWIDTH 486 0
DWIDTH 27 0
BBX 27 44 3 -5
BITMAP
0000FC00
0000FC00
0000F800
0001F800
0001F800
0001F800
001FFE00
007FFFC0
00FFFFE0
01FFFFC0
03FFFF80
07FC0780
07F80100
07F00000
07F00000
07F00000
07F00000
07F80000
07FE0000
03FF0000
03FFC000
01FFF000
007FF800
003FFC00
000FFC00
0003FE00
0001FE00
0000FE00
0000FE00
0000FE00
0000FE00
3000FE00
7E03FE00
7FFFFC00
FFFFF800
FFFFF800
7FFFE000
1FFF8000
01F80000
01F80000
01F00000
03F00000
03F00000
03F00000
ENDCHAR
STARTCHAR 0025
ENCODING 37
SWIDTH 486 0
DWIDTH 27 0
BBX 32 36 1 -1
BITMAP
007E0000
00FF001F
01FF803E
03FF803E
03EF807C
07C780F8
078781F0
078783E0
0F8787C0
0F8F87C0
0F0F0F80
0F1F1F00
0F9F3E00
0FFE7C00
07FCF800
07F8F800
01F1F000
0003E000
0007C000
000F8FC0
001F1FE0
001F3FF0
003E7FF0
007CF8F0
00F8F0F0
01F0F0F0
03E1F0F0
07C1E1F0
07C1E1E0
0F81E1E0
1F01E3E0
3E01FFC0
7C01FFC0
F800FF80
F8007F00
00003C00
ENDCHAR
STARTCHAR 0026
ENCODING 38
SWIDTH 486 0
DWIDTH 27 0
BBX 27 36 2 -1
BITMAP
0003F800
000FFE00
003FFF00
007FFF00
007FFF00
00FE1F80
00FC1F80
01F81F80
01F81F00
01F81F00
01F83F00
01F87E00
01F8FC00
01F9FC00
00FFF000
00FFE000
00FFC000
01FF03E0
03FF07E0
0FFF87E0
1FDFC7C0
1F8FCFC0
3F0FEF80
7E07FF80
7E03FF00
7E03FF00
7E01FE00
FE01FC00
7E01FE00
7F07FE00
7FFFFF00
7FFFFF00
3FFFBF00
1FFF3F80
0FFC1F80
00800000
ENDCHAR
STARTCHAR 0027
ENCODING 39
SWIDTH 486 0
DWIDTH 27 0
BBX 9 17 16 21
BITMAP
3F80
3F80
7F80
7F00
7F00
7F00
FF00
FE00
FE00
FE00
FC00
FC00
F800
F800
F800
F000
F000
ENDCHAR
STARTCHAR 0028
ENCODING 40
SWIDTH 486 0
DWIDTH 27 0
BBX 22 48 8 -9
BITMAP
000030
0000F0
0001F8
0007F8
000FFC
001FF0
003FE0
007FC0
00FF00
01FE00
03FC00
03FC00
07F800
0FF000
0FE000
1FE000
1FC000
3F8000
3F8000
7F0000
7F0000
7F0000
7E0000
FE0000
FE0000
FC0000
FC0000
FC0000
FC0000
FC0000
FC0000
FC0000
FC0000
FC0000
FC0000
FE0000
FE0000
7E0000
7F0000
7F0000
3F8000
3F8000
1FC000
1FE000
0FF000
07E000
03C000
018000
ENDCHAR
STARTCHAR 0029
ENCODING 41
SWIDTH 486 0
DWIDTH 27 0
BBX 22 48 3 -9
BITMAP
000C00
001E00
003F00
007F80
003FC0
001FC0
000FE0
000FE0
0007F0
0007F0
0003F0
0003F8
0003F8
0001F8
0001F8
0001F8
0001FC
0001FC
0001FC
0001FC
0001FC
0001F8
0001F8
0003F8
0003F8
0003F8
0003F0
0007F0
0007F0
000FE0
000FE0
001FC0
001FC0
003F80
007F80
00FF00
00FF00
01FE00
03FC00
07F800
0FF000
3FE000
7FC000
FF8000
FF0000
FE0000
780000
700000
ENDCHAR
STARTCHAR 002A
ENCODING 42
SWIDTH 486 0
DWIDTH 27 0
BBX 22 21 7 13
BITMAP
00FE00
00FE00
00FC00
00FC00
207C08
787C78
7E78F8
7F7BFC
FFFFFC
FFFFFC
7FFFFC
007C00
01FE00
03FF80
07EFC0
0FEFE0
1FCFF0
3FC7F0
0F87E0
0783C0
030100
ENDCHAR
STARTCHAR 002B
ENCODING 43
SWIDTH 486 0
DWIDTH 27 0
BBX 24 25 4 2
BITMAP
000FC0
000FC0
001F80
001F80
001F80
001F80
001F00
003F00
003F00
003F00
7FFFFF
7FFFFF
FFFFFF
FFFFFF
FFFFFE
00FC00
00FC00
00FC00
00FC00
01F800
01F800
01F800
01F800
03F000
03F000
ENDCHAR
STARTCHAR 002C
ENCODING 44
SWIDTH 486 0
DWIDTH 27 0
BBX 14 17 5 -8
BITMAP
01F0
07F8
07FC
0FFC
0FFC
0FFC
0FFC
07F8
07F8
00F8
01F0
03F0
1FE0
FFC0
FF80
7E00
7800
ENDCHAR
STARTCHAR 002D
ENCODING 45
SWIDTH 486 0
DWIDTH 27 0
BBX 17 7 8 11
BITMAP
7FFF80
7FFF00
7FFF00
7FFF00
FFFF00
FFFE00
FFFE00
ENDCHAR
STARTCHAR 002E
ENCODING 46
SWIDTH 486 0
DWIDTH 27 0
BBX 10 10 9 -1
BITMAP
1F00
7F80
7FC0
FFC0
FFC0
FFC0
FF80
7F80
7F00
1800
ENDCHAR
STARTCHAR 002F
ENCODING 47
SWIDTH 486 0
DWIDTH 27 0
BBX 32 48 0 -9
BITMAP
0000007F
000000FF
000000FE
000001FC
000001FC
000003F8
000003F8
000007F0
000007F0
00000FE0
00000FE0
00001FC0
00003FC0
00003F80
00007F80
00007F00
0000FE00
0000FE00
0001FC00
0001FC00
0003F800
0003F800
0007F000
0007F000
000FE000
001FE000
001FC000
003FC000
003F8000
007F8000
007F0000
00FE0000
00FE0000
01FC0000
01FC0000
03F80000
03F80000
07F00000
07F00000
0FE00000
1FE00000
1FC00000
3FC00000
3F800000
7F800000
7F000000
FE000000
FE000000
ENDCHAR
STARTCHAR 0030
ENCODING 48
SWIDTH 486 0
DWIDTH 27 0
BBX 26 36 4 -1
BITMAP
000FF000
003FFC00
00FFFE00
01FFFF00
03FFFF00
03FFFF80
07F83F80
0FF01FC0
0FE01FC0
1FC01FC0
1FC01FC0
3F801FC0
3F801FC0
3F001FC0
7F1F1FC0
7F1F1F80
7E3F1F80
7E3F1F80
FE3F1F80
FE3E3F80
FE1C3F00
FC003F00
FC007F00
FC007F00
FC00FE00
FC00FE00
FC01FC00
FE01FC00
FE03F800
7F0FF800
7FFFF000
3FFFE000
3FFFC000
1FFF8000
07FE0000
01F00000
ENDCHAR
STARTCHAR 0031
ENCODING 49
SWIDTH 486 0
DWIDTH 27 0
BBX 22 34 4 0
BITMAP
0001FC
0003F8
000FF8
001FF8
007FF8
01FFF0
0FFFF0
0FFFF0
0FFFF0
0FE7E0
078FE0
060FE0
000FE0
000FE0
001FC0
001FC0
001FC0
001FC0
003F80
003F80
003F80
003F80
007F00
007F00
007F00
007F00
007E00
00FE00
7FFFFC
7FFFFC
FFFFF8
FFFFF8
FFFFF8
FFFFF8
ENDCHAR
STARTCHAR 0032
ENCODING 50
SWIDTH 486 0
DWIDTH 27 0
BBX 27 35 2 0
BITMAP
0007FC00
001FFF00
007FFF80
01FFFFC0
03FFFFE0
01FFFFE0
01F80FE0
00E00FE0
008007E0
000007E0
00000FE0
00000FE0
00001FC0
00003FC0
00007F80
0000FF80
0001FF00
0007FE00
000FFC00
001FF000
007FE000
00FF8000
01FF0000
03FE0000
07F80000
0FF00000
1FE00000
1FC00000
3F800000
3FFFFF00
7FFFFF00
7FFFFE00
7FFFFE00
FFFFFE00
FFFFFE00
ENDCHAR
STARTCHAR 0033
ENCODING 51
SWIDTH 486 0
DWIDTH 27 0
BBX 27 36 2 -1
BITMAP
000FFC00
007FFF00
01FFFF80
00FFFFC0
00FFFFC0
00FEFFE0
00601FE0
00000FE0
00000FE0
00000FE0
00000FC0
00001FC0
00001F80
00007F80
003FFF00
003FFC00
003FF000
007FF800
007FFC00
007FFE00
0001FF00
00007F00
00007F00
00003F80
00003F80
00003F00
00007F00
00007F00
2000FF00
7C03FE00
7FFFFE00
FFFFFC00
FFFFF800
FFFFE000
3FFF8000
03F80000
ENDCHAR
STARTCHAR 0034
ENCODING 52
SWIDTH 486 0
DWIDTH 27 0
BBX 28 34 2 0
BITMAP
000007F0
00001FF0
00003FF0
00007FE0
0000FFE0
0001FFE0
0003FFE0
0007FFC0
000FEFC0
001F9FC0
003F1FC0
007F1F80
00FE1F80
01FC3F80
01F83F80
03F03F00
07E03F00
0FC07F00
1F807F00
3F007E00
3FFFFFE0
7FFFFFE0
7FFFFFC0
7FFFFFC0
7FFFFFC0
FFFFFFC0
0001FC00
0001FC00
0001F800
0001F800
0003F800
0003F800
0003F000
0003F000
ENDCHAR
STARTCHAR 0035
ENCODING 53
SWIDTH 486 0
DWIDTH 27 0
BBX 29 35 2 -1
BITMAP
001FFFF8
003FFFF0
003FFFF0
003FFFF0
007FFFF0
007E0000
007E0000
00FC0000
00FC0000
00FC0000
01F80000
01F80000
01F80000
03FFC000
03FFF000
03FFF800
07FFFC00
07FFFE00
0007FF00
0000FF00
00007F00
00007F00
00003F80
00003F00
00003F00
00007F00
00007F00
2000FF00
3C03FE00
7FFFFC00
7FFFFC00
FFFFF800
FFFFE000
3FFF8000
01FC0000
ENDCHAR
STARTCHAR 0036
ENCODING 54
SWIDTH 486 0
DWIDTH 27 0
BBX 27 36 4 -1
BITMAP
000001E0
00007FE0
0003FFE0
000FFFC0
003FFFC0
007FFFC0
01FFE000
03FF0000
07FC0000
07F00000
0FE00000
1FC00000
1FC00000
3F838000
3FBFF000
7FFFF800
7FFFFC00
7FFFFE00
7FF7FE00
FF00FF00
FE007F00
FE007F00
FE007F00
FE007F00
FE007F00
FE007F00
FE007E00
7E00FE00
7F00FE00
7F83FC00
3FFFFC00
3FFFF800
1FFFF000
0FFFE000
03FF8000
007C0000
ENDCHAR
STARTCHAR 0037
ENCODING 55
SWIDTH 486 0
DWIDTH 27 0
BBX 26 34 7 0
BITMAP
3FFFFFC0
3FFFFFC0
7FFFFF80
7FFFFF80
7FFFFF80
0000FF00
0001FE00
0003FC00
0003F800
0007F000
000FE000
001FC000
003FC000
003F8000
007F0000
00FF0000
00FE0000
01FC0000
01FC0000
03F80000
07F00000
07F00000
0FE00000
0FE00000
1FC00000
1FC00000
3F800000
3F800000
7F000000
7F000000
7F000000
FE000000
FE000000
FE000000
ENDCHAR
STARTCHAR 0038
ENCODING 56
SWIDTH 486 0
DWIDTH 27 0
BBX 27 36 3 -1
BITMAP
0007F800
003FFE00
007FFF80
00FFFFC0
01FFFFC0
03FE3FE0
03F80FE0
03F00FE0
07F007E0
07F007E0
07F00FE0
07F00FC0
03F01FC0
03F83F80
01FEFF00
01FFFE00
00FFFC00
01FFF000
03FFF800
0FF7FC00
1FE3FE00
3F80FE00
3F007F00
7F007F00
7E007F00
7E007F00
FE007F00
FE007F00
FF00FE00
7F81FE00
7FFFFE00
3FFFFC00
3FFFF800
1FFFF000
07FFC000
007C0000
ENDCHAR
STARTCHAR 0039
ENCODING 57
SWIDTH 486 0
DWIDTH 27 0
BBX 27 35 3 0
BITMAP
001FF000
007FFC00
00FFFE00
03FFFF00
03FFFF80
07FFFF80
0FF03FC0
0FE01FC0
1FC00FC0
1FC00FE0
1F800FE0
1F800FE0
1F800FE0
1F800FE0
1FC00FE0
1FC00FC0
1FF07FC0
0FFFFFC0
0FFFFFC0
07FFFFC0
03FFDF80
00FF3F80
00003F00
00007F00
0000FE00
0001FE00
0003FC00
000FF800
003FF000
0FFFE000
7FFFC000
7FFF0000
FFFE0000
FFF00000
FF800000
ENDCHAR
STARTCHAR 003A
ENCODING 58
SWIDTH 486 0
DWIDTH 27 0
BBX 14 27 9 -1
BITMAP
01F0
03F8
07FC
0FFC
0FFC
0FFC
0FF8
0FF8
07F0
01C0
0000
0000
0000
0000
0000
0000
0000
1F00
7F80
7FC0
FFC0
FFC0
FFC0
FF80
7F80
7F00
1800
ENDCHAR
STARTCHAR 003B
ENCODING 59
SWIDTH 486 0
DWIDTH 27 0
BBX 18 34 5 -8
BITMAP
001F00
003F80
007FC0
00FFC0
00FFC0
00FFC0
00FF80
00FF80
007F00
001C00
000000
000000
000000
000000
000000
000000
000000
01F000
07F800
07FC00
0FFC00
0FFC00
0FFC00
0FFC00
07F800
07F800
00F800
01F000
03F000
1FE000
FFC000
FF8000
7E0000
780000
ENDCHAR
STARTCHAR 003C
ENCODING 60
SWIDTH 486 0
DWIDTH 27 0
BBX 26 23 4 2
BITMAP
00000180
00000F80
00003F80
0001FF80
0007FFC0
003FFFC0
01FFFF00
07FFF800
3FFFC000
7FFE0000
7FF00000
7F800000
7FC00000
FFF00000
7FFC0000
1FFF8000
07FFE000
01FFF800
007FFE00
001FFC00
0007F800
0001F800
00003000
ENDCHAR
STARTCHAR 003D
ENCODING 61
SWIDTH 486 0
DWIDTH 27 0
BBX 27 17 3 6
BITMAP
1FFFFFE0
1FFFFFC0
1FFFFFC0
1FFFFFC0
3FFFFFC0
3FFFFF80
00000000
00000000
00000000
00000000
00000000
7FFFFF00
FFFFFF00
FFFFFF00
FFFFFE00
FFFFFE00
FFFFFE00
ENDCHAR
STARTCHAR 003E
ENCODING 62
SWIDTH 486 0
DWIDTH 27 0
BBX 25 24 3 2
BITMAP
07000000
07C00000
0FF00000
0FFC0000
1FFF0000
0FFFC000
03FFF000
007FFC00
001FFF00
0007FF80
0001FF80
00007F80
0003FF00
001FFF00
00FFFF00
07FFF800
1FFFE000
FFFF0000
FFFC0000
FFE00000
FF000000
FC000000
E0000000
80000000
ENDCHAR
STARTCHAR 003F
ENCODING 63
SWIDTH 486 0
DWIDTH 27 0
BBX 20 36 9 -1
BITMAP
03FF00
0FFFC0
3FFFE0
3FFFF0
3FFFF0
3FFFF0
3807F0
2007F0
0007F0
0007F0
000FF0
001FE0
003FE0
007FC0
01FF80
03FE00
07FC00
0FF000
0FE000
1FC000
1F8000
3F8000
3F8000
000000
000000
000000
080000
7F0000
FF0000
FF8000
FF8000
FF8000
FF0000
FF0000
7E0000
180000
ENDCHAR
STARTCHAR 0040
ENCODING 64
SWIDTH 486 0
DWIDTH 27 0
BBX 28 43 3 -8
BITMAP
0003FE00
000FFF80
003FFFC0
007FFFE0
00FFFFE0
01FC07F0
03F803F0
07E001F0
07C001F0
0FC003F0
1F8033F0
1F01FFF0
1F07FFF0
3E0FFFE0
3E1FFFE0
3E1FFFE0
7C3F87E0
7C3F07C0
7C7E0FC0
7C7E0FC0
FC7E0FC0
F87C0F80
F87C1F80
F87C1F80
F87C1F80
F87C1F80
F87E3F00
F87F3F00
F87FFF00
F83FFF00
FC3FFE00
FC1FFE00
7C07F800
7E000000
7E000000
3F000000
3FC00000
1FF07000
1FFFF000
0FFFF000
03FFF000
00FFF000
000C0000
ENDCHAR
STARTCHAR 0041
ENCODING 65
SWIDTH 486 0
DWIDTH 27 0
BBX 26 34 0 0
BITMAP
00007F80
0000FF80
0000FF80
0001FF80
0003FF80
0003FF80
0007EF80
0007EF80
000FCF80
000FCFC0
001F8FC0
001F8FC0
003F0FC0
003F0FC0
007E0FC0
007E0FC0
00FC0FC0
00FC0FC0
01F80FC0
01F80FC0
03FFFFC0
03FFFFC0
07FFFFC0
07FFFFC0
0FFFFFC0
0FFFFFC0
1FC00FC0
1F800FC0
3F800FC0
3F000FC0
7F000FC0
7F000FC0
FE000FC0
FE000FC0
ENDCHAR
STARTCHAR 0042
ENCODING 66
SWIDTH 486 0
DWIDTH 27 0
BBX 28 35 2 0
BITMAP
0007F000
00FFFF00
00FFFF80
00FFFFC0
01FFFFE0
01FFFFE0
01F80FF0
01F807F0
03F807F0
03F807F0
03F807F0
03F007E0
07F00FE0
07F03FC0
07FFFF80
07FFFF00
0FFFFC00
0FFFFE00
0FFFFF00
0FFFFF80
1FC07F80
1FC01FC0
1FC01FC0
1F801FC0
1F801FC0
3F801FC0
3F801FC0
3F003F80
3F00FF80
7F87FF00
7FFFFF00
7FFFFE00
7FFFF800
FFFFF000
7FFF8000
ENDCHAR
STARTCHAR 0043
ENCODING 67
SWIDTH 486 0
DWIDTH 27 0
BBX 27 36 5 -1
BITMAP
0003FE00
001FFF80
007FFFE0
00FFFFC0
01FFFFC0
03FFFF80
07FC0380
0FF80000
0FF00000
1FE00000
1FC00000
3F800000
3F800000
3F800000
7F000000
7F000000
7F000000
FE000000
FE000000
FE000000
FE000000
FE000000
FE000000
FE000000
FE000000
FE000000
FE000000
FF000000
7F801000
7FE1F000
7FFFF000
3FFFF000
1FFFF000
0FFFF000
07FFC000
00FC0000
ENDCHAR
STARTCHAR 0044
ENCODING 68
SWIDTH 486 0
DWIDTH 27 0
BBX 27 35 2 0
BITMAP
001FE000
00FFFC00
01FFFE00
01FFFF00
01FFFF80
01FFFFC0
03F87FC0
03F81FE0
03F80FE0
03F80FE0
03F00FE0
07F00FE0
07F00FE0
07F00FE0
07E00FE0
0FE00FE0
0FE00FE0
0FE00FE0
0FC00FE0
1FC00FE0
1FC01FC0
1FC01FC0
1FC01FC0
3F803FC0
3F807F80
3F807F80
3F80FF00
7F01FF00
7F07FE00
7FFFFC00
7FFFF800
FFFFF000
FFFFE000
FFFF8000
FFFC0000
ENDCHAR
STARTCHAR 0045
ENCODING 69
SWIDTH 486 0
DWIDTH 27 0
BBX 28 34 3 0
BITMAP
00FFFFF0
00FFFFF0
01FFFFF0
01FFFFF0
01FFFFE0
01FC0000
01F80000
03F80000
03F80000
03F80000
03F00000
07F00000
07F00000
07FFFE00
07FFFE00
0FFFFE00
0FFFFE00
0FFFFE00
0FFFFC00
1FC00000
1FC00000
1FC00000
1FC00000
3F800000
3F800000
3F800000
3F800000
7F000000
7FFFFE00
7FFFFE00
7FFFFC00
7FFFFC00
FFFFFC00
FFFFFC00
ENDCHAR
STARTCHAR 0046
ENCODING 70
SWIDTH 486 0
DWIDTH 27 0
BBX 29 34 3 0
BITMAP
00FFFFF8
00FFFFF8
00FFFFF8
01FFFFF8
01FFFFF0
01FC0000
01FC0000
03F80000
03F80000
03F80000
03F80000
03F00000
07F00000
07F00000
07FFFF00
07FFFF00
0FFFFF00
0FFFFE00
0FFFFE00
0FE00000
1FC00000
1FC00000
1FC00000
1FC00000
3F800000
3F800000
3F800000
3F800000
7F000000
7F000000
7F000000
7F000000
7E000000
FE000000
ENDCHAR
STARTCHAR 0047
ENCODING 71
SWIDTH 486 0
DWIDTH 27 0
BBX 28 36 4 -1
BITMAP
0003FF00
000FFFC0
003FFFF0
007FFFE0
00FFFFE0
01FFFFC0
03FE01C0
07FC0000
0FF00000
0FE00000
1FE00000
1FC00000
3FC00000
3F800000
3F800000
7F000000
7F000000
7F003F00
7F007F00
7E007F00
FE007F00
FE007F00
FE00FE00
FE00FE00
FE00FE00
FE00FE00
FF01FC00
7F01FC00
7F81FC00
7FE1FC00
3FFFF800
3FFFF800
1FFFF800
0FFFF800
07FFE000
00FC0000
ENDCHAR
STARTCHAR 0048
ENCODING 72
SWIDTH 486 0
DWIDTH 27 0
BBX 30 34 2 0
BITMAP
01FC01FC
01FC01FC
01FC01FC
01FC01FC
01F801F8
03F803F8
03F803F8
03F803F8
03F003F0
07F007F0
07F007F0
07F007F0
07E007E0
0FFFFFE0
0FFFFFE0
0FFFFFE0
0FFFFFE0
1FFFFFC0
1FFFFFC0
1FC01FC0
1FC01FC0
3F803F80
3F803F80
3F803F80
3F803F80
7F007F00
7F007F00
7F007F00
7F007F00
7E00FE00
FE00FE00
FE00FE00
FE00FE00
FC00FC00
ENDCHAR
STARTCHAR 0049
ENCODING 73
SWIDTH 486 0
DWIDTH 27 0
BBX 30 34 2 0
BITMAP
00FFFFFC
00FFFFFC
01FFFFF8
01FFFFF8
01FFFFF8
0003F800
0003F800
0003F800
0003F000
0007F000
0007F000
0007F000
0007F000
000FE000
000FE000
000FE000
000FE000
001FC000
001FC000
001FC000
001FC000
003F8000
003F8000
003F8000
003F8000
007F0000
007F0000
007F0000
7FFFFE00
7FFFFE00
7FFFFE00
7FFFFC00
FFFFFC00
FFFFFC00
ENDCHAR
STARTCHAR 004A
ENCODING 74
SWIDTH 486 0
DWIDTH 27 0
BBX 29 35 2 -1
BITMAP
001FFFF8
001FFFF8
003FFFF0
003FFFF0
003FFFF0
000007F0
00000FE0
00000FE0
00000FE0
00000FE0
00000FC0
00001FC0
00001FC0
00001FC0
00001F80
00003F80
00003F80
00003F80
00003F00
00007F00
00007F00
00007F00
00007F00
0000FE00
0000FE00
0000FE00
1001FC00
3C03FC00
3F0FF800
7FFFF800
FFFFF000
7FFFE000
3FFFC000
0FFF0000
00F80000
ENDCHAR
STARTCHAR 004B
ENCODING 75
SWIDTH 486 0
DWIDTH 27 0
BBX 31 34 2 0
BITMAP
00FE01FE
01FC03FC
01FC03F8
01FC07F8
01FC0FF0
01F81FE0
03F83FC0
03F83F80
03F87F00
03F0FE00
07F1FE00
07F3FC00
07F7F800
07EFF000
0FFFE000
0FFF8000
0FFF8000
0FFFC000
1FDFC000
1FDFE000
1FCFF000
1FC7F000
3F87F800
3F83F800
3F83FC00
3F81FC00
3F01FC00
7F00FE00
7F00FE00
7F00FF00
7E007F00
FE007F00
FE007F00
FE007F80
ENDCHAR
STARTCHAR 004C
ENCODING 76
SWIDTH 486 0
DWIDTH 27 0
BBX 22 34 3 0
BITMAP
01FC00
01FC00
01FC00
01FC00
01F800
03F800
03F800
03F800
03F000
07F000
07F000
07F000
07E000
0FE000
0FE000
0FE000
0FE000
1FC000
1FC000
1FC000
1FC000
3F8000
3F8000
3F8000
3F8000
3F0000
7F0000
7F0000
7FFFFC
7FFFFC
FFFFFC
FFFFF8
FFFFF8
FFFFF8
ENDCHAR
STARTCHAR 004D
ENCODING 77
SWIDTH 486 0
DWIDTH 27 0
BBX 32 34 0 0
BITMAP
003F007F
003F007F
007F00FF
007F80FE
007F81FE
00FF81FE
00FF83FE
00FF83FE
01FF87BE
01F787BC
01F78F7C
01F78F7C
03F79E7C
03E79EFC
03E7BCFC
07E7FCF8
07E7F8F8
07C7F9F8
07C3F1F8
0FC3F1F8
0FC3E1F0
0FC3E3F0
1F8003F0
1F8003F0
1F8003F0
1F8007E0
3F0007E0
3F0007E0
3F0007E0
3F000FE0
7E000FC0
7E000FC0
7E000FC0
FE001FC0
ENDCHAR
STARTCHAR 004E
ENCODING 78
SWIDTH 486 0
DWIDTH 27 0
BBX 30 34 2 0
BITMAP
01FC00FC
01FC00FC
01FC00FC
01FE00FC
03FE01F8
03FE01F8
03FF01F8
03FF01F8
03FF03F0
07FF03F0
07EF83F0
07EF83F0
07EF87E0
0FCF87E0
0FC7C7E0
0FC7C7E0
0FC7CFC0
1F87CFC0
1F83EFC0
1F83EFC0
1F83FFC0
3F03FF80
3F01FF80
3F01FF80
3F01FF80
7F01FF00
7E01FF00
7E00FF00
7E00FF00
7E00FE00
FC00FE00
FC00FE00
FC00FE00
FC007C00
ENDCHAR
STARTCHAR 004F
ENCODING 79
SWIDTH 486 0
DWIDTH 27 0
BBX 26 36 4 -1
BITMAP
000FF000
003FFC00
00FFFE00
01FFFF00
03FFFF80
07FFFF80
07F83F80
0FF01FC0
0FE01FC0
1FC01FC0
1FC01FC0
3F801FC0
3F801FC0
3F001FC0
7F001FC0
7F001FC0
7F001FC0
FE003F80
FE003F80
FE003F80
FE003F80
FE007F00
FE007F00
FE007F00
FE00FE00
FE00FE00
FE01FC00
FE03FC00
FE07F800
FF9FF800
7FFFF000
7FFFE000
3FFFC000
1FFF8000
0FFE0000
01F00000
ENDCHAR
STARTCHAR 0050
ENCODING 80
SWIDTH 486 0
DWIDTH 27 0
BBX 29 35 2 0
BITMAP
000FF800
00FFFF00
00FFFFC0
00FFFFE0
01FFFFF0
01FFFFF0
01FC1FF0
01FC07F8
03F803F8
03F803F8
03F803F8
03F803F8
03F003F8
07F007F0
07F007F0
07F00FF0
07E03FE0
0FFFFFE0
0FFFFFC0
0FFFFF80
0FFFFE00
1FFFF800
1FFFC000
1FC00000
1FC00000
3F800000
3F800000
3F800000
3F800000
7F000000
7F000000
7F000000
7F000000
FE000000
FE000000
ENDCHAR
STARTCHAR 0051
ENCODING 81
SWIDTH 486 0
DWIDTH 27 0
BBX 26 44 4 -9
BITMAP
000FF000
003FFC00
00FFFE00
01FFFF00
03FFFF80
07FFFF80
07F83F80
0FF01FC0
0FE01FC0
1FC01FC0
1FC01FC0
3F801FC0
3F801FC0
3F001FC0
7F001FC0
7F001FC0
7F001F80
7E003F80
FE003F80
FE003F80
FE003F80
FE007F00
FE007F00
FE007F00
FE00FE00
FE00FE00
FE01FC00
FE03FC00
FE07F800
FF9FF800
7FFFF000
7FFFE000
3FFFC000
1FFF8000
0FFE0000
03F00000
03E00000
03F00000
03F80000
01FF8000
01FFE000
00FFC000
003FC000
000F8000
ENDCHAR
STARTCHAR 0052
ENCODING 82
SWIDTH 486 0
DWIDTH 27 0
BBX 28 35 2 0
BITMAP
000FF000
00FFFE00
00FFFF80
01FFFFC0
01FFFFC0
01FFFFE0
01F81FE0
03F80FE0
03F807F0
03F807F0
03F807F0
07F007E0
07F00FE0
07F00FE0
07F01FE0
07E03FC0
0FE1FF80
0FFFFF80
0FFFFF00
0FFFFC00
1FFFF800
1FFFE000
1FC7F000
1F83F000
3F83F800
3F81F800
3F81FC00
3F01FC00
7F00FC00
7F00FE00
7F00FE00
7E007E00
FE007F00
FE007F00
FE007F00
ENDCHAR
STARTCHAR 0053
ENCODING 83
SWIDTH 486 0
DWIDTH 27 0
BBX 28 36 2 -1
BITMAP
0007FF00
001FFFE0
007FFFF0
00FFFFF0
01FFFFE0
01FFFFE0
03FC01C0
03F80000
03F80000
03F00000
03F80000
03F80000
03FC0000
03FE0000
03FF8000
01FFE000
00FFF800
007FFC00
003FFE00
000FFE00
0003FF00
0001FF00
0000FF00
00007F00
00007F00
00007F00
00007F00
00007F00
3800FF00
3E03FE00
7FFFFE00
FFFFFC00
FFFFF800
7FFFF000
1FFFC000
00FC0000
ENDCHAR
STARTCHAR 0054
ENCODING 84
SWIDTH 486 0
DWIDTH 27 0
BBX 26 34 7 0
BITMAP
7FFFFFC0
7FFFFFC0
7FFFFFC0
7FFFFFC0
FFFFFF80
007F0000
007F0000
007F0000
00FE0000
00FE0000
00FE0000
00FE0000
01FC0000
01FC0000
01FC0000
01FC0000
01F80000
03F80000
03F80000
03F80000
03F00000
07F00000
07F00000
07F00000
07E00000
0FE00000
0FE00000
0FE00000
0FE00000
1FC00000
1FC00000
1FC00000
1FC00000
3F800000
ENDCHAR
STARTCHAR 0055
ENCODING 85
SWIDTH 486 0
DWIDTH 27 0
BBX 28 35 4 -1
BITMAP
07F007F0
07F007F0
07F007E0
07E00FE0
0FE00FE0
0FE00FE0
0FE00FC0
0FC01FC0
1FC01FC0
1FC01FC0
1FC01FC0
1F803F80
3F803F80
3F803F80
3F803F80
3F807F00
7F007F00
7F007F00
7F007F00
7F00FE00
FE00FE00
FE00FE00
FE00FE00
FE01FC00
FE01FC00
FE01FC00
FE03F800
FE03F800
FF0FF800
FFFFF000
7FFFE000
7FFFE000
3FFF8000
1FFF0000
01F00000
ENDCHAR
STARTCHAR 0056
ENCODING 86
SWIDTH 486 0
DWIDTH 27 0
BBX 26 34 8 0
BITMAP
FE001FC0
FE003F80
FE003F80
FC003F80
FC007F00
FC007F00
FC00FE00
FC00FE00
FC01FC00
FC01FC00
FC01F800
FC03F800
FC03F000
FC07F000
FC07E000
FC0FE000
FC0FC000
FC1FC000
FC1F8000
FC3F8000
FC3F0000
FC7F0000
FE7E0000
FE7E0000
FEFC0000
7EFC0000
7FF80000
7FF00000
7FF00000
7FE00000
7FE00000
7FC00000
7FC00000
7F800000
ENDCHAR
STARTCHAR 0057
ENCODING 87
SWIDTH 486 0
DWIDTH 27 0
BBX 32 34 2 0
BITMAP
03F8007F
03F0007E
03F0007E
03F0007E
03F000FE
07E000FC
07E000FC
07E000FC
07E000F8
0FC001F8
0FC001F8
0FC001F8
0FC7E1F0
0F87E3F0
1F8FE3F0
1F8FE3E0
1F9FE3E0
1F1FE7E0
1F3FE7E0
3F3DE7C0
3F79E7C0
3E79E7C0
3EF1EF80
3EF1EF80
3FE1EF80
7DE1EF80
7FC1FF00
7FC1FF00
7F81FF00
7F80FE00
7F00FE00
FF00FE00
FE00FC00
FE00FC00
ENDCHAR
STARTCHAR 0058
ENCODING 88
SWIDTH 486 0
DWIDTH 27 0
BBX 33 34 0 0
BITMAP
007F003F80
007F007F80
007F007F00
003F80FE00
003F81FC00
001F81FC00
001FC3F800
001FC7F000
000FEFE000
000FEFC000
0007FFC000
0007FF8000
0007FF0000
0003FE0000
0003FC0000
0003FC0000
0007FC0000
0007FC0000
000FFC0000
001FFE0000
003FFE0000
003FFE0000
007F7F0000
00FE7F0000
01FE3F0000
01FC3F8000
03F83F8000
07F83F8000
0FF01F8000
0FE01FC000
1FC01FC000
3FC01FC000
7F801FC000
FF000FC000
ENDCHAR
STARTCHAR 0059
ENCODING 89
SWIDTH 486 0
DWIDTH 27 0
BBX 26 34 8 0
BITMAP
FE003FC0
FE003F80
FE007F80
FE007F00
7E00FE00
7E01FE00
7F01FC00
7F03F800
7F03F800
3F07F000
3F0FE000
3F0FE000
3F9FC000
3FBF8000
1FBF8000
1FFF0000
1FFE0000
0FFC0000
0FF80000
0FF80000
0FF00000
0FE00000
0FE00000
0FE00000
0FE00000
0FC00000
1FC00000
1FC00000
1FC00000
1F800000
3F800000
3F800000
3F800000
3F000000
ENDCHAR
STARTCHAR 005A
ENCODING 90
SWIDTH 486 0
DWIDTH 27 0
BBX 30 34 2 0
BITMAP
00FFFFFC
00FFFFF8
00FFFFF8
01FFFFF8
01FFFFF8
000007F0
00000FE0
00001FC0
00003F80
00007F80
0000FF00
0001FE00
0003FC00
0003F800
0007F000
000FE000
001FC000
003FC000
007F8000
00FF0000
00FE0000
01FC0000
03F80000
07F80000
0FF00000
0FE00000
1FC00000
3F800000
7FFFFE00
7FFFFE00
FFFFFE00
FFFFFE00
FFFFFC00
FFFFFC00
ENDCHAR
STARTCHAR 005B
ENCODING 91
SWIDTH 486 0
DWIDTH 27 0
BBX 27 48 5 -9
BITMAP
001FFFE0
001FFFE0
001FFFC0
001FFFC0
003FFFC0
003FFFC0
003F8000
003F0000
007F0000
007F0000
007F0000
007E0000
007E0000
00FE0000
00FE0000
00FC0000
00FC0000
01FC0000
01FC0000
01F80000
01F80000
03F80000
03F80000
03F00000
03F00000
07F00000
07F00000
07E00000
07E00000
0FE00000
0FE00000
0FE00000
0FC00000
1FC00000
1FC00000
1FC00000
1F800000
3F800000
3F800000
3F800000
3F000000
3F000000
7F000000
7FFF8000
7FFF0000
7FFF0000
FFFF0000
FFFF0000
ENDCHAR
STARTCHAR 005C
ENCODING 92
SWIDTH 486 0
DWIDTH 27 0
BBX 11 48 11 -9
BITMAP
FE00
7E00
7E00
7E00
7E00
7E00
7F00
7F00
7F00
7F00
7F00
7F00
3F00
3F00
3F00
3F00
3F00
3F80
3F80
3F80
3F80
3F80
3F80
1F80
1F80
1F80
1F80
1FC0
1FC0
1FC0
1FC0
1FC0
1FC0
1FC0
0FC0
0FC0
0FC0
0FC0
0FE0
0FE0
0FE0
0FE0
0FE0
0FE0
0FE0
07E0
07E0
07E0
ENDCHAR
STARTCHAR 005D
ENCODING 93
SWIDTH 486 0
DWIDTH 27 0
BBX 27 48 1 -9
BITMAP
001FFFE0
001FFFE0
001FFFC0
001FFFC0
003FFFC0
003FFFC0
00001F80
00001F80
00003F80
00003F80
00003F00
00003F00
00007F00
00007F00
00007E00
00007E00
0000FE00
0000FE00
0000FC00
0000FC00
0001FC00
0001FC00
0001F800
0001F800
0003F800
0003F800
0003F800
0003F000
0007F000
0007F000
0007F000
0007E000
000FE000
000FE000
000FE000
000FC000
000FC000
001FC000
001FC000
001F8000
001F8000
003F8000
003F8000
7FFF0000
7FFF0000
FFFF0000
FFFF0000
FFFE0000
ENDCHAR
STARTCHAR 005E
ENCODING 94
SWIDTH 486 0
DWIDTH 27 0
BBX 25 19 5 14
BITMAP
000FE000
000FF000
001FF000
003FF000
007FF800
00FFF800
01FFF800
01FDFC00
03F9FC00
07F9FC00
0FF0FE00
1FE0FE00
3FC0FE00
3F807F00
7F807F00
FF007F00
FE003F80
7C003F00
18003800
ENDCHAR
STARTCHAR 005F
ENCODING 95
SWIDTH 486 0
DWIDTH 27 0
BBX 26 6 -2 -9
BITMAP
7FFFFFC0
7FFFFFC0
7FFFFFC0
7FFFFFC0
FFFFFF80
FFFFFF80
ENDCHAR
STARTCHAR 0060
ENCODING 96
SWIDTH 486 0
DWIDTH 27 0
BBX 12 10 13 28
BITMAP
1800
3C00
3F00
7F80
FFC0
7FF0
1FF0
07F0
01E0
0040
ENDCHAR
STARTCHAR 0061
ENCODING 97
SWIDTH 486 0
DWIDTH 27 0
BBX 25 28 4 -1
BITMAP
0007E000
003FFE00
00FFFF80
03FFFF80
07FFFF80
0FFFFF00
1FF07F00
3FE07F00
3F807F00
7F807E00
7F00FE00
FE00FE00
FE00FE00
FE00FC00
FE01FC00
FC01FC00
FC01FC00
FC01F800
FC01F800
FE03F800
FE07F800
FF0FF800
FFFFF800
7FFFFC00
7FFFFC00
3FFEFC00
1FF8FC00
03C00000
ENDCHAR
STARTCHAR 0062
ENCODING 98
SWIDTH 486 0
DWIDTH 27 0
BBX 26 39 2 0
BITMAP
003F0000
007F0000
007E0000
00FE0000
00FE0000
00FE0000
00FC0000
01FC0000
01FC0000
01FC0000
01F80000
03F86000
03FFFC00
03FFFE00
03FFFF00
07FFFF80
07FFFF80
07F87F80
07F03FC0
0FE01FC0
0FE01FC0
0FE01FC0
0FE01FC0
1FC01FC0
1FC01FC0
1FC01FC0
1FC03F80
1F803F80
3F803F80
3F807F00
3F80FF00
3F01FE00
7F07FE00
7FFFFC00
7FFFF800
7FFFF000
FFFFC000
7FFF0000
01F00000
ENDCHAR
STARTCHAR 0063
ENCODING 99
SWIDTH 486 0
DWIDTH 27 0
BBX 25 28 4 -1
BITMAP
0001F800
001FFF80
007FFF80
01FFFF80
03FFFF00
07FFFF00
0FFE0600
1FF00000
3FE00000
3FC00000
7F800000
7F000000
7F000000
7F000000
FE000000
FE000000
FE000000
FE000000
FE000000
FF000000
7F800800
7FF1F800
7FFFF800
3FFFF800
1FFFF800
0FFFF800
03FFF000
001E0000
ENDCHAR
STARTCHAR 0064
ENCODING 100
SWIDTH 486 0
DWIDTH 27 0
BBX 28 39 4 0
BITMAP
000003F0
000007F0
000007F0
000007E0
00000FE0
00000FE0
00000FE0
00000FE0
00001FC0
00001FC0
00001FC0
00001FC0
003FFF80
00FFFF80
03FFFF80
07FFFF80
0FFFFF00
1FF07F00
3FE07F00
3F807F00
7F807E00
7F00FE00
FE00FE00
FE00FE00
FE00FC00
FE01FC00
FC01FC00
FC01FC00
FC01F800
FC01F800
FE03F800
FE07F800
FF0FF800
FFFFF800
7FFFFC00
7FFFFC00
3FFEFC00
1FF8FC00
03C00000
ENDCHAR
STARTCHAR 0065
ENCODING 101
SWIDTH 486 0
DWIDTH 27 0
BBX 25 28 4 -1
BITMAP
0007C000
003FFC00
00FFFE00
03FFFF00
07FFFF00
0FFFFF80
1FF03F80
1FC03F80
3F803F80
3F003F80
7F007F00
7E00FF00
7E07FE00
FFFFFE00
FFFFF800
FFFFF000
FFFF8000
FFE00000
FE000000
FE000000
7F000000
7FC03800
7FFFF800
3FFFF800
1FFFF800
0FFFF800
03FFE000
007E0000
ENDCHAR
STARTCHAR 0066
ENCODING 102
SWIDTH 486 0
DWIDTH 27 0
BBX 35 48 -2 -9
BITMAP
0000000800
000001FFC0
000007FFE0
00000FFFC0
00001FFFC0
00003FFF80
00007FC380
00007F0000
00007F0000
0000FE0000
0000FE0000
0000FE0000
0000FC0000
003FFFFF00
003FFFFE00
007FFFFE00
007FFFFE00
007FFFFE00
007FFFFC00
0003F80000
0003F80000
0003F80000
0003F00000
0007F00000
0007F00000
0007F00000
0007F00000
0007E00000
000FE00000
000FE00000
000FE00000
000FE00000
000FC00000
001FC00000
001FC00000
001FC00000
001FC00000
001F800000
003F800000
003F800000
007F800000
00FF000000
3FFF000000
7FFE000000
7FFC000000
7FFC000000
FFF0000000
7FC0000000
ENDCHAR
STARTCHAR 0067
ENCODING 103
SWIDTH 486 0
DWIDTH 27 0
BBX 29 36 0 -9
BITMAP
00003E00
0003FFF0
000FFFF8
003FFFF8
007FFFF8
00FFFFF8
01FF03F8
01FE07F0
03FC07F0
03F807F0
07F007F0
07F00FE0
07E00FE0
0FE00FE0
0FE00FE0
0FE00FC0
0FE01FC0
0FE01FC0
0FF01FC0
07F8FF80
07FFFF80
07FFFF80
03FFFF80
01FFFF00
00FF7F00
00007F00
00007F00
0000FE00
0000FE00
3003FC00
3FFFFC00
7FFFF800
7FFFF000
FFFFE000
7FFFC000
1FFF0000
ENDCHAR
STARTCHAR 0068
ENCODING 104
SWIDTH 486 0
DWIDTH 27 0
BBX 25 38 3 1
BITMAP
007E0000
00FE0000
00FE0000
00FE0000
01FC0000
01FC0000
01FC0000
01FC0000
03F80000
03F80000
03F80000
03F9C000
03FFF800
07FFFE00
07FFFF00
07FFFF00
07FFFF00
0FF0FF80
0FE07F80
0FE07F80
0FE03F80
1FC03F00
1FC07F00
1FC07F00
1FC07F00
3F807F00
3F80FE00
3F80FE00
3F80FE00
7F00FE00
7F01FC00
7F01FC00
7F01FC00
7E01FC00
FE01F800
FE03F800
FE03F800
FC03F800
ENDCHAR
STARTCHAR 0069
ENCODING 105
SWIDTH 486 0
DWIDTH 27 0
BBX 19 39 6 -1
BITMAP
001E00
003F00
007F80
007F80
00FF80
007F80
007F00
007E00
001800
000000
000000
000000
7FFE00
7FFE00
7FFE00
7FFE00
FFFE00
FFFC00
01FC00
01FC00
01FC00
03F800
03F800
03F800
03F800
03F000
07F000
07F000
07F000
07F000
07F000
07F000
07F8E0
07FFE0
07FFE0
03FFE0
03FFE0
01FFE0
001C00
ENDCHAR
STARTCHAR 006A
ENCODING 106
SWIDTH 486 0
DWIDTH 27 0
BBX 27 47 0 -9
BITMAP
00000780
00001FC0
00001FC0
00003FE0
00003FE0
00003FC0
00003FC0
00001F80
00000E00
00000000
00000000
00000000
007FFFC0
007FFFC0
00FFFFC0
00FFFF80
00FFFF80
00FFFF80
00003F80
00003F80
00007F00
00007F00
00007F00
00007F00
0000FE00
0000FE00
0000FE00
0000FE00
0001FC00
0001FC00
0001FC00
0001FC00
0001F800
0003F800
0003F800
0003F800
0003F000
0007F000
0007F000
000FF000
301FE000
7FFFE000
7FFFC000
FFFFC000
FFFF8000
FFFF0000
1FFC0000
ENDCHAR
STARTCHAR 006B
ENCODING 107
SWIDTH 486 0
DWIDTH 27 0
BBX 28 38 3 1
BITMAP
003F0000
007F0000
007E0000
00FE0000
00FE0000
00FE0000
00FC0000
01FC0000
01FC0000
01FC0000
01F80000
03F80000
03F80FF0
03F81FE0
03F83FC0
07F07F80
07F07F00
07F0FE00
07F3FC00
0FE7F800
0FEFF000
0FFFE000
0FFFC000
1FFF8000
1FFF8000
1FFF8000
1FDFC000
1F9FE000
3F8FE000
3F8FF000
3F87F000
3F07F800
7F03F800
7F03FC00
7F01FC00
7E01FC00
FE00FE00
FE00FE00
ENDCHAR
STARTCHAR 006C
ENCODING 108
SWIDTH 486 0
DWIDTH 27 0
BBX 17 39 8 -1
BITMAP
7FFE00
7FFE00
7FFE00
FFFE00
FFFC00
01FC00
01FC00
01FC00
01F800
03F800
03F800
03F800
03F000
07F000
07F000
07F000
07F000
0FE000
0FE000
0FE000
0FE000
1FC000
1FC000
1FC000
1FC000
3F8000
3F8000
3F8000
3F8000
3F8000
3F8000
3F8000
3FC780
3FFF80
3FFF80
1FFF80
1FFF80
0FFF00
00F000
ENDCHAR
STARTCHAR 006D
ENCODING 109
SWIDTH 486 0
DWIDTH 27 0
BBX 28 26 1 0
BITMAP
00FF8FC0
03FFFFE0
03FFFFF0
03FFFFF0
07FFFFF0
07E3E1F0
07C3E1F0
07C3E1F0
0FC7E3F0
0FC7E3F0
0F87C3E0
0F87C3E0
1F8FC7E0
1F8FC7E0
1F0F87E0
1F0F87C0
3F000FC0
3F000FC0
3F000FC0
3E000F80
7E000F80
7E001F80
7E001F80
7C001F00
7C001F00
FC003F00
ENDCHAR
STARTCHAR 006E
ENCODING 110
SWIDTH 486 0
DWIDTH 27 0
BBX 25 27 3 0
BITMAP
0007C000
01FFF800
07FFFE00
07FFFE00
07FFFF00
07FFFF00
0FF0FF80
0FE07F80
0FE07F80
0FE03F80
1FC03F00
1FC07F00
1FC07F00
1FC07F00
3F807F00
3F80FE00
3F80FE00
3F80FE00
7F00FE00
7F01FC00
7F01FC00
7F01FC00
7E01FC00
FE03F800
FE03F800
FE03F800
FC03F800
ENDCHAR
STARTCHAR 006F
ENCODING 111
SWIDTH 486 0
DWIDTH 27 0
BBX 24 28 4 -1
BITMAP
000F80
007FF0
01FFF8
03FFFC
07FFFE
0FFFFE
1FF1FF
3FC0FF
3F807F
7F007F
7F007F
7E007F
FE007F
FE007F
FE007F
FC007E
FC00FE
FE00FE
FE01FC
FE03FC
FE07F8
FF8FF8
FFFFF0
7FFFE0
7FFFC0
3FFF80
0FFE00
03E000
ENDCHAR
STARTCHAR 0070
ENCODING 112
SWIDTH 486 0
DWIDTH 27 0
BBX 28 36 0 -9
BITMAP
0001F800
003FFF00
00FFFF80
00FFFFC0
00FFFFE0
01FFFFE0
01FC0FF0
01FC07F0
01F807F0
03F807F0
03F807F0
03F807F0
03F007F0
07F007F0
07F007F0
07F00FE0
07F00FE0
0FE01FE0
0FE01FC0
0FE03FC0
0FE0FF80
1FC7FF80
1FFFFF00
1FFFFE00
1FFFFC00
3FFFF000
3FFFC000
3FB40000
3F800000
7F000000
7F000000
7F000000
7F000000
7E000000
FE000000
FE000000
ENDCHAR
STARTCHAR 0071
ENCODING 113
SWIDTH 486 0
DWIDTH 27 0
BBX 26 36 4 -9
BITMAP
0003C000
003FFF00
00FFFFC0
01FFFF80
07FFFF80
0FFFFF80
0FF83F80
1FE07F00
3FC07F00
3F807F00
7F007F00
7F007E00
7F00FE00
FE00FE00
FE00FE00
FE00FC00
FE01FC00
FE01FC00
FE01FC00
FE01F800
FF03F800
FF8FF800
7FFFF800
7FFFF800
3FFFF000
1FFFF000
0FFFF000
0107F000
000FE000
000FE000
000FE000
000FE000
001FC000
001FC000
001FC000
001FC000
ENDCHAR
STARTCHAR 0072
ENCODING 114
SWIDTH 486 0
DWIDTH 27 0
BBX 26 27 4 0
BITMAP
0001E000
007FFFC0
03FFFF80
07FFFF80
07FFFF00
07FFFF00
07FFFF00
0FF00000
0FE00000
0FE00000
0FE00000
0FC00000
1FC00000
1FC00000
1FC00000
1F800000
3F800000
3F800000
3F800000
3F000000
7F000000
7F000000
7F000000
7F000000
FE000000
FE000000
FE000000
ENDCHAR
STARTCHAR 0073
ENCODING 115
SWIDTH 486 0
DWIDTH 27 0
BBX 25 28 3 -1
BITMAP
0007F000
007FFF00
00FFFF80
01FFFF00
03FFFF00
07FFFE00
07F80E00
07F00000
07F00000
07F00000
07F80000
07FF0000
07FFC000
03FFF000
01FFF800
007FF800
000FFC00
0003FC00
0001FC00
0001FC00
3001FC00
3C07FC00
7FFFF800
7FFFF800
FFFFF000
FFFFE000
3FFF8000
01F80000
ENDCHAR
STARTCHAR 0074
ENCODING 116
SWIDTH 486 0
DWIDTH 27 0
BBX 23 35 6 -1
BITMAP
000200
00FE00
00FE00
00FE00
01FC00
01FC00
01FC00
01FC00
7FFFFE
7FFFFE
7FFFFE
7FFFFE
FFFFFC
FFFFFC
07F000
07F000
07E000
0FE000
0FE000
0FE000
0FE000
1FC000
1FC000
1FC000
1FC000
1FC000
3F8000
3FC000
1FF1E0
1FFFE0
1FFFE0
0FFFE0
0FFFE0
03FFC0
003C00
ENDCHAR
STARTCHAR 0075
ENCODING 117
SWIDTH 486 0
DWIDTH 27 0
BBX 25 27 4 -1
BITMAP
0FE03F80
0FE03F80
1FC03F80
1FC07F00
1FC07F00
1FC07F00
3F807F00
3F807E00
3F80FE00
3F80FE00
3F00FE00
7F00FC00
7F01FC00
7F01FC00
7E01FC00
FE01F800
FE03F800
FE03F800
FE03F800
FE07F800
FF9FF800
7FFFF800
7FFFF800
7FFFFC00
3FFDFC00
1FF8FC00
03800000
ENDCHAR
STARTCHAR 0076
ENCODING 118
SWIDTH 486 0
DWIDTH 27 0
BBX 25 26 6 0
BITMAP
FE007F80
FE007F00
FE007F00
FE00FE00
FE00FE00
FE01FC00
FE01FC00
FE03FC00
7E03F800
7E07F000
7F07F000
7F0FE000
7F0FE000
7F1FC000
7F1FC000
3F3F8000
3F3F8000
3F7F0000
3FFE0000
3FFE0000
3FFC0000
1FF80000
1FF80000
1FF00000
1FE00000
0FC00000
ENDCHAR
STARTCHAR 0077
ENCODING 119
SWIDTH 486 0
DWIDTH 27 0
BBX 28 26 4 0
BITMAP
3E0003F0
7E0003F0
7E0007E0
7E0007E0
7E0007E0
7E1F07C0
7C1F0FC0
7C3F0FC0
7C3F0F80
FC7F0F80
FC7F1F80
F8FF1F00
F8FF1F00
F9FF3F00
F9FF3E00
FBEF3E00
FBCF7C00
FFCFFC00
F78FFC00
FF87F800
FF07F800
FF07F000
FE07F000
FC07E000
FC07E000
F807C000
ENDCHAR
STARTCHAR 0078
ENCODING 120
SWIDTH 486 0
DWIDTH 27 0
BBX 29 26 1 0
BITMAP
07F803F8
03F807F0
03F80FF0
01FC0FE0
01FC1FC0
00FE3F80
00FE7F80
007F7F00
007FFE00
003FFC00
003FF800
001FF000
001FE000
001FF000
003FF000
007FF800
00FFF800
01FFFC00
03FDFC00
07F9FE00
0FF0FE00
0FE0FE00
1FC07F00
3F807F00
7F007F80
FF003F80
ENDCHAR
STARTCHAR 0079
ENCODING 121
SWIDTH 486 0
DWIDTH 27 0
BBX 32 35 -2 -9
BITMAP
00FE007F
00FE007F
00FE00FF
00FF00FE
007F00FE
007F01FC
007F01FC
007F01F8
007F03F8
007F03F8
007F07F0
007F07F0
003F0FE0
003F0FE0
003F9FC0
003F9FC0
003FBF80
003FBF80
001FFF00
001FFE00
001FFE00
001FFC00
001FF800
000FF800
000FF000
000FE000
001FE000
003FC000
007F8000
7FFF0000
7FFE0000
7FFC0000
FFF80000
FFE00000
FF800000
ENDCHAR
STARTCHAR 007A
ENCODING 122
SWIDTH 486 0
DWIDTH 27 0
BBX 26 26 3 0
BITMAP
03FFFFC0
03FFFFC0
03FFFFC0
07FFFFC0
07FFFF80
07FFFF80
0001FE00
0003FC00
0007F800
000FF000
001FE000
003FC000
007F8000
00FF0000
01FE0000
03FC0000
07F80000
0FF00000
1FE00000
1FC00000
3FFFFC00
7FFFFC00
7FFFF800
FFFFF800
FFFFF800
FFFFF800
ENDCHAR
STARTCHAR 007B
ENCODING 123
SWIDTH 486 0
DWIDTH 27 0
BBX 26 48 6 -9
BITMAP
00007FC0
0003FFC0
0007FFC0
000FFF80
000FFF80
001FFF80
001FC000
003F8000
003F0000
003F0000
003F0000
007F0000
007E0000
007E0000
007E0000
00FE0000
00FE0000
00FC0000
00FC0000
01FC0000
03F80000
7FF00000
7FE00000
FFC00000
FF000000
FFC00000
FFC00000
0FE00000
07E00000
07E00000
07E00000
07E00000
0FE00000
0FC00000
0FC00000
0FC00000
1FC00000
1FC00000
1F800000
1F800000
1F800000
1F800000
1FC00000
1FFF0000
1FFF0000
0FFF0000
0FFF0000
03FE0000
ENDCHAR
STARTCHAR 007C
ENCODING 124
SWIDTH 486 0
DWIDTH 27 0
BBX 18 48 7 -9
BITMAP
001FC0
001FC0
001FC0
001FC0
003F80
003F80
003F80
003F80
007F00
007F00
007F00
007F00
007E00
00FE00
00FE00
00FE00
00FC00
01FC00
01FC00
01FC00
01F800
03F800
03F800
03F800
03F800
07F000
07F000
07F000
07F000
0FE000
0FE000
0FE000
0FE000
1FC000
1FC000
1FC000
1FC000
3F8000
3F8000
3F8000
3F8000
3F0000
7F0000
7F0000
7F0000
7E0000
FE0000
FE0000
ENDCHAR
STARTCHAR 007D
ENCODING 125
SWIDTH 486 0
DWIDTH 27 0
BBX 27 48 0 -9
BITMAP
001FE000
001FFC00
001FFE00
003FFE00
003FFF00
003FFF00
00007F00
00007F00
00007F00
00007E00
00007E00
00007E00
0000FE00
0000FE00
0000FC00
0000FC00
0000FC00
0001FC00
0001FC00
0001FC00
0000FC00
0000FFE0
0000FFE0
00007FC0
00007FC0
0001FFC0
0003FFC0
0007F800
0007F000
000FE000
000FC000
000FC000
000FC000
001FC000
001F8000
001F8000
001F8000
003F8000
003F8000
003F0000
003F0000
007F0000
00FE0000
7FFE0000
7FFC0000
7FFC0000
7FF80000
FFE00000
ENDCHAR
STARTCHAR 007E
ENCODING 126
SWIDTH 486 0
DWIDTH 27 0
BBX 26 10 3 10
BITMAP
01E00000
07F807C0
0FFE07C0
1FFF0FC0
3FFFFF80
7FFFFF80
7FFFFF00
FC1FFE00
F80FFC00
3803F800
ENDCHAR
STARTCHAR 00A0
ENCODING 160
SWIDTH 486 0
DWIDTH 27 0
BBX 0 0 0 0
BITMAP
ENDCHAR
STARTCHAR 00A1
ENCODING 161
SWIDTH 486 0
DWIDTH 27 0
BBX 16 35 7 -9
BITMAP
007C
00FE
01FE
01FF
01FF
01FE
01FE
01FC
00F8
0000
0000
0000
0000
03F0
03F0
07F0
07F0
07F0
0FF0
0FE0
0FE0
1FE0
1FE0
1FE0
1FC0
3FC0
3FC0
3FC0
3F80
7F80
7F80
7F80
7F80
FF00
FF00
ENDCHAR
STARTCHAR 00A2
ENCODING 162
SWIDTH 486 0
DWIDTH 27 0
BBX 25 39 5 -5
BITMAP
0001FC00
0001F800
0003F800
0003F800
0003F800
0003F800
0007F000
003FFE00
00FFFF80
03FFFF00
07FFFF00
0FFFFE00
1FFFFE00
3FF00000
3FC00000
7F800000
7F000000
FF000000
FE000000
FE000000
FE000000
FE000000
FE000000
FE000000
FF000000
FF801000
7FFBF000
7FFFF000
3FFFF800
1FFFF800
0FFFF800
03FFE000
01FC0000
01FC0000
01FC0000
03F80000
03F80000
03F80000
03F80000
ENDCHAR
STARTCHAR 00A3
ENCODING 163
SWIDTH 486 0
DWIDTH 27 0
BBX 28 35 4 0
BITMAP
0000FFC0
0003FFF0
0007FFF0
001FFFE0
003FFFE0
003FFFC0
007F8040
007F0000
00FE0000
00FE0000
00FE0000
01FC0000
01FC0000
01FC0000
01FC0000
03F80000
3FFFFC00
3FFFFC00
7FFFF800
7FFFF800
7FFFF800
07F00000
07F00000
0FE00000
0FE00000
0FE00000
1FC00000
1FC00000
1FC00000
3FFFFE00
3FFFFE00
3FFFFC00
7FFFFC00
7FFFFC00
FFFFFC00
ENDCHAR
STARTCHAR 00A4
ENCODING 164
SWIDTH 486 0
DWIDTH 27 0
BBX 26 25 4 5
BITMAP
08000400
1C000E00
3E001F00
7F7FBF80
FFFFFFC0
7FFFFF80
3FFFFF00
1FFFFE00
0FF3FC00
1FC0FE00
1F807E00
1F807E00
1F807E00
1F807E00
1F807E00
1F80FE00
1FE1FE00
1FFFFE00
3FFFFF00
7FFFFF80
FFFFFFC0
7FFFFF80
3E083F00
1C000E00
08000400
ENDCHAR
STARTCHAR 00A5
ENCODING 165
SWIDTH 486 0
DWIDTH 27 0
BBX 30 34 4 0
BITMAP
1FC001FC
0FE003F8
0FE007F8
0FE007F0
0FE00FE0
07F00FE0
07F01FC0
07F03F80
03F07F00
03F87F00
03F8FE00
01F9FC00
01FFF800
01FFF800
00FFF000
00FFE000
3FFFFF00
3FFFFF00
3FFFFF00
3FFFFE00
007F0000
00FF0000
00FE0000
00FE0000
FFFFFC00
FFFFFC00
FFFFFC00
FFFFF800
01FC0000
03FC0000
03F80000
03F80000
03F80000
07F80000
ENDCHAR
STARTCHAR 00A6
ENCODING 166
SWIDTH 486 0
DWIDTH 27 0
BBX 19 48 7 -9
BITMAP
000FE0
001FC0
001FC0
001FC0
001FC0
003F80
003F80
003F80
003F80
003F00
007F00
007F00
007F00
007E00
00FE00
00FE00
00FE00
00FC00
01FC00
01FC00
000000
000000
000000
000000
000000
000000
000000
000000
07F000
07F000
0FE000
0FE000
0FE000
0FE000
1FC000
1FC000
1FC000
1FC000
1F8000
3F8000
3F8000
3F8000
3F0000
7F0000
7F0000
7F0000
7F0000
FE0000
ENDCHAR
STARTCHAR 00A7
ENCODING 167
SWIDTH 486 0
DWIDTH 27 0
BBX 27 40 2 -5
BITMAP
0001FF80
000FFFE0
001FFFE0
003FFFE0
007FFFC0
007F83C0
00FE0000
00FE0000
00FE0000
00FF0000
007F8000
007FE000
007FF800
00FFFE00
01FFFF00
03F1FF00
07E07F80
0FC03F80
0FC01F80
0FC01F80
0FC01F80
0FC01F80
0FE03F00
0FF87E00
07FEFE00
07FFFC00
01FFF000
00FFE000
003FF000
000FF000
0003F000
0003F000
0003F000
0007F000
380FF000
7FFFE000
7FFFE000
FFFFC000
FFFF0000
3FFC0000
ENDCHAR
STARTCHAR 00A8
ENCODING 168
SWIDTH 486 0
DWIDTH 27 0
BBX 18 7 12 30
BITMAP
7C0F80
FE1FC0
FE1FC0
FE1FC0
FE1FC0
FC1F80
780F00
ENDCHAR
STARTCHAR 00A9
ENCODING 169
SWIDTH 486 0
DWIDTH 27 0
BBX 26 27 3 -1
BITMAP
00FFC000
03FFF000
07FFF800
0FC1FC00
1F003E00
3E001F00
3C1F0F00
7C7F8F80
78FF8780
78FB0780
71E00380
71E00380
F1C003C0
F1C003C0
71E003C0
71E00380
78F00780
78FF8780
787F8780
3C3F8F00
3E001F00
1F003E00
0FC0FC00
07FFFC00
03FFF000
01FFE000
003F0000
ENDCHAR
STARTCHAR 00AA
ENCODING 170
SWIDTH 486 0
DWIDTH 27 0
BBX 19 20 9 15
BITMAP
007FC0
03FFE0
07FFE0
1FFFE0
1FFFE0
3F87C0
7E07C0
7C0FC0
FC0FC0
F80F80
F80F80
F81F80
F81F80
FC1F80
FE3F80
7FFF80
7FFF80
3FFF80
1FFF80
078400
ENDCHAR
STARTCHAR 00AB
ENCODING 171
SWIDTH 486 0
DWIDTH 27 0
BBX 24 23 5 3
BITMAP
004000
00600C
00F81F
01F83F
03F07E
07E0FC
0FC1F8
1F81F8
1F83F0
3F07E0
7E0FC0
FC1FC0
FC1F80
7E0FC0
7E0FC0
3E07C0
3F07E0
1F03E0
1F03E0
0F81F0
0F81F0
0F80F0
0600C0
ENDCHAR
STARTCHAR 00AC
ENCODING 172
SWIDTH 486 0
DWIDTH 27 0
BBX 24 18 5 2
BITMAP
7FFFFF
7FFFFE
7FFFFE
FFFFFE
FFFFFE
FFFFFC
0000FC
0000FC
0000FC
0000F8
0001F8
0001F8
0001F8
0001F0
0003F0
0003F0
0003F0
0003E0
ENDCHAR
STARTCHAR 00AD
ENCODING 173
SWIDTH 486 0
DWIDTH 27 0
BBX 17 7 8 11
BITMAP
7FFF80
7FFF00
7FFF00
7FFF00
FFFF00
FFFE00
FFFE00
ENDCHAR
STARTCHAR 00AE
ENCODING 174
SWIDTH 486 0
DWIDTH 27 0
BBX 26 27 3 -1
BITMAP
00FFC000
03FFF000
07FFF800
0FC1FC00
1F003E00
3E001F00
3C7E0F00
7CFF8F80
78FFC780
78E1C780
70E1C380
70E1C380
F0E3C3C0
F0FFC3C0
70FF83C0
70FF0380
78E38780
78E3C780
78E1C780
3CE1EF00
3E001F00
1F003E00
0FC0FC00
07FFFC00
03FFF000
01FFE000
003F0000
ENDCHAR
STARTCHAR 00AF
ENCODING 175
SWIDTH 486 0
DWIDTH 27 0
BBX 17 5 12 31
BITMAP
7FFF80
7FFF80
FFFF00
FFFF00
FFFF00
ENDCHAR
STARTCHAR 00B0
ENCODING 176
SWIDTH 486 0
DWIDTH 27 0
BBX 16 16 11 23
BITMAP
03E0
0FF8
3FFC
7FFE
7FFF
7C3F
FC1F
F81F
F81F
FC1F
7E3F
7FFF
3FFE
3FFC
0FF8
01C0
ENDCHAR
STARTCHAR 00B1
ENCODING 177
SWIDTH 486 0
DWIDTH 27 0
BBX 29 31 1 0
BITMAP
0000FC00
0000FC00
0000FC00
0001F800
0001F800
0001F800
0001F800
0001F000
0003F000
07FFFFF8
07FFFFF0
07FFFFF0
07FFFFF0
0FFFFFF0
0007E000
0007E000
000FC000
000FC000
000FC000
000FC000
001F8000
001F8000
001F8000
00000000
00000000
3FFFFF80
7FFFFF80
7FFFFF00
7FFFFF00
7FFFFF00
FFFFFF00
ENDCHAR
STARTCHAR 00B2
ENCODING 178
SWIDTH 486 0
DWIDTH 27 0
BBX 16 20 10 15
BITMAP
03F8
0FFE
1FFF
3FFF
1FFF
1C1F
081F
003F
007E
00FE
03FC
0FF0
1FE0
3F80
7F00
7FFE
FFFE
FFFE
FFFC
FFFC
ENDCHAR
STARTCHAR 00B3
ENCODING 179
SWIDTH 486 0
DWIDTH 27 0
BBX 17 20 9 15
BITMAP
01FE00
0FFF00
07FF80
07FF80
071F80
000F80
000F80
001F00
01FF00
03FC00
03FE00
03FF00
001F00
000F00
001F00
303F00
7FFF00
7FFE00
FFFC00
3FF000
ENDCHAR
STARTCHAR 00B4
ENCODING 180
SWIDTH 486 0
DWIDTH 27 0
BBX 11 10 16 28
BITMAP
0180
0380
0FC0
1FE0
3FE0
FFC0
FF00
FC00
7800
2000
ENDCHAR
STARTCHAR 00B5
ENCODING 181
SWIDTH 486 0
DWIDTH 27 0
BBX 29 35 0 -9
BITMAP
00FE03F8
00FE03F8
00FE03F8
00FC03F0
01FC07F0
01FC07F0
01FC07F0
01F807E0
03F80FE0
03F80FE0
03F80FE0
03F80FE0
07F01FC0
07F01FC0
07F01FC0
07F01FC0
07E01F80
0FE03F80
0FE03F80
0FF03F80
0FF8FFC0
1FFFFFE0
1FFFFFE0
1FFFFFC0
1FFFEFC0
3FFF87C0
3F8E0000
3F000000
3F000000
7F000000
7F000000
7F000000
7E000000
FE000000
FE000000
ENDCHAR
STARTCHAR 00B6
ENCODING 182
SWIDTH 486 0
DWIDTH 27 0
BBX 27 44 5 -9
BITMAP
0003FE00
003FFFE0
00FFFFE0
03FFFFE0
07FFFFE0
0FFFFFC0
1FFF0FC0
3FFF0FC0
7FFF0FC0
7FFE0F80
7FFE0F80
FFFE1F80
FFFE1F80
FFFC1F00
FFFC1F00
FFFC3F00
FFFC3F00
7FF83E00
7FF83E00
3FF87E00
1FF87E00
07F07E00
01F07C00
03F0FC00
03F0FC00
03E0FC00
03E0F800
07E1F800
07E1F800
07E1F800
07C1F000
0FC3F000
0FC3F000
0FC3F000
0F83E000
1F83E000
1F87E000
1F87E000
1F07C000
3F07C000
3F0FC000
3F0FC000
3E0F8000
7E0F8000
ENDCHAR
STARTCHAR 00B7
ENCODING 183
SWIDTH 486 0
DWIDTH 27 0
BBX 10 10 11 10
BITMAP
0600
3F80
7F80
7FC0
FFC0
FFC0
FFC0
FF80
7F80
3E00
ENDCHAR
STARTCHAR 00B8
ENCODING 184
SWIDTH 486 0
DWIDTH 27 0
BBX 12 10 7 -9
BITMAP
03E0
07C0
07C0
0FE0
03E0
01F0
43F0
7FE0
FFE0
FF80
ENDCHAR
STARTCHAR 00B9
ENCODING 185
SWIDTH 486 0
DWIDTH 27 0
BBX 16 20 9 15
BITMAP
001E
007E
01FE
07FE
1FFC
1FFC
1FFC
1CFC
10F8
01F8
01F8
01F8
01F0
01F0
03F0
7FFF
7FFF
FFFF
FFFE
FFFE
ENDCHAR
STARTCHAR 00BA
ENCODING 186
SWIDTH 486 0
DWIDTH 27 0
BBX 18 20 10 15
BITMAP
01FE00
07FF00
0FFF80
1FFFC0
3F8FC0
7F07C0
7E07C0
FC07C0
FC07C0
F807C0
F807C0
F80FC0
F80F80
F81F80
F83F00
FFFF00
FFFE00
7FFC00
3FF000
07C000
ENDCHAR
STARTCHAR 00BB
ENCODING 187
SWIDTH 486 0
DWIDTH 27 0
BBX 23 22 4 4
BITMAP
0700E0
1F01E0
0F81F0
0F81F0
0FC0F8
07C0F8
07E0FC
03E07C
03E07E
03F07E
01F03E
03F07E
07F0FE
0FE0FC
0FC1F8
1F83F0
3F07E0
7E07C0
7C0FC0
FC1F80
F81F00
300600
ENDCHAR
STARTCHAR 00BC
ENCODING 188
SWIDTH 486 0
DWIDTH 27 0
BBX 30 35 1 0
BITMAP
000F0000
003E007C
007E00F8
01FE01F8
07FE01F0
07FC03E0
077C07C0
007C0FC0
007C0F80
00781F00
00F83E00
00F87E00
00F87C00
00F0F800
0001F000
0003F000
0003E000
0007C000
000F8000
001F8000
001F0000
003E07E0
007C0FC0
00FC1FC0
00F83FC0
01F07BC0
03E0F780
07E0E780
07C1E780
0F83FFE0
1F07FFE0
3F07FFC0
3E07FFC0
7C000F00
F8000F00
ENDCHAR
STARTCHAR 00BD
ENCODING 189
SWIDTH 486 0
DWIDTH 27 0
BBX 30 35 1 0
BITMAP
000F0000
003E007C
007E00F8
01FE01F8
07FE01F0
07FC03E0
077C07C0
007C0FC0
007C0F80
00781F00
00F83E00
00F87E00
00F87C00
00F0F800
0001F000
0003F000
0003E000
0007C000
000F8000
001F8000
001F0000
003E3F80
007C7FC0
00FCFFE0
00F87FE0
01F043E0
03E003E0
07E007C0
07C01F80
0F807F00
1F00FC00
3F01F000
3E03FFC0
7C03FF80
F803FF80
ENDCHAR
STARTCHAR 00BE
ENCODING 190
SWIDTH 486 0
DWIDTH 27 0
BBX 30 35 2 0
BITMAP
01FE0000
03FF007C
03FF00FC
031F01F8
000F01F0
003E03E0
01FC07E0
01FE0FC0
00FE0F80
001F1F00
083E3F00
0FFE7E00
1FFC7C00
1FF8F800
0181F800
0003F000
0003E000
0007C000
000FC000
001F8000
001F0000
003E0FC0
007E1F80
00FC3F80
00F87F80
01F0F780
03F1EF00
07E1CF00
07C3CF00
0F87FFC0
1F8FFFC0
3F0FFF80
3E0FFF80
7C001E00
F8001E00
ENDCHAR
STARTCHAR 00BF
ENCODING 191
SWIDTH 486 0
DWIDTH 27 0
BBX 21 35 3 -9
BITMAP
0003E0
0007F0
000FF8
000FF8
000FF8
000FF8
000FF0
000FF0
0007C0
000000
000000
000000
000000
000FC0
001FC0
003F80
007F80
00FF00
01FE00
07FC00
0FF800
1FF000
3FE000
7F8000
7F0000
FF0000
FE0000
FE0000
FF00C0
FF87C0
FFFFC0
FFFFC0
7FFFE0
3FFF80
0FFE00
ENDCHAR
STARTCHAR 00C0
ENCODING 192
SWIDTH 486 0
DWIDTH 27 0
BBX 27 46 0 0
BITMAP
00002000
00007800
00007C00
0000FE00
0001FF80
0000FFC0
00003FE0
00000FE0
000003C0
00000180
00000000
00000000
00007F80
0000FF80
0000FF80
0001FF80
0003FF80
0003FF80
0007EF80
0007EF80
000FCF80
000FCFC0
001F8FC0
001F8FC0
003F0FC0
003F0FC0
007E0FC0
007E0FC0
00FC0FC0
00FC0FC0
01F80FC0
01F80FC0
03FFFFC0
03FFFFC0
07FFFFC0
07FFFFC0
0FFFFFC0
0FFFFFC0
1FC00FC0
1F800FC0
3F800FC0
3F000FC0
7F000FC0
7F000FC0
FE000FC0
FE000FC0
ENDCHAR
STARTCHAR 00C1
ENCODING 193
SWIDTH 486 0
DWIDTH 27 0
BBX 29 46 0 0
BITMAP
00000040
000000E0
000003F0
000007F0
00000FF8
00003FF8
00007FE0
00003F80
00001E00
00001800
00000000
00000000
00007F80
0000FF80
0000FF80
0001FF80
0003FF80
0003FF80
0007EF80
0007EF80
000FCF80
000FCFC0
001F8FC0
001F8FC0
003F0FC0
003F0FC0
007E0FC0
007E0FC0
00FC0FC0
00FC0FC0
01F80FC0
01F80FC0
03FFFFC0
03FFFFC0
07FFFFC0
07FFFFC0
0FFFFFC0
0FFFFFC0
1FC00FC0
1F800FC0
3F800FC0
3F000FC0
7F000FC0
7F000FC0
FE000FC0
FE000FC0
ENDCHAR
STARTCHAR 00C2
ENCODING 194
SWIDTH 486 0
DWIDTH 27 0
BBX 30 46 0 0
BITMAP
00000100
00000380
00000FC0
00001FE0
00003FE0
0000FFF0
0001FDF8
0001F8FC
0000E070
00004020
00000000
00000000
00007F80
0000FF80
0000FF80
0001FF80
0003FF80
0003FF80
0007EF80
0007EF80
000FCF80
000FCFC0
001F8FC0
001F8FC0
003F0FC0
003F0FC0
007E0FC0
007E0FC0
00FC0FC0
00FC0FC0
01F80FC0
01F80FC0
03FFFFC0
03FFFFC0
07FFFFC0
07FFFFC0
0FFFFFC0
0FFFFFC0
1FC00FC0
1F800FC0
3F800FC0
3F000FC0
7F000FC0
7F000FC0
FE000FC0
FE000FC0
ENDCHAR
STARTCHAR 00C3
ENCODING 195
SWIDTH 486 0
DWIDTH 27 0
BBX 31 45 0 0
BITMAP
00007C18
0000FF3E
0001FFFE
0003FFFC
0007FFFC
0007FFF8
000183E0
00000000
00000000
00000000
00000000
00007F80
0000FF80
0000FF80
0001FF80
0003FF80
0003FF80
0007EF80
0007EF80
000FCF80
000FCFC0
001F8FC0
001F8FC0
003F0FC0
003F0FC0
007E0FC0
007E0FC0
00FC0FC0
00FC0FC0
01F80FC0
01F80FC0
03FFFFC0
03FFFFC0
07FFFFC0
07FFFFC0
0FFFFFC0
0FFFFFC0
1FC00FC0
1F800FC0
3F800FC0
3F000FC0
7F000FC0
7F000FC0
FE000FC0
FE000FC0
ENDCHAR
STARTCHAR 00C4
ENCODING 196
SWIDTH 486 0
DWIDTH 27 0
BBX 32 45 0 0
BITMAP
0001E03C
0003F07E
0003F87F
0007F8FF
0007F8FF
0003F07E
0003E07C
00000000
00000000
00000000
00000000
00007F80
0000FF80
0000FF80
0001FF80
0003FF80
0003FF80
0007EF80
0007EF80
000FCF80
000FCFC0
001F8FC0
001F8FC0
003F0FC0
003F0FC0
007E0FC0
007E0FC0
00FC0FC0
00FC0FC0
01F80FC0
01F80FC0
03FFFFC0
03FFFFC0
07FFFFC0
07FFFFC0
0FFFFFC0
0FFFFFC0
1FC00FC0
1F800FC0
3F800FC0
3F000FC0
7F000FC0
7F000FC0
FE000FC0
FE000FC0
ENDCHAR
STARTCHAR 00C5
ENCODING 197
SWIDTH 486 0
DWIDTH 27 0
BBX 27 44 0 0
BITMAP
00001E00
00007F80
00007FC0
0000FFE0
0000E1E0
0000E0E0
0000E0E0
0000F1E0
0000FFE0
00007FC0
00007F80
0000FF80
0000FF80
0001FF80
0003FF80
0003FF80
0007EF80
0007EF80
000FCF80
000FCFC0
001F8FC0
001F8FC0
003F0FC0
003F0FC0
007E0FC0
007E0FC0
00FC0FC0
00FC0FC0
01F80FC0
01F80FC0
03FFFFC0
03FFFFC0
07FFFFC0
07FFFFC0
0FFFFFC0
0FFFFFC0
1FC00FC0
1F800FC0
3F800FC0
3F000FC0
7F000FC0
7F000FC0
FE000FC0
FE000FC0
ENDCHAR
STARTCHAR 00C6
ENCODING 198
SWIDTH 486 0
DWIDTH 27 0
BBX 33 34 0 0
BITMAP
00007FFF80
00007FFF80
0000FFFF80
0001FFFF80
0001FFFF00
0003FFC000
0007EFC000
0007DFC000
000FDF8000
000F9F8000
001F9F8000
001F1F8000
003F3F0000
003E3FF800
007E3FF800
00FC3FF800
00FC7FF000
01F87FF000
01F87FF000
03F87E0000
03FFFC0000
07FFFC0000
07FFFC0000
0FFFFC0000
0FFFF80000
1FFFF80000
1F81F80000
3F81F80000
3F03FFE000
7F03FFE000
7F03FFE000
FE03FFE000
FE03FFE000
FC07FFC000
ENDCHAR
STARTCHAR 00C7
ENCODING 199
SWIDTH 486 0
DWIDTH 27 0
BBX 27 44 5 -9
BITMAP
0003FE00
001FFF80
007FFFE0
00FFFFC0
01FFFFC0
03FFFF80
07FC0380
0FF80000
0FF00000
1FE00000
1FC00000
3F800000
3F800000
3F800000
7F000000
7F000000
7F000000
FE000000
FE000000
FE000000
FE000000
FE000000
FE000000
FE000000
FE000000
FE000000
FE000000
FF000000
7F801000
7FE1F000
7FFFF000
3FFFF000
1FFFF000
0FFFF000
07FFC000
00FC0000
01F00000
01F80000
007C0000
007C0000
08FC0000
1FFC0000
1FF80000
1FE00000
ENDCHAR
STARTCHAR 00C8
ENCODING 200
SWIDTH 486 0
DWIDTH 27 0
BBX 28 46 3 0
BITMAP
00008000
0001C000
0001F000
0003F800
0007FC00
0003FF00
0001FF80
00007F00
00001F00
00000600
00000000
00000000
00FFFFF0
00FFFFF0
01FFFFF0
01FFFFF0
01FFFFE0
01FC0000
01F80000
03F80000
03F80000
03F80000
03F00000
07F00000
07F00000
07FFFE00
07FFFE00
0FFFFE00
0FFFFE00
0FFFFE00
0FFFFC00
1FC00000
1FC00000
1FC00000
1FC00000
3F800000
3F800000
3F800000
3F800000
7F000000
7FFFFE00
7FFFFE00
7FFFFC00
7FFFFC00
FFFFFC00
FFFFFC00
ENDCHAR
STARTCHAR 00C9
ENCODING 201
SWIDTH 486 0
DWIDTH 27 0
BBX 28 46 3 0
BITMAP
00000200
00000700
00000F80
00003F80
00007FC0
0000FFC0
0003FF00
0001FC00
0000F000
0000C000
00000000
00000000
00FFFFF0
00FFFFF0
01FFFFF0
01FFFFF0
01FFFFE0
01FC0000
01F80000
03F80000
03F80000
03F80000
03F00000
07F00000
07F00000
07FFFE00
07FFFE00
0FFFFE00
0FFFFE00
0FFFFE00
0FFFFC00
1FC00000
1FC00000
1FC00000
1FC00000
3F800000
3F800000
3F800000
3F800000
7F000000
7FFFFE00
7FFFFE00
7FFFFC00
7FFFFC00
FFFFFC00
FFFFFC00
ENDCHAR
STARTCHAR 00CA
ENCODING 202
SWIDTH 486 0
DWIDTH 27 0
BBX 28 46 3 0
BITMAP
00000800
00001C00
00003E00
0000FF00
0001FF80
0003FFC0
0007EFC0
000FC7E0
000703C0
00020080
00000000
00000000
00FFFFF0
00FFFFF0
01FFFFF0
01FFFFF0
01FFFFE0
01FC0000
01F80000
03F80000
03F80000
03F80000
03F00000
07F00000
07F00000
07FFFE00
07FFFE00
0FFFFE00
0FFFFE00
0FFFFE00
0FFFFC00
1FC00000
1FC00000
1FC00000
1FC00000
3F800000
3F800000
3F800000
3F800000
7F000000
7FFFFE00
7FFFFE00
7FFFFC00
7FFFFC00
FFFFFC00
FFFFFC00
ENDCHAR
STARTCHAR 00CB
ENCODING 203
SWIDTH 486 0
DWIDTH 27 0
BBX 29 45 3 0
BITMAP
000F00F0
001F83F0
001FC3F8
001FC3F8
001FC3F8
001F83F0
001F03E0
00000000
00000000
00000000
00000000
00FFFFF0
00FFFFF0
01FFFFF0
01FFFFF0
01FFFFE0
01FC0000
01F80000
03F80000
03F80000
03F80000
03F00000
07F00000
07F00000
07FFFE00
07FFFE00
0FFFFE00
0FFFFE00
0FFFFE00
0FFFFC00
1FC00000
1FC00000
1FC00000
1FC00000
3F800000
3F800000
3F800000
3F800000
7F000000
7FFFFE00
7FFFFE00
7FFFFC00
7FFFFC00
FFFFFC00
FFFFFC00
ENDCHAR
STARTCHAR 00CC
ENCODING 204
SWIDTH 486 0
DWIDTH 27 0
BBX 30 46 2 0
BITMAP
00008000
0000E000
0001F000
0003F800
0003FE00
0003FF00
0000FF80
00003F80
00000F00
00000200
00000000
00000000
00FFFFFC
00FFFFFC
01FFFFF8
01FFFFF8
01FFFFF8
0003F800
0003F800
0003F800
0003F000
0007F000
0007F000
0007F000
0007F000
000FE000
000FE000
000FE000
000FE000
001FC000
001FC000
001FC000
001FC000
003F8000
003F8000
003F8000
003F8000
007F0000
007F0000
007F0000
7FFFFE00
7FFFFE00
7FFFFE00
7FFFFC00
FFFFFC00
FFFFFC00
ENDCHAR
STARTCHAR 00CD
ENCODING 205
SWIDTH 486 0
DWIDTH 27 0
BBX 30 46 2 0
BITMAP
00000180
00000380
000007C0
00001FC0
00003FE0
00007FE0
0001FF80
0000FE00
00007800
00006000
00000000
00000000
00FFFFFC
00FFFFFC
01FFFFF8
01FFFFF8
01FFFFF8
0003F800
0003F800
0003F800
0003F000
0007F000
0007F000
0007F000
0007F000
000FE000
000FE000
000FE000
000FE000
001FC000
001FC000
001FC000
001FC000
003F8000
003F8000
003F8000
003F8000
007F0000
007F0000
007F0000
7FFFFE00
7FFFFE00
7FFFFE00
7FFFFC00
FFFFFC00
FFFFFC00
ENDCHAR
STARTCHAR 00CE
ENCODING 206
SWIDTH 486 0
DWIDTH 27 0
BBX 30 46 2 0
BITMAP
00000400
00000E00
00003F00
00007F80
0000FF80
0001FFC0
0007F7E0
0007E3F0
000381E0
00010080
00000000
00000000
00FFFFFC
00FFFFFC
01FFFFF8
01FFFFF8
01FFFFF8
0003F800
0003F800
0003F800
0003F000
0007F000
0007F000
0007F000
0007F000
000FE000
000FE000
000FE000
000FE000
001FC000
001FC000
001FC000
001FC000
003F8000
003F8000
003F8000
003F8000
007F0000
007F0000
007F0000
7FFFFE00
7FFFFE00
7FFFFE00
7FFFFC00
FFFFFC00
FFFFFC00
ENDCHAR
STARTCHAR 00CF
ENCODING 207
SWIDTH 486 0
DWIDTH 27 0
BBX 30 45 2 0
BITMAP
0003C078
000FE1FC
000FE1FC
000FE1FC
000FE1FC
000FC1F8
000F81F0
00000000
00000000
00000000
00000000
00FFFFFC
00FFFFFC
01FFFFF8
01FFFFF8
01FFFFF8
0003F800
0003F800
0003F800
0003F000
0007F000
0007F000
0007F000
0007F000
000FE000
000FE000
000FE000
000FE000
001FC000
001FC000
001FC000
001FC000
003F8000
003F8000
003F8000
003F8000
007F0000
007F0000
007F0000
7FFFFE00
7FFFFE00
7FFFFE00
7FFFFC00
FFFFFC00
FFFFFC00
ENDCHAR
STARTCHAR 00D0
ENCODING 208
SWIDTH 486 0
DWIDTH 27 0
BBX 26 35 3 0
BITMAP
001FC000
00FFF800
01FFFC00
01FFFE00
01FFFF00
01FFFF80
03F87F80
03F83FC0
03F81FC0
03F81FC0
03F01FC0
07F00FC0
07F00FC0
07F00FC0
7FFE1FC0
7FFE1FC0
7FFC1FC0
7FFC1FC0
FFFC1FC0
FFFC1FC0
1FC03F80
1FC03F80
1F803F80
3F807F80
3F807F00
3F80FF00
3F01FE00
7F03FE00
7F07FC00
7FFFF800
7FFFF000
7FFFE000
FFFFC000
FFFF0000
FFFC0000
ENDCHAR
STARTCHAR 00D1
ENCODING 209
SWIDTH 486 0
DWIDTH 27 0
BBX 30 45 2 0
BITMAP
0000F020
0003FCF8
0007FFF8
000FFFF8
000FFFF0
001FBFE0
00060FC0
00000000
00000000
00000000
00000000
01FC00FC
01FC00FC
01FC00FC
01FE00FC
03FE01F8
03FE01F8
03FF01F8
03FF01F8
03FF03F0
07FF03F0
07EF83F0
07EF83F0
07EF87E0
0FCF87E0
0FC7C7E0
0FC7C7E0
0FC7CFC0
1F87CFC0
1F83EFC0
1F83EFC0
1F83FFC0
3F03FF80
3F01FF80
3F01FF80
3F01FF80
7F01FF00
7E01FF00
7E00FF00
7E00FF00
7E00FE00
FC00FE00
FC00FE00
FC00FE00
FC007C00
ENDCHAR
STARTCHAR 00D2
ENCODING 210
SWIDTH 486 0
DWIDTH 27 0
BBX 26 47 4 -1
BITMAP
00010000
0003C000
0003E000
0007F000
000FFC00
0007FE00
0001FF00
00007F00
00003E00
00000C00
00000000
000FF000
003FFC00
00FFFE00
01FFFF00
03FFFF80
07FFFF80
07F83F80
0FF01FC0
0FE01FC0
1FC01FC0
1FC01FC0
3F801FC0
3F801FC0
3F001FC0
7F001FC0
7F001FC0
7F001FC0
FE003F80
FE003F80
FE003F80
FE003F80
FE007F00
FE007F00
FE007F00
FE00FE00
FE00FE00
FE01FC00
FE03FC00
FE07F800
FF9FF800
7FFFF000
7FFFE000
3FFFC000
1FFF8000
0FFE0000
01F00000
ENDCHAR
STARTCHAR 00D3
ENCODING 211
SWIDTH 486 0
DWIDTH 27 0
BBX 26 47 4 -1
BITMAP
00000800
00001C00
00007C00
0000FE00
0001FF00
0007FE00
000FF800
0007F000
0007C000
00030000
00000000
000FF000
003FFC00
00FFFE00
01FFFF00
03FFFF80
07FFFF80
07F83F80
0FF01FC0
0FE01FC0
1FC01FC0
1FC01FC0
3F801FC0
3F801FC0
3F001FC0
7F001FC0
7F001FC0
7F001FC0
FE003F80
FE003F80
FE003F80
FE003F80
FE007F00
FE007F00
FE007F00
FE00FE00
FE00FE00
FE01FC00
FE03FC00
FE07F800
FF9FF800
7FFFF000
7FFFE000
3FFFC000
1FFF8000
0FFE0000
01F00000
ENDCHAR
STARTCHAR 00D4
ENCODING 212
SWIDTH 486 0
DWIDTH 27 0
BBX 26 47 4 -1
BITMAP
00002000
00007000
0000F800
0003FC00
0007FE00
000FFE00
003FBF00
003F1F80
001C0F00
00080200
00000000
000FF000
003FFC00
00FFFE00
01FFFF00
03FFFF80
07FFFF80
07F83F80
0FF01FC0
0FE01FC0
1FC01FC0
1FC01FC0
3F801FC0
3F801FC0
3F001FC0
7F001FC0
7F001FC0
7F001FC0
FE003F80
FE003F80
FE003F80
FE003F80
FE007F00
FE007F00
FE007F00
FE00FE00
FE00FE00
FE01FC00
FE03FC00
FE07F800
FF9FF800
7FFFF000
7FFFE000
3FFFC000
1FFF8000
0FFE0000
01F00000
ENDCHAR
STARTCHAR 00D5
ENCODING 213
SWIDTH 486 0
DWIDTH 27 0
BBX 27 46 4 -1
BITMAP
0003C080
000FF1E0
001FFFE0
003FFFE0
003FFFC0
003EFF80
00183F00
00000000
00000000
00000000
000FF000
003FFC00
00FFFE00
01FFFF00
03FFFF80
07FFFF80
07F83F80
0FF01FC0
0FE01FC0
1FC01FC0
1FC01FC0
3F801FC0
3F801FC0
3F001FC0
7F001FC0
7F001FC0
7F001FC0
FE003F80
FE003F80
FE003F80
FE003F80
FE007F00
FE007F00
FE007F00
FE00FE00
FE00FE00
FE01FC00
FE03FC00
FE07F800
FF9FF800
7FFFF000
7FFFE000
3FFFC000
1FFF8000
0FFE0000
01F00000
ENDCHAR
STARTCHAR 00D6
ENCODING 214
SWIDTH 486 0
DWIDTH 27 0
BBX 28 46 4 -1
BITMAP
001E03C0
003F07E0
007F8FF0
007F8FF0
007F0FE0
007F0FE0
003E07C0
00000000
00000000
00000000
000FF000
003FFC00
00FFFE00
01FFFF00
03FFFF80
07FFFF80
07F83F80
0FF01FC0
0FE01FC0
1FC01FC0
1FC01FC0
3F801FC0
3F801FC0
3F001FC0
7F001FC0
7F001FC0
7F001FC0
FE003F80
FE003F80
FE003F80
FE003F80
FE007F00
FE007F00
FE007F00
FE00FE00
FE00FE00
FE01FC00
FE03FC00
FE07F800
FF9FF800
7FFFF000
7FFFE000
3FFFC000
1FFF8000
0FFE0000
01F00000
ENDCHAR
STARTCHAR 00D7
ENCODING 215
SWIDTH 486 0
DWIDTH 27 0
BBX 25 21 5 5
BITMAP
07000C00
0F803E00
1FC07F00
1FC0FF80
1FE1FE00
0FF7FC00
07FFF800
03FFF000
03FFC000
01FF8000
01FF0000
03FF0000
07FF8000
0FFFC000
3FFFE000
7FCFF000
FF07F000
FE07F800
FC03F000
7801E000
30008000
ENDCHAR
STARTCHAR 00D8
ENCODING 216
SWIDTH 486 0
DWIDTH 27 0
BBX 28 38 3 -1
BITMAP
000001C0
0007FBF0
001FFFE0
007FFFE0
00FFFFC0
01FFFFC0
03FFFFC0
03FC3FC0
07F83FE0
07F07FE0
0FE0FFE0
0FC0FFE0
1FC1FFE0
1F81FFE0
1F83EFE0
3F87EFE0
3F07CFE0
3F0F8FE0
7F1F8FC0
7F1F0FC0
7F3E1FC0
7E7E1FC0
7E7C1F80
7EF83F80
7FF83F80
7FF03F00
7FE07F00
7FE0FE00
7FC0FE00
7F81FC00
7F83FC00
3FFFF800
3FFFF000
7FFFE000
7FFFC000
FFFF0000
78F80000
30000000
ENDCHAR
STARTCHAR 00D9
ENCODING 217
SWIDTH 486 0
DWIDTH 27 0
BBX 28 47 4 -1
BITMAP
00040000
000E0000
001F8000
001FC000
003FE000
003FF800
000FFC00
0003F800
0000F800
00003000
00000000
00000000
07F007F0
07F007F0
07F007E0
07E00FE0
0FE00FE0
0FE00FE0
0FE00FC0
0FC01FC0
1FC01FC0
1FC01FC0
1FC01FC0
1F803F80
3F803F80
3F803F80
3F803F80
3F807F00
7F007F00
7F007F00
7F007F00
7F00FE00
FE00FE00
FE00FE00
FE00FE00
FE01FC00
FE01FC00
FE01FC00
FE03F800
FE03F800
FF0FF800
FFFFF000
7FFFE000
7FFFE000
3FFF8000
1FFF0000
01F00000
ENDCHAR
STARTCHAR 00DA
ENCODING 218
SWIDTH 486 0
DWIDTH 27 0
BBX 28 47 4 -1
BITMAP
00000C00
00001C00
00003E00
0000FF00
0001FF00
0003FF00
000FFC00
0007F000
0003C000
00030000
00000000
00000000
07F007F0
07F007F0
07F007E0
07E00FE0
0FE00FE0
0FE00FE0
0FE00FC0
0FC01FC0
1FC01FC0
1FC01FC0
1FC01FC0
1F803F80
3F803F80
3F803F80
3F803F80
3F807F00
7F007F00
7F007F00
7F007F00
7F00FE00
FE00FE00
FE00FE00
FE00FE00
FE01FC00
FE01FC00
FE01FC00
FE03F800
FE03F800
FF0FF800
FFFFF000
7FFFE000
7FFFE000
3FFF8000
1FFF0000
01F00000
ENDCHAR
STARTCHAR 00DB
ENCODING 219
SWIDTH 486 0
DWIDTH 27 0
BBX 28 47 4 -1
BITMAP
00001000
00003800
0000FC00
0001FE00
0003FE00
0007FF00
001FDF80
001F8FC0
000E0780
00040200
00000000
00000000
07F007F0
07F007F0
07F007E0
07E00FE0
0FE00FE0
0FE00FE0
0FE00FC0
0FC01FC0
1FC01FC0
1FC01FC0
1FC01FC0
1F803F80
3F803F80
3F803F80
3F803F80
3F807F00
7F007F00
7F007F00
7F007F00
7F00FE00
FE00FE00
FE00FE00
FE00FE00
FE01FC00
FE01FC00
FE01FC00
FE03F800
FE03F800
FF0FF800
FFFFF000
7FFFE000
7FFFE000
3FFF8000
1FFF0000
01F00000
ENDCHAR
STARTCHAR 00DC
ENCODING 220
SWIDTH 486 0
DWIDTH 27 0
BBX 28 46 4 -1
BITMAP
000F01E0
003F87F0
003F87F0
003F87F0
003F87F0
003F07E0
003E07C0
00000000
00000000
00000000
00000000
07F007F0
07F007F0
07F007E0
07E00FE0
0FE00FE0
0FE00FE0
0FE00FC0
0FC01FC0
1FC01FC0
1FC01FC0
1FC01FC0
1F803F80
3F803F80
3F803F80
3F803F80
3F807F00
7F007F00
7F007F00
7F007F00
7F00FE00
FE00FE00
FE00FE00
FE00FE00
FE01FC00
FE01FC00
FE01FC00
FE03F800
FE03F800
FF0FF800
FFFFF000
7FFFE000
7FFFE000
3FFF8000
1FFF0000
01F00000
ENDCHAR
STARTCHAR 00DD
ENCODING 221
SWIDTH 486 0
DWIDTH 27 0
BBX 26 46 8 0
BITMAP
00002000
0000F000
0001F000
0003F800
000FFC00
001FF800
003FE000
001F8000
001F0000
000C0000
00000000
00000000
FE003FC0
FE003F80
FE007F80
FE007F00
7E00FE00
7E01FE00
7F01FC00
7F03F800
7F03F800
3F07F000
3F0FE000
3F0FE000
3F9FC000
3FBF8000
1FBF8000
1FFF0000
1FFE0000
0FFC0000
0FF80000
0FF80000
0FF00000
0FE00000
0FE00000
0FE00000
0FE00000
0FC00000
1FC00000
1FC00000
1FC00000
1F800000
3F800000
3F800000
3F800000
3F000000
ENDCHAR
STARTCHAR 00DE
ENCODING 222
SWIDTH 486 0
DWIDTH 27 0
BBX 27 34 2 0
BITMAP
00FE0000
00FE0000
00FE0000
01FC0000
01FC0000
01FFFC00
01FFFF00
03FFFF80
03FFFFC0
03FFFFE0
03F8FFE0
03F01FE0
07F00FE0
07F00FE0
07F007E0
07E007E0
0FE00FE0
0FE00FE0
0FE00FE0
0FC01FE0
1FC03FC0
1FC3FF80
1FFFFF80
1FFFFF00
3FFFFC00
3FFFF800
3FFFC000
3FF00000
7F000000
7F000000
7F000000
7F000000
FE000000
FE000000
ENDCHAR
STARTCHAR 00DF
ENCODING 223
SWIDTH 486 0
DWIDTH 27 0
BBX 37 48 -7 -9
BITMAP
0000000800
000001FF80
000007FFE0
00001FFFF0
00003FFFF0
00003FFFF8
00007FCFF8
0000FF03F8
0000FE03F8
0000FE03F8
0001FC03F0
0001FC07F0
0001FC07E0
0001F80FE0
0003F81FC0
0003F83F80
0003F87F00
0003F8FE00
0003F0FC00
0007F1FC00
0007F1FC00
0007F1FC00
0007F1FE00
000FE0FF00
000FE0FF80
000FE07F80
000FE03FC0
000FE01FE0
001FC00FE0
001FC00FE0
001FC00FE0
001FC00FE0
001FC00FE0
003F861FE0
003F8FFFC0
003F8FFFC0
003F8FFF80
003F9FFF00
007F0FFC00
007F01E000
00FF000000
01FE000000
3FFE000000
7FFC000000
7FFC000000
7FF8000000
FFF0000000
7FC0000000
ENDCHAR
STARTCHAR 00E0
ENCODING 224
SWIDTH 486 0
DWIDTH 27 0
BBX 25 39 4 -1
BITMAP
00020000
00078000
000FC000
000FE000
001FF800
000FFC00
0003FE00
0000FC00
00003800
00000800
00000000
0007E000
003FFE00
00FFFF80
03FFFF80
07FFFF80
0FFFFF00
1FF07F00
3FE07F00
3F807F00
7F807E00
7F00FE00
FE00FE00
FE00FE00
FE00FC00
FE01FC00
FC01FC00
FC01FC00
FC01F800
FC01F800
FE03F800
FE07F800
FF0FF800
FFFFF800
7FFFFC00
7FFFFC00
3FFEFC00
1FF8FC00
03C00000
ENDCHAR
STARTCHAR 00E1
ENCODING 225
SWIDTH 486 0
DWIDTH 27 0
BBX 25 39 4 -1
BITMAP
00000400
00001E00
00003F00
0000FF00
0001FF80
0003FF00
0007FC00
0003F000
0001C000
00010000
00000000
0007E000
003FFE00
00FFFF80
03FFFF80
07FFFF80
0FFFFF00
1FF07F00
3FE07F00
3F807F00
7F807E00
7F00FE00
FE00FE00
FE00FE00
FE00FC00
FE01FC00
FC01FC00
FC01FC00
FC01F800
FC01F800
FE03F800
FE07F800
FF0FF800
FFFFF800
7FFFFC00
7FFFFC00
3FFEFC00
1FF8FC00
03C00000
ENDCHAR
STARTCHAR 00E2
ENCODING 226
SWIDTH 486 0
DWIDTH 27 0
BBX 25 39 4 -1
BITMAP
00003000
0000F000
0001F800
0003FC00
0007FE00
001FFF00
003FBF00
001E0F00
001C0600
00000000
00000000
0007E000
003FFE00
00FFFF80
03FFFF80
07FFFF80
0FFFFF00
1FF07F00
3FE07F00
3F807F00
7F807E00
7F00FE00
FE00FE00
FE00FE00
FE00FC00
FE01FC00
FC01FC00
FC01FC00
FC01F800
FC01F800
FE03F800
FE07F800
FF0FF800
FFFFF800
7FFFFC00
7FFFFC00
3FFEFC00
1FF8FC00
03C00000
ENDCHAR
STARTCHAR 00E3
ENCODING 227
SWIDTH 486 0
DWIDTH 27 0
BBX 27 38 4 -1
BITMAP
000FC180
001FFFE0
003FFFC0
003FFFC0
007FFF80
007CFF00
00183E00
00000000
00000000
00000000
0007E000
003FFE00
00FFFF80
03FFFF80
07FFFF80
0FFFFF00
1FF07F00
3FE07F00
3F807F00
7F807E00
7F00FE00
FE00FE00
FE00FE00
FE00FC00
FE01FC00
FC01FC00
FC01FC00
FC01F800
FC01F800
FE03F800
FE07F800
FF0FF800
FFFFF800
7FFFFC00
7FFFFC00
3FFEFC00
1FF8FC00
03C00000
ENDCHAR
STARTCHAR 00E4
ENCODING 228
SWIDTH 486 0
DWIDTH 27 0
BBX 28 38 4 -1
BITMAP
001F03E0
003F07E0
007F8FF0
007F8FF0
007F0FE0
003F07E0
003E07C0
00000000
00000000
00000000
0007E000
003FFE00
00FFFF80
03FFFF80
07FFFF80
0FFFFF00
1FF07F00
3FE07F00
3F807F00
7F807E00
7F00FE00
FE00FE00
FE00FE00
FE00FC00
FE01FC00
FC01FC00
FC01FC00
FC01F800
FC01F800
FE03F800
FE07F800
FF0FF800
FFFFF800
7FFFFC00
7FFFFC00
3FFEFC00
1FF8FC00
03C00000
ENDCHAR
STARTCHAR 00E5
ENCODING 229
SWIDTH 486 0
DWIDTH 27 0
BBX 25 41 4 -1
BITMAP
0001FC00
0003FE00
0007FF00
00078F00
00070700
00070700
00070F00
0007DF00
0007FE00
0003FE00
0000F800
00000000
00000000
0007E000
003FFE00
00FFFF80
03FFFF80
07FFFF80
0FFFFF00
1FF07F00
3FE07F00
3F807F00
7F807E00
7F00FE00
FE00FE00
FE00FE00
FE00FC00
FE01FC00
FC01FC00
FC01FC00
FC01F800
FC01F800
FE03F800
FE07F800
FF0FF800
FFFFF800
7FFFFC00
7FFFFC00
3FFEFC00
1FF8FC00
03C00000
ENDCHAR
STARTCHAR 00E6
ENCODING 230
SWIDTH 486 0
DWIDTH 27 0
BBX 28 28 2 -1
BITMAP
03E00780
0FF81FE0
1FFC3FE0
1FFE7FF0
0FFEFFF0
0E7FF9F0
001FE1F0
001FE1F0
000FC1F0
000FC1F0
003F83E0
03FF87E0
0FFF8FC0
1FFFFFC0
3FFFFF80
7F1FFE00
7C1FF800
FC3F8000
F83F0000
F83F0000
F87F8000
F8FF8000
F9FFE700
FFF7FF00
FFE7FF00
7FC3FF80
7F81FF00
0C007800
ENDCHAR
STARTCHAR 00E7
ENCODING 231
SWIDTH 486 0
DWIDTH 27 0
BBX 25 36 4 -9
BITMAP
0001F800
001FFF80
007FFF80
01FFFF80
03FFFF00
07FFFF00
0FFE0600
1FF00000
3FE00000
3FC00000
7F800000
7F000000
7F000000
7F000000
FE000000
FE000000
FE000000
FE000000
FE000000
FF000000
7F800800
7FF1F800
7FFFF800
3FFFF800
1FFFF800
0FFFF800
03FFF000
007E0000
00780000
00FE0000
003E0000
003E0000
043E0000
07FE0000
0FFC0000
0FF80000
ENDCHAR
STARTCHAR 00E8
ENCODING 232
SWIDTH 486 0
DWIDTH 27 0
BBX 25 39 4 -1
BITMAP
00060000
000F0000
000FC000
001FE000
003FF000
001FFC00
0007FC00
0001FC00
00007800
00001000
00000000
0007C000
003FFC00
00FFFE00
03FFFF00
07FFFF00
0FFFFF80
1FF03F80
1FC03F80
3F803F80
3F003F80
7F007F00
7E00FF00
7E07FE00
FFFFFE00
FFFFF800
FFFFF000
FFFF8000
FFE00000
FE000000
FE000000
7F000000
7FC03800
7FFFF800
3FFFF800
1FFFF800
0FFFF800
03FFE000
007E0000
ENDCHAR
STARTCHAR 00E9
ENCODING 233
SWIDTH 486 0
DWIDTH 27 0
BBX 25 39 4 -1
BITMAP
00001800
00003C00
00007E00
0001FE00
0003FF00
0007FE00
000FF800
0007E000
00078000
00020000
00000000
0007C000
003FFC00
00FFFE00
03FFFF00
07FFFF00
0FFFFF80
1FF03F80
1FC03F80
3F803F80
3F003F80
7F007F00
7E00FF00
7E07FE00
FFFFFE00
FFFFF800
FFFFF000
FFFF8000
FFE00000
FE000000
FE000000
7F000000
7FC03800
7FFFF800
3FFFF800
1FFFF800
0FFFF800
03FFE000
007E0000
ENDCHAR
STARTCHAR 00EA
ENCODING 234
SWIDTH 486 0
DWIDTH 27 0
BBX 25 39 4 -1
BITMAP
00006000
0000F000
0001F800
0007F800
000FFC00
001FFE00
003F3F00
003E1F00
00180E00
00000400
00000000
0007C000
003FFC00
00FFFE00
03FFFF00
07FFFF00
0FFFFF80
1FF03F80
1FC03F80
3F803F80
3F003F80
7F007F00
7E00FF00
7E07FE00
FFFFFE00
FFFFF800
FFFFF000
FFFF8000
FFE00000
FE000000
FE000000
7F000000
7FC03800
7FFFF800
3FFFF800
1FFFF800
0FFFF800
03FFE000
007E0000
ENDCHAR
STARTCHAR 00EB
ENCODING 235
SWIDTH 486 0
DWIDTH 27 0
BBX 26 38 4 -1
BITMAP
007C0F80
00FE1FC0
00FE1FC0
00FE1FC0
00FE1FC0
00FC1F80
00780F00
00000000
00000000
00000000
0007C000
003FFC00
00FFFE00
03FFFF00
07FFFF00
0FFFFF80
1FF03F80
1FC03F80
3F803F80
3F003F80
7F007F00
7E00FF00
7E07FE00
FFFFFE00
FFFFF800
FFFFF000
FFFF8000
FFE00000
FE000000
FE000000
7F000000
7FC03800
7FFFF800
3FFFF800
1FFFF800
0FFFF800
03FFE000
007E0000
ENDCHAR
STARTCHAR 00EC
ENCODING 236
SWIDTH 486 0
DWIDTH 27 0
BBX 19 39 6 -1
BITMAP
00C000
01E000
01F800
03FC00
03FE00
01FF80
00FF80
003F80
000F00
000200
000000
000000
7FFE00
7FFE00
7FFE00
7FFE00
FFFE00
FFFC00
01FC00
01FC00
01FC00
03F800
03F800
03F800
03F800
03F000
07F000
07F000
07F000
07F000
07F000
07F000
07F8E0
07FFE0
07FFE0
03FFE0
03FFE0
01FFE0
001C00
ENDCHAR
STARTCHAR 00ED
ENCODING 237
SWIDTH 486 0
DWIDTH 27 0
BBX 19 39 6 -1
BITMAP
000180
000380
000FC0
001FE0
003FE0
00FFC0
00FF00
00FE00
007800
002000
000000
000000
7FFE00
7FFE00
7FFE00
7FFE00
FFFE00
FFFC00
01FC00
01FC00
01FC00
03F800
03F800
03F800
03F800
03F000
07F000
07F000
07F000
07F000
07F000
07F000
07F8E0
07FFE0
07FFE0
03FFE0
03FFE0
01FFE0
001C00
ENDCHAR
STARTCHAR 00EE
ENCODING 238
SWIDTH 486 0
DWIDTH 27 0
BBX 20 39 6 -1
BITMAP
000600
001E00
003F00
007F80
00FFC0
03FFE0
07F3E0
03C1F0
0380C0
000000
000000
000000
7FFE00
7FFE00
7FFE00
7FFE00
FFFE00
FFFC00
01FC00
01FC00
01FC00
03F800
03F800
03F800
03F800
03F000
07F000
07F000
07F000
07F000
07F000
07F000
07F8E0
07FFE0
07FFE0
03FFE0
03FFE0
01FFE0
001C00
ENDCHAR
STARTCHAR 00EF
ENCODING 239
SWIDTH 486 0
DWIDTH 27 0
BBX 22 38 6 -1
BITMAP
07C0F8
0FE1FC
0FE1FC
0FE1FC
0FE1FC
0FC1F8
0780F0
000000
000000
000000
000000
7FFE00
7FFE00
7FFE00
7FFE00
FFFE00
FFFC00
01FC00
01FC00
01FC00
03F800
03F800
03F800
03F800
03F000
07F000
07F000
07F000
07F000
07F000
07F000
07F8E0
07FFE0
07FFE0
03FFE0
03FFE0
01FFE0
001C00
ENDCHAR
STARTCHAR 00F0
ENCODING 240
SWIDTH 486 0
DWIDTH 27 0
BBX 30 39 3 0
BITMAP
0000E000
0001F000
0007F800
0003FC38
0001FFF8
0000FFF8
0000FFFC
0007FFE0
000FFF00
000FFF00
000FBF80
00041F80
00001F80
00001F80
00001F80
007FDF80
01FFFF80
07FFFF80
0FFFFF80
0FFFFF80
1FE0FF80
3FC03F80
3F803F80
7F007F00
7F007F00
7F007F00
7E00FF00
7E00FE00
FE00FE00
FE01FC00
7E03FC00
7F07F800
7F8FF800
7FFFF000
3FFFE000
3FFFC000
1FFF8000
07FE0000
01F00000
ENDCHAR
STARTCHAR 00F1
ENCODING 241
SWIDTH 486 0
DWIDTH 27 0
BBX 26 37 3 0
BITMAP
000F8380
003FFFC0
003FFFC0
007FFF80
00FFFF80
0079FF00
00303C00
00000000
00000000
00000000
0007C000
01FFF800
07FFFE00
07FFFE00
07FFFF00
07FFFF00
0FF0FF80
0FE07F80
0FE07F80
0FE03F80
1FC03F00
1FC07F00
1FC07F00
1FC07F00
3F807F00
3F80FE00
3F80FE00
3F80FE00
7F00FE00
7F01FC00
7F01FC00
7F01FC00
7E01FC00
FE03F800
FE03F800
FE03F800
FC03F800
ENDCHAR
STARTCHAR 00F2
ENCODING 242
SWIDTH 486 0
DWIDTH 27 0
BBX 24 39 4 -1
BITMAP
000C00
001E00
001F80
003FC0
007FE0
003FF8
000FF8
0003F8
0000F0
000020
000000
000F80
007FF0
01FFF8
03FFFC
07FFFE
0FFFFE
1FF1FF
3FC0FF
3F807F
7F007F
7F007F
7E007F
FE007F
FE007F
FE007F
FC007E
FC00FE
FE00FE
FE01FC
FE03FC
FE07F8
FF8FF8
FFFFF0
7FFFE0
7FFFC0
3FFF80
0FFE00
03E000
ENDCHAR
STARTCHAR 00F3
ENCODING 243
SWIDTH 486 0
DWIDTH 27 0
BBX 24 39 4 -1
BITMAP
000030
000078
0000F8
0003FC
0007FE
000FFC
001FF0
000FC0
000F00
000400
000000
000F80
007FF0
01FFF8
03FFFC
07FFFE
0FFFFE
1FF1FF
3FC0FF
3F807F
7F007F
7F007F
7E007F
FE007F
FE007F
FE007F
FC007E
FC00FE
FE00FE
FE01FC
FE03FC
FE07F8
FF8FF8
FFFFF0
7FFFE0
7FFFC0
3FFF80
0FFE00
03E000
ENDCHAR
STARTCHAR 00F4
ENCODING 244
SWIDTH 486 0
DWIDTH 27 0
BBX 24 39 4 -1
BITMAP
000040
0001E0
0003F0
0007F8
001FFC
003FFE
007F7E
003C3E
00380C
000000
000000
000F80
007FF0
01FFF8
03FFFC
07FFFE
0FFFFE
1FF1FF
3FC0FF
3F807F
7F007F
7F007F
7E007F
FE007F
FE007F
FE007F
FC007E
FC00FE
FE00FE
FE01FC
FE03FC
FE07F8
FF8FF8
FFFFF0
7FFFE0
7FFFC0
3FFF80
0FFE00
03E000
ENDCHAR
STARTCHAR 00F5
ENCODING 245
SWIDTH 486 0
DWIDTH 27 0
BBX 25 38 4 -1
BITMAP
001F0700
007FFF80
007FFF80
00FFFF00
01FFFF00
00F3FE00
00607800
00000000
00000000
00000000
000F8000
007FF000
01FFF800
03FFFC00
07FFFE00
0FFFFE00
1FF1FF00
3FC0FF00
3F807F00
7F007F00
7F007F00
7E007F00
FE007F00
FE007F00
FE007F00
FC007E00
FC00FE00
FE00FE00
FE01FC00
FE03FC00
FE07F800
FF8FF800
FFFFF000
7FFFE000
7FFFC000
3FFF8000
0FFE0000
03E00000
ENDCHAR
STARTCHAR 00F6
ENCODING 246
SWIDTH 486 0
DWIDTH 27 0
BBX 26 38 4 -1
BITMAP
007C0F80
00FE1FC0
00FE1FC0
00FE1FC0
00FE1FC0
00FC1F80
00780F00
00000000
00000000
00000000
000F8000
007FF000
01FFF800
03FFFC00
07FFFE00
0FFFFE00
1FF1FF00
3FC0FF00
3F807F00
7F007F00
7F007F00
7E007F00
FE007F00
FE007F00
FE007F00
FC007E00
FC00FE00
FE00FE00
FE01FC00
FE03FC00
FE07F800
FF8FF800
FFFFF000
7FFFE000
7FFFC000
3FFF8000
0FFE0000
03E00000
ENDCHAR
STARTCHAR 00F7
ENCODING 247
SWIDTH 486 0
DWIDTH 27 0
BBX 24 29 5 0
BITMAP
000700
001FC0
001FC0
003FC0
003FC0
003FC0
003F80
001F00
000000
000000
000000
000000
7FFFFF
FFFFFF
FFFFFF
FFFFFE
FFFFFE
000000
000000
000000
004000
01F000
03F800
07F800
07F800
07F800
07F800
03F000
008000
ENDCHAR
STARTCHAR 00F8
ENCODING 248
SWIDTH 486 0
DWIDTH 27 0
BBX 26 30 4 -3
BITMAP
00000300
0007E3C0
003FFFC0
00FFFF80
01FFFF00
03FFFF00
07FFFF80
0FF07F80
0FE0FF80
1FC1FF80
1F83FF80
3F87FF80
3F0FDF80
3F0F9F80
7F1F1F80
7F3E3F80
7F7E3F80
7EFC3F00
7FF83F00
7FF07F00
7FE0FE00
7FC1FE00
7F83FC00
3FFFF800
3FFFF000
3FFFE000
7FFFC000
FFFF0000
78F80000
30000000
ENDCHAR
STARTCHAR 00F9
ENCODING 249
SWIDTH 486 0
DWIDTH 27 0
BBX 25 39 4 -1
BITMAP
00180000
003C0000
003F0000
007F8000
007FC000
003FF000
001FF000
0007F000
0001E000
00004000
00000000
00000000
0FE03F80
0FE03F80
1FC03F80
1FC07F00
1FC07F00
1FC07F00
3F807F00
3F807E00
3F80FE00
3F80FE00
3F00FE00
7F00FC00
7F01FC00
7F01FC00
7E01FC00
FE01F800
FE03F800
FE03F800
FE03F800
FE07F800
FF9FF800
7FFFF800
7FFFF800
7FFFFC00
3FFDFC00
1FF8FC00
03800000
ENDCHAR
STARTCHAR 00FA
ENCODING 250
SWIDTH 486 0
DWIDTH 27 0
BBX 25 39 4 -1
BITMAP
00003000
00007000
0001F800
0003FC00
0007FC00
001FF800
001FE000
001FC000
000F0000
00040000
00000000
00000000
0FE03F80
0FE03F80
1FC03F80
1FC07F00
1FC07F00
1FC07F00
3F807F00
3F807E00
3F80FE00
3F80FE00
3F00FE00
7F00FC00
7F01FC00
7F01FC00
7E01FC00
FE01F800
FE03F800
FE03F800
FE03F800
FE07F800
FF9FF800
7FFFF800
7FFFF800
7FFFFC00
3FFDFC00
1FF8FC00
03800000
ENDCHAR
STARTCHAR 00FB
ENCODING 251
SWIDTH 486 0
DWIDTH 27 0
BBX 25 39 4 -1
BITMAP
0000C000
0001E000
0003F000
000FF800
001FF800
003FFC00
007E7E00
007C3E00
00301C00
00000800
00000000
00000000
0FE03F80
0FE03F80
1FC03F80
1FC07F00
1FC07F00
1FC07F00
3F807F00
3F807E00
3F80FE00
3F80FE00
3F00FE00
7F00FC00
7F01FC00
7F01FC00
7E01FC00
FE01F800
FE03F800
FE03F800
FE03F800
FE07F800
FF9FF800
7FFFF800
7FFFF800
7FFFFC00
3FFDFC00
1FF8FC00
03800000
ENDCHAR
STARTCHAR 00FC
ENCODING 252
SWIDTH 486 0
DWIDTH 27 0
BBX 25 38 4 -1
BITMAP
00F81F00
01FC3F80
01FC3F80
01FC3F80
01FC3F80
01F83F00
00F01E00
00000000
00000000
00000000
00000000
0FE03F80
0FE03F80
1FC03F80
1FC07F00
1FC07F00
1FC07F00
3F807F00
3F807E00
3F80FE00
3F80FE00
3F00FE00
7F00FC00
7F01FC00
7F01FC00
7E01FC00
FE01F800
FE03F800
FE03F800
FE03F800
FE07F800
FF9FF800
7FFFF800
7FFFF800
7FFFFC00
3FFDFC00
1FF8FC00
03800000
ENDCHAR
STARTCHAR 00FD
ENCODING 253
SWIDTH 486 0
DWIDTH 27 0
BBX 32 47 -2 -9
BITMAP
000000C0
000001C0
000007E0
00000FF0
00001FF0
00007FE0
00007F80
00007E00
00003C00
00001000
00000000
00000000
00FE007F
00FE007F
00FE00FF
00FF00FE
007F00FE
007F01FC
007F01FC
007F01F8
007F03F8
007F03F8
007F07F0
007F07F0
003F0FE0
003F0FE0
003F9FC0
003F9FC0
003FBF80
003FBF80
001FFF00
001FFE00
001FFE00
001FFC00
001FF800
000FF800
000FF000
000FE000
001FE000
003FC000
007F8000
7FFF0000
7FFE0000
7FFC0000
FFF80000
FFE00000
FF800000
ENDCHAR
STARTCHAR 00FE
ENCODING 254
SWIDTH 486 0
DWIDTH 27 0
BBX 28 47 0 -8
BITMAP
000FC000
001FC000
001F8000
003F8000
003F8000
003F8000
003F8000
007F0000
007F0000
007F0000
007F0000
00FE7800
00FFFF00
00FFFF80
00FFFFC0
00FFFFE0
01FFFFE0
01FC1FF0
01FC07F0
01F807F0
03F807F0
03F807F0
03F807F0
03F007F0
07F007F0
07F007F0
07F00FE0
07F00FE0
0FE01FE0
0FE01FC0
0FE03FC0
0FE0FF80
1FC7FF80
1FFFFF00
1FFFFE00
1FFFFC00
3FFFF000
3FFFC000
3FB40000
3F800000
7F000000
7F000000
7F000000
7F000000
7E000000
FE000000
FE000000
ENDCHAR
STARTCHAR 00FF
ENCODING 255
SWIDTH 486 0
DWIDTH 27 0
BBX 32 46 -2 -9
BITMAP
0003E07C
0007F0FE
0007F0FE
0007F0FE
0007F0FE
0007E0FC
0003C078
00000000
00000000
00000000
00000000
00FE007F
00FE007F
00FE00FF
00FF00FE
007F00FE
007F01FC
007F01FC
007F01F8
007F03F8
007F03F8
007F07F0
007F07F0
003F0FE0
003F0FE0
003F9FC0
003F9FC0
003FBF80
003FBF80
001FFF00
001FFE00
001FFE00
001FFC00
001FF800
000FF800
000FF000
000FE000
001FE000
003FC000
007F8000
7FFF0000
7FFE0000
7FFC0000
FFF80000
FFE00000
FF800000
ENDCHAR
STARTCHAR 0100
ENCODING 256
SWIDTH 486 0
DWIDTH 27 0
BBX 31 44 0 0
BITMAP
0001FFFE
0001FFFE
0001FFFE
0003FFFC
0003FFFC
00000000
00000000
00000000
00000000
00000000
00007F80
0000FF80
0000FF80
0001FF80
0003FF80
0003FF80
0007EF80
0007EF80
000FCF80
000FCFC0
001F8FC0
001F8FC0
003F0FC0
003F0FC0
007E0FC0
007E0FC0
00FC0FC0
00FC0FC0
01F80FC0
01F80FC0
03FFFFC0
03FFFFC0
07FFFFC0
07FFFFC0
0FFFFFC0
0FFFFFC0
1FC00FC0
1F800FC0
3F800FC0
3F000FC0
7F000FC0
7F000FC0
FE000FC0
FE000FC0
ENDCHAR
STARTCHAR 0101
ENCODING 257
SWIDTH 486 0
DWIDTH 27 0
BBX 27 37 4 -1
BITMAP
001FFFE0
001FFFE0
003FFFC0
003FFFC0
003FFFC0
00000000
00000000
00000000
00000000
0007E000
003FFE00
00FFFF80
03FFFF80
07FFFF80
0FFFFF00
1FF07F00
3FE07F00
3F807F00
7F807E00
7F00FE00
FE00FE00
FE00FE00
FE00FC00
FE01FC00
FC01FC00
FC01FC00
FC01F800
FC01F800
FE03F800
FE07F800
FF0FF800
FFFFF800
7FFFFC00
7FFFFC00
3FFEFC00
1FF8FC00
03C00000
ENDCHAR
STARTCHAR 0102
ENCODING 258
SWIDTH 486 0
DWIDTH 27 0
BBX 31 46 0 0
BITMAP
0000F83E
0001F83E
0001F87E
0000F8FC
0000FFFC
0000FFF8
00007FF0
00003FE0
00000300
00000000
00000000
00000000
00007F80
0000FF80
0000FF80
0001FF80
0003FF80
0003FF80
0007EF80
0007EF80
000FCF80
000FCFC0
001F8FC0
001F8FC0
003F0FC0
003F0FC0
007E0FC0
007E0FC0
00FC0FC0
00FC0FC0
01F80FC0
01F80FC0
03FFFFC0
03FFFFC0
07FFFFC0
07FFFFC0
0FFFFFC0
0FFFFFC0
1FC00FC0
1F800FC0
3F800FC0
3F000FC0
7F000FC0
7F000FC0
FE000FC0
FE000FC0
ENDCHAR
STARTCHAR 0103
ENCODING 259
SWIDTH 486 0
DWIDTH 27 0
BBX 26 39 4 -1
BITMAP
001F07C0
001F07C0
001F0FC0
001F9F80
001FFF80
000FFF00
000FFE00
0003F800
00000000
00000000
00000000
0007E000
003FFE00
00FFFF80
03FFFF80
07FFFF80
0FFFFF00
1FF07F00
3FE07F00
3F807F00
7F807E00
7F00FE00
FE00FE00
FE00FE00
FE00FC00
FE01FC00
FC01FC00
FC01FC00
FC01F800
FC01F800
FE03F800
FE07F800
FF0FF800
FFFFF800
7FFFFC00
7FFFFC00
3FFEFC00
1FF8FC00
03C00000
ENDCHAR
STARTCHAR 0104
ENCODING 260
SWIDTH 486 0
DWIDTH 27 0
BBX 26 43 1 -9
BITMAP
0000FF00
0000FF00
0001FF80
0001FF80
0003FF80
0003FF80
0007FF80
000FFF80
000FDF80
001F9F80
001F9F80
003F1F80
003F0F80
007E0FC0
007E0FC0
00FE0FC0
00FC0FC0
01FC0FC0
01F80FC0
03F80FC0
03FFFFC0
07FFFFC0
07FFFFC0
0FFFFFC0
0FFFFFC0
1FFFFFC0
1F801FC0
3F801FC0
3F801FC0
7F001FC0
7F001FC0
FE001FC0
FE001FC0
FC001FC0
00001F80
00003F00
00007E00
0000FC00
0001FC00
0001FD80
0001FF80
0001FF80
0000FF80
ENDCHAR
STARTCHAR 0105
ENCODING 261
SWIDTH 486 0
DWIDTH 27 0
BBX 25 36 4 -9
BITMAP
0007E000
003FFE00
00FFFF80
03FFFF80
07FFFF80
0FFFFF00
1FF07F00
3FE07F00
3F807F00
7F807E00
7F00FE00
FE00FE00
FE00FE00
FE00FC00
FE01FC00
FC01FC00
FC01FC00
FC01F800
FC01F800
FE03F800
FE07F800
FF0FF800
FFFFF800
7FFFFC00
7FFFFC00
3FFFFC00
1FF8FC00
03C1F800
0007F000
000FC000
001F8000
001F8000
003FD800
003FF800
003FF000
001FF000
ENDCHAR
STARTCHAR 0106
ENCODING 262
SWIDTH 486 0
DWIDTH 27 0
BBX 27 47 5 -1
BITMAP
00000400
00001E00
00003E00
00007F00
0001FF80
0003FF00
0007FC00
0003F000
0003E000
00018000
00000000
0003FE00
001FFF80
007FFFE0
00FFFFC0
01FFFFC0
03FFFF80
07FC0380
0FF80000
0FF00000
1FE00000
1FC00000
3F800000
3F800000
3F800000
7F000000
7F000000
7F000000
FE000000
FE000000
FE000000
FE000000
FE000000
FE000000
FE000000
FE000000
FE000000
FE000000
FF000000
7F801000
7FE1F000
7FFFF000
3FFFF000
1FFFF000
0FFFF000
07FFC000
00FC0000
ENDCHAR
STARTCHAR 0107
ENCODING 263
SWIDTH 486 0
DWIDTH 27 0
BBX 25 39 4 -1
BITMAP
00000600
00000E00
00003F00
00007F80
0000FF80
0003FF00
0003FC00
0003F000
0001E000
00008000
00000000
0001F800
001FFF80
007FFF80
01FFFF80
03FFFF00
07FFFF00
0FFE0600
1FF00000
3FE00000
3FC00000
7F800000
7F000000
7F000000
7F000000
FE000000
FE000000
FE000000
FE000000
FE000000
FF000000
7F800800
7FF1F800
7FFFF800
3FFFF800
1FFFF800
0FFFF800
03FFF000
001E0000
ENDCHAR
STARTCHAR 0108
ENCODING 264
SWIDTH 486 0
DWIDTH 27 0
BBX 27 47 5 -1
BITMAP
00000800
00001C00
00007E00
0000FF00
0001FF00
0003FF80
000FEFC0
000FC7E0
00070380
00020100
00000000
0003FE00
001FFF80
007FFFE0
00FFFFC0
01FFFFC0
03FFFF80
07FC0380
0FF80000
0FF00000
1FE00000
1FC00000
3F800000
3F800000
3F800000
7F000000
7F000000
7F000000
FE000000
FE000000
FE000000
FE000000
FE000000
FE000000
FE000000
FE000000
FE000000
FE000000
FF000000
7F801000
7FE1F000
7FFFF000
3FFFF000
1FFFF000
0FFFF000
07FFC000
00FC0000
ENDCHAR
STARTCHAR 0109
ENCODING 265
SWIDTH 486 0
DWIDTH 27 0
BBX 25 39 4 -1
BITMAP
00001000
00007800
0000FC00
0001FE00
0007FF00
000FFF80
001FDF80
000F0F80
000E0300
00000000
00000000
0001F800
001FFF80
007FFF80
01FFFF80
03FFFF00
07FFFF00
0FFE0600
1FF00000
3FE00000
3FC00000
7F800000
7F000000
7F000000
7F000000
FE000000
FE000000
FE000000
FE000000
FE000000
FF000000
7F800800
7FF1F800
7FFFF800
3FFFF800
1FFFF800
0FFFF800
03FFF000
001E0000
ENDCHAR
STARTCHAR 010A
ENCODING 266
SWIDTH 486 0
DWIDTH 27 0
BBX 27 46 5 -1
BITMAP
00007C00
0000FC00
0001FE00
0001FE00
0001FE00
0001FC00
0000F800
00000000
00000000
00000000
0003FE00
001FFF80
007FFFE0
00FFFFC0
01FFFFC0
03FFFF80
07FC0380
0FF80000
0FF00000
1FE00000
1FC00000
3F800000
3F800000
3F800000
7F000000
7F000000
7F000000
FE000000
FE000000
FE000000
FE000000
FE000000
FE000000
FE000000
FE000000
FE000000
FE000000
FF000000
7F801000
7FE1F000
7FFFF000
3FFFF000
1FFFF000
0FFFF000
07FFC000
00FC0000
ENDCHAR
STARTCHAR 010B
ENCODING 267
SWIDTH 486 0
DWIDTH 27 0
BBX 25 38 4 0
BITMAP
0000F800
0001FC00
0001FC00
0003FC00
0003FC00
0001F800
0000F000
00000000
00000000
00000000
0001F800
001FFF80
007FFF80
01FFFF80
03FFFF00
07FFFF00
0FFE0600
1FF00000
3FE00000
3FC00000
7F800000
7F000000
7F000000
7F000000
FE000000
FE000000
FE000000
FE000000
FE000000
FF000000
7F800800
7FF1F800
7FFFF800
3FFFF800
1FFFF800
0FFFF800
03FFF000
001E0000
ENDCHAR
STARTCHAR 010C
ENCODING 268
SWIDTH 486 0
DWIDTH 27 0
BBX 27 47 5 -1
BITMAP
00030080
000781C0
000FC7E0
0007EFE0
0003FF80
0001FF00
0000FE00
0000F800
00007000
00002000
00000000
0003FE00
001FFF80
007FFFE0
00FFFFC0
01FFFFC0
03FFFF80
07FC0380
0FF80000
0FF00000
1FE00000
1FC00000
3F800000
3F800000
3F800000
7F000000
7F000000
7F000000
FE000000
FE000000
FE000000
FE000000
FE000000
FE000000
FE000000
FE000000
FE000000
FE000000
FF000000
7F801000
7FE1F000
7FFFF000
3FFFF000
1FFFF000
0FFFF000
07FFC000
00FC0000
ENDCHAR
STARTCHAR 010D
ENCODING 269
SWIDTH 486 0
DWIDTH 27 0
BBX 27 39 4 -1
BITMAP
00030180
000F83C0
000FCFE0
0007FFC0
0003FF00
0003FE00
0001FC00
0000F800
00006000
00000000
00000000
0001F800
001FFF80
007FFF80
01FFFF80
03FFFF00
07FFFF00
0FFE0600
1FF00000
3FE00000
3FC00000
7F800000
7F000000
7F000000
7F000000
FE000000
FE000000
FE000000
FE000000
FE000000
FF000000
7F800800
7FF1F800
7FFFF800
3FFFF800
1FFFF800
0FFFF800
03FFF000
001E0000
ENDCHAR
STARTCHAR 010E
ENCODING 270
SWIDTH 486 0
DWIDTH 27 0
BBX 27 46 2 0
BITMAP
00020080
000703C0
000FC7C0
0007FFC0
0007FF80
0003FE00
0001FC00
0000F800
00007000
00004000
00000000
001FE000
00FFFC00
01FFFE00
01FFFF00
01FFFF80
01FFFFC0
03F87FC0
03F81FE0
03F80FE0
03F80FE0
03F00FE0
07F00FE0
07F00FE0
07F00FE0
07E00FE0
0FE00FE0
0FE00FE0
0FE00FE0
0FC00FE0
1FC00FE0
1FC01FC0
1FC01FC0
1FC01FC0
3F803FC0
3F807F80
3F807F80
3F80FF00
7F01FF00
7F07FE00
7FFFFC00
7FFFF800
FFFFF000
FFFFE000
FFFF8000
FFFC0000
ENDCHAR
STARTCHAR 010F
ENCODING 271
SWIDTH 486 0
DWIDTH 27 0
BBX 35 40 2 -1
BITMAP
00000027E0
00000FCFE0
00001FCFC0
00001FCFC0
00001FCF80
00001F8F80
00003F9F80
00003F9F00
00003F9F00
00003F1F00
00007F3E00
00007F3E00
00007F3C00
007FFE0000
01FFFE0000
03FFFE0000
07FFFE0000
0FFFFC0000
1FF1FC0000
1FC1FC0000
3F81FC0000
3F81FC0000
7F03F80000
7F03F80000
FE03F80000
FE03F80000
FE07F00000
FE07F00000
FE07F00000
FE07F00000
FE07E00000
FE0FE00000
FE0FE00000
FF3FE00000
FFFFF00000
7FFFF00000
7FFFF00000
3FFBF00000
1FE3F00000
0780000000
ENDCHAR
STARTCHAR 0110
ENCODING 272
SWIDTH 486 0
DWIDTH 27 0
BBX 26 35 3 0
BITMAP
001FC000
00FFF800
01FFFC00
01FFFE00
01FFFF00
01FFFF80
03F87F80
03F83FC0
03F81FC0
03F81FC0
03F01FC0
07F00FC0
07F00FC0
07F00FC0
7FFE1FC0
7FFE1FC0
7FFC1FC0
7FFC1FC0
FFFC1FC0
FFFC1FC0
1FC03F80
1FC03F80
1F803F80
3F807F80
3F807F00
3F80FF00
3F01FE00
7F03FE00
7F07FC00
7FFFF800
7FFFF000
7FFFE000
FFFFC000
FFFF0000
FFFC0000
ENDCHAR
STARTCHAR 0111
ENCODING 273
SWIDTH 486 0
DWIDTH 27 0
BBX 30 39 4 0
BITMAP
000007E0
00000FE0
00000FE0
00000FC0
001FFFFC
001FFFFC
001FFFF8
001FFFF8
00003F80
00003F80
00003F80
00003F80
003FFF00
01FFFF00
03FFFF00
07FFFF00
0FFFFE00
1FF0FE00
3FC0FE00
3F80FE00
7F00FC00
7F01FC00
FE01FC00
FE01FC00
FE01F800
FE03F800
FC03F800
FC03F800
FC03F800
FC03F000
FE07F000
FE0FF000
FF1FF000
FFFFF000
7FFFF800
7FFFF800
3FFDF800
1FF1F800
03000000
ENDCHAR
STARTCHAR 0112
ENCODING 274
SWIDTH 486 0
DWIDTH 27 0
BBX 29 44 3 0
BITMAP
0007FFF8
0007FFF8
0007FFF8
000FFFF0
000FFFF0
00000000
00000000
00000000
00000000
00000000
00FFFFF0
00FFFFF0
01FFFFF0
01FFFFF0
01FFFFE0
01FC0000
01F80000
03F80000
03F80000
03F80000
03F00000
07F00000
07F00000
07FFFE00
07FFFE00
0FFFFE00
0FFFFE00
0FFFFE00
0FFFFC00
1FC00000
1FC00000
1FC00000
1FC00000
3F800000
3F800000
3F800000
3F800000
7F000000
7FFFFE00
7FFFFE00
7FFFFC00
7FFFFC00
FFFFFC00
FFFFFC00
ENDCHAR
STARTCHAR 0113
ENCODING 275
SWIDTH 486 0
DWIDTH 27 0
BBX 27 37 4 -1
BITMAP
001FFFE0
003FFFC0
003FFFC0
003FFFC0
003FFFC0
00000000
00000000
00000000
00000000
0007C000
003FFC00
00FFFE00
03FFFF00
07FFFF00
0FFFFF80
1FF03F80
1FC03F80
3F803F80
3F003F80
7F007F00
7E00FF00
7E07FE00
FFFFFE00
FFFFF800
FFFFF000
FFFF8000
FFE00000
FE000000
FE000000
7F000000
7FC03800
7FFFF800
3FFFF800
1FFFF800
0FFFF800
03FFE000
007E0000
ENDCHAR
STARTCHAR 0114
ENCODING 276
SWIDTH 486 0
DWIDTH 27 0
BBX 29 46 3 0
BITMAP
0003E0F8
0007E0F8
0007E1F8
0003E3F0
0003FFF0
0003FFE0
0001FFC0
0000FF80
00000C00
00000000
00000000
00000000
00FFFFF0
00FFFFF0
01FFFFF0
01FFFFF0
01FFFFE0
01FC0000
01F80000
03F80000
03F80000
03F80000
03F00000
07F00000
07F00000
07FFFE00
07FFFE00
0FFFFE00
0FFFFE00
0FFFFE00
0FFFFC00
1FC00000
1FC00000
1FC00000
1FC00000
3F800000
3F800000
3F800000
3F800000
7F000000
7FFFFE00
7FFFFE00
7FFFFC00
7FFFFC00
FFFFFC00
FFFFFC00
ENDCHAR
STARTCHAR 0115
ENCODING 277
SWIDTH 486 0
DWIDTH 27 0
BBX 27 39 4 -1
BITMAP
001F03E0
001F07E0
001F07C0
001FDFC0
000FFF80
000FFF80
0007FF00
0003FC00
00000000
00000000
00000000
0007C000
003FFC00
00FFFE00
03FFFF00
07FFFF00
0FFFFF80
1FF03F80
1FC03F80
3F803F80
3F003F80
7F007F00
7E00FF00
7E07FE00
FFFFFE00
FFFFF800
FFFFF000
FFFF8000
FFE00000
FE000000
FE000000
7F000000
7FC03800
7FFFF800
3FFFF800
1FFFF800
0FFFF800
03FFE000
007E0000
ENDCHAR
STARTCHAR 0116
ENCODING 278
SWIDTH 486 0
DWIDTH 27 0
BBX 28 45 3 0
BITMAP
00003E00
00007F00
00007F00
0000FF00
0000FF00
00007F00
00007E00
00001000
00000000
00000000
00000000
00FFFFF0
00FFFFF0
01FFFFF0
01FFFFF0
01FFFFE0
01FC0000
01F80000
03F80000
03F80000
03F80000
03F00000
07F00000
07F00000
07FFFE00
07FFFE00
0FFFFE00
0FFFFE00
0FFFFE00
0FFFFC00
1FC00000
1FC00000
1FC00000
1FC00000
3F800000
3F800000
3F800000
3F800000
7F000000
7FFFFE00
7FFFFE00
7FFFFC00
7FFFFC00
FFFFFC00
FFFFFC00
ENDCHAR
STARTCHAR 0117
ENCODING 279
SWIDTH 486 0
DWIDTH 27 0
BBX 25 39 4 -1
BITMAP
00002000
0000F800
0001FC00
0003FC00
0003FC00
0003FC00
0003F800
0001F000
00000000
00000000
00000000
0007C000
003FFC00
00FFFE00
03FFFF00
07FFFF00
0FFFFF80
1FF03F80
1FC03F80
3F803F80
3F003F80
7F007F00
7E00FF00
7E07FE00
FFFFFE00
FFFFF800
FFFFF000
FFFF8000
FFE00000
FE000000
FE000000
7F000000
7FC03800
7FFFF800
3FFFF800
1FFFF800
0FFFF800
03FFE000
007E0000
ENDCHAR
STARTCHAR 0118
ENCODING 280
SWIDTH 486 0
DWIDTH 27 0
BBX 28 43 3 -9
BITMAP
00FFFFF0
00FFFFF0
01FFFFF0
01FFFFF0
01FFFFE0
01FC0000
01F80000
03F80000
03F80000
03F80000
03F00000
07F00000
07F00000
07FFFE00
07FFFE00
0FFFFE00
0FFFFE00
0FFFFE00
0FFFFC00
1FC00000
1FC00000
1FC00000
1FC00000
3F800000
3F800000
3F800000
3F800000
7F000000
7FFFFE00
7FFFFE00
7FFFFC00
7FFFFC00
FFFFFC00
FFFFFC00
0001F800
0007F000
000FC000
001F8000
001F8000
003FD800
003FF800
003FF000
001FF000
ENDCHAR
STARTCHAR 0119
ENCODING 281
SWIDTH 486 0
DWIDTH 27 0
BBX 25 36 4 -9
BITMAP
0007C000
003FFC00
00FFFE00
03FFFF00
07FFFF00
0FFFFF80
1FF03F80
1FC03F80
3F803F80
3F003F80
7F007F00
7E00FF00
7E07FE00
FFFFFE00
FFFFF800
FFFFF000
FFFF8000
FFE00000
FE000000
FE000000
7F000000
7FC03800
7FFFF800
3FFFF800
1FFFF800
0FFFF800
03FFF000
007FE000
001F8000
003F0000
007E0000
00FE0000
00FE4000
00FFC000
00FFC000
007FC000
ENDCHAR
STARTCHAR 011A
ENCODING 282
SWIDTH 486 0
DWIDTH 27 0
BBX 28 46 3 0
BITMAP
00008020
0001C0F0
0003F1F0
0001FFF0
0001FFE0
0000FF80
00007F00
00003E00
00001C00
00001000
00000000
00000000
00FFFFF0
00FFFFF0
01FFFFF0
01FFFFF0
01FFFFE0
01FC0000
01F80000
03F80000
03F80000
03F80000
03F00000
07F00000
07F00000
07FFFE00
07FFFE00
0FFFFE00
0FFFFE00
0FFFFE00
0FFFFC00
1FC00000
1FC00000
1FC00000
1FC00000
3F800000
3F800000
3F800000
3F800000
7F000000
7FFFFE00
7FFFFE00
7FFFFC00
7FFFFC00
FFFFFC00
FFFFFC00
ENDCHAR
STARTCHAR 011B
ENCODING 283
SWIDTH 486 0
DWIDTH 27 0
BBX 25 39 4 -1
BITMAP
000C0300
001E0F00
001F1F80
001FFF00
000FFE00
0007FC00
0003F000
0001E000
0001C000
00008000
00000000
0007C000
003FFC00
00FFFE00
03FFFF00
07FFFF00
0FFFFF80
1FF03F80
1FC03F80
3F803F80
3F003F80
7F007F00
7E00FF00
7E07FE00
FFFFFE00
FFFFF800
FFFFF000
FFFF8000
FFE00000
FE000000
FE000000
7F000000
7FC03800
7FFFF800
3FFFF800
1FFFF800
0FFFF800
03FFE000
007E0000
ENDCHAR
STARTCHAR 011C
ENCODING 284
SWIDTH 486 0
DWIDTH 27 0
BBX 28 47 4 -1
BITMAP
00000800
00001C00
00007E00
0000FF00
0001FF00
0003FF80
000FEFC0
000FC7E0
000703C0
00020100
00000000
0003FF00
000FFFC0
003FFFF0
007FFFE0
00FFFFE0
01FFFFC0
03FE01C0
07FC0000
0FF00000
0FE00000
1FE00000
1FC00000
3FC00000
3F800000
3F800000
7F000000
7F000000
7F003F00
7F007F00
7E007F00
FE007F00
FE007F00
FE00FE00
FE00FE00
FE00FE00
FE00FE00
FF01FC00
7F01FC00
7F81FC00
7FE1FC00
3FFFF800
3FFFF800
1FFFF800
0FFFF800
07FFE000
00FC0000
ENDCHAR
STARTCHAR 011D
ENCODING 285
SWIDTH 486 0
DWIDTH 27 0
BBX 29 47 0 -9
BITMAP
00000100
00000780
00000FC0
00001FE0
00007FF0
0000FFF8
0001FDF8
0000F0F8
0000E030
00000000
00000000
00003E00
0003FFF0
000FFFF8
003FFFF8
007FFFF8
00FFFFF8
01FF03F8
01FE07F0
03FC07F0
03F807F0
07F007F0
07F00FE0
07E00FE0
0FE00FE0
0FE00FE0
0FE00FC0
0FE01FC0
0FE01FC0
0FF01FC0
07F8FF80
07FFFF80
07FFFF80
03FFFF80
01FFFF00
00FF7F00
00007F00
00007F00
0000FE00
0000FE00
3003FC00
3FFFFC00
7FFFF800
7FFFF000
FFFFE000
7FFFC000
1FFF0000
ENDCHAR
STARTCHAR 011E
ENCODING 286
SWIDTH 486 0
DWIDTH 27 0
BBX 28 47 4 -1
BITMAP
0007C1F0
000FC1F0
000FC3F0
0007C7E0
0007FFE0
0007FFC0
0003FF80
0001FF00
00001800
00000000
00000000
0003FF00
000FFFC0
003FFFF0
007FFFE0
00FFFFE0
01FFFFC0
03FE01C0
07FC0000
0FF00000
0FE00000
1FE00000
1FC00000
3FC00000
3F800000
3F800000
7F000000
7F000000
7F003F00
7F007F00
7E007F00
FE007F00
FE007F00
FE00FE00
FE00FE00
FE00FE00
FE00FE00
FF01FC00
7F01FC00
7F81FC00
7FE1FC00
3FFFF800
3FFFF800
1FFFF800
0FFFF800
07FFE000
00FC0000
ENDCHAR
STARTCHAR 011F
ENCODING 287
SWIDTH 486 0
DWIDTH 27 0
BBX 31 47 0 -9
BITMAP
0000F83E
0001F83E
0001F87E
0000FDFC
0000FFFC
0000FFF8
00007FF0
00001FC0
00000000
00000000
00000000
00003E00
0003FFF0
000FFFF8
003FFFF8
007FFFF8
00FFFFF8
01FF03F8
01FE07F0
03FC07F0
03F807F0
07F007F0
07F00FE0
07E00FE0
0FE00FE0
0FE00FE0
0FE00FC0
0FE01FC0
0FE01FC0
0FF01FC0
07F8FF80
07FFFF80
07FFFF80
03FFFF80
01FFFF00
00FF7F00
00007F00
00007F00
0000FE00
0000FE00
3003FC00
3FFFFC00
7FFFF800
7FFFF000
FFFFE000
7FFFC000
1FFF0000
ENDCHAR
STARTCHAR 0120
ENCODING 288
SWIDTH 486 0
DWIDTH 27 0
BBX 28 46 4 -1
BITMAP
00003E00
00007E00
0000FF00
0000FF00
0000FF00
0000FE00
00007C00
00001000
00000000
00000000
0003FF00
000FFFC0
003FFFF0
007FFFE0
00FFFFE0
01FFFFC0
03FE01C0
07FC0000
0FF00000
0FE00000
1FE00000
1FC00000
3FC00000
3F800000
3F800000
7F000000
7F000000
7F003F00
7F007F00
7E007F00
FE007F00
FE007F00
FE00FE00
FE00FE00
FE00FE00
FE00FE00
FF01FC00
7F01FC00
7F81FC00
7FE1FC00
3FFFF800
3FFFF800
1FFFF800
0FFFF800
07FFE000
00FC0000
ENDCHAR
STARTCHAR 0121
ENCODING 289
SWIDTH 486 0
DWIDTH 27 0
BBX 29 46 0 -8
BITMAP
00000F80
00001FC0
00001FC0
00003FC0
00003FC0
00001F80
00000F00
00000000
00000000
00000000
00003E00
0003FFF0
000FFFF8
003FFFF8
007FFFF8
00FFFFF8
01FF03F8
01FE07F0
03FC07F0
03F807F0
07F007F0
07F00FE0
07E00FE0
0FE00FE0
0FE00FE0
0FE00FC0
0FE01FC0
0FE01FC0
0FF01FC0
07F8FF80
07FFFF80
07FFFF80
03FFFF80
01FFFF00
00FF7F00
00007F00
00007F00
0000FE00
0000FE00
3003FC00
3FFFFC00
7FFFF800
7FFFF000
FFFFE000
7FFFC000
1FFF0000
ENDCHAR
STARTCHAR 0122
ENCODING 290
SWIDTH 486 0
DWIDTH 27 0
BBX 28 44 4 -9
BITMAP
0003FF00
000FFFC0
003FFFF0
007FFFE0
00FFFFE0
01FFFFC0
03FE01C0
07FC0000
0FF00000
0FE00000
1FE00000
1FC00000
3FC00000
3F800000
3F800000
7F000000
7F000000
7F003F00
7F007F00
7E007F00
FE007F00
FE007F00
FE00FE00
FE00FE00
FE00FE00
FE00FE00
FF01FC00
7F01FC00
7F81FC00
7FE1FC00
3FFFF800
3FFFF800
1FFFF800
0FFFF800
07FFE000
00FC0000
00000000
00F80000
01F80000
01F80000
07F00000
1FF00000
3FE00000
3F800000
ENDCHAR
STARTCHAR 0123
ENCODING 291
SWIDTH 486 0
DWIDTH 27 0
BBX 29 48 0 -9
BITMAP
000000E0
000003E0
000007F0
00000FE0
00000FC0
00001F80
00001F80
00003F00
00003F00
00000000
00000000
00000000
00003E00
0003FFF0
000FFFF8
003FFFF8
007FFFF8
00FFFFF8
01FF03F8
01FE07F0
03FC07F0
03F807F0
07F007F0
07F00FE0
07E00FE0
0FE00FE0
0FE00FE0
0FE00FC0
0FE01FC0
0FE01FC0
0FF01FC0
07F8FF80
07FFFF80
07FFFF80
03FFFF80
01FFFF00
00FF7F00
00007F00
00007F00
0000FE00
0000FE00
3003FC00
3FFFFC00
7FFFF800
7FFFF000
FFFFE000
7FFFC000
1FFF0000
ENDCHAR
STARTCHAR 0124
ENCODING 292
SWIDTH 486 0
DWIDTH 27 0
BBX 30 46 2 0
BITMAP
00000400
00000E00
00003F00
00007F80
0000FF80
0001FFC0
0007F7E0
0007E3F0
000381E0
00010080
00000000
00000000
01FC01FC
01FC01FC
01FC01FC
01FC01FC
01F801F8
03F803F8
03F803F8
03F803F8
03F003F0
07F007F0
07F007F0
07F007F0
07E007E0
0FFFFFE0
0FFFFFE0
0FFFFFE0
0FFFFFE0
1FFFFFC0
1FFFFFC0
1FC01FC0
1FC01FC0
3F803F80
3F803F80
3F803F80
3F803F80
7F007F00
7F007F00
7F007F00
7F007F00
7E00FE00
FE00FE00
FE00FE00
FE00FE00
FC00FC00
ENDCHAR
STARTCHAR 0125
ENCODING 293
SWIDTH 486 0
DWIDTH 27 0
BBX 25 46 3 0
BITMAP
0000C000
0001E000
0007F000
000FF800
001FFC00
007F7E00
003C3C00
00381800
00000000
00000000
003E0000
00FE0000
01FC0000
01FC0000
01FC0000
01FC0000
01F80000
03F80000
03F80000
03F9C000
03FFF800
07FFFE00
07FFFF00
07FFFF00
07FFFF00
0FF0FF80
0FE07F80
0FE07F80
0FE03F80
1FC03F00
1FC07F00
1FC07F00
1FC07F00
3F807F00
3F80FE00
3F80FE00
3F80FE00
7F00FE00
7F01FC00
7F01FC00
7F01FC00
7E01FC00
FE01F800
FE03F800
FE03F800
FC03F800
ENDCHAR
STARTCHAR 0126
ENCODING 294
SWIDTH 486 0
DWIDTH 27 0
BBX 30 34 3 0
BITMAP
00FE07F0
00FE07F0
01FC0FE0
01FC0FE0
0FFFFFFC
0FFFFFFC
1FFFFFF8
1FFFFFF8
1FFFFFF8
03F81FC0
03F01F80
07F03F80
07F03F80
07FFFF80
07FFFF00
0FFFFF00
0FFFFF00
0FFFFF00
0FFFFF00
1FC0FE00
1FC0FE00
1FC0FE00
1FC0FE00
3F81FC00
3F81FC00
3F81FC00
3F81FC00
7F01F800
7F03F800
7F03F800
7F03F800
7E03F000
FE07F000
FE07F000
ENDCHAR
STARTCHAR 0127
ENCODING 295
SWIDTH 486 0
DWIDTH 27 0
BBX 25 38 3 1
BITMAP
003F0000
007F0000
007F0000
00FE0000
07FFFC00
07FFFC00
07FFFC00
0FFFF800
01FC0000
01FC0000
01FC0000
01F8E000
03FFFC00
03FFFE00
03FFFE00
03FFFF00
07FFFF00
07F0FF00
07F07F80
07E07F80
0FE07F00
0FE07F00
0FE07F00
0FE07F00
1FC07F00
1FC07F00
1FC0FE00
1FC0FE00
3F80FE00
3F80FE00
3F81FC00
3F81FC00
7F01FC00
7F01FC00
7F03F800
7F03F800
7E03F800
FE03F800
ENDCHAR
STARTCHAR 0128
ENCODING 296
SWIDTH 486 0
DWIDTH 27 0
BBX 30 45 2 0
BITMAP
0001F060
0003FCF8
0007FFF8
000FFFF0
000FFFF0
001FFFE0
00060FC0
00000000
00000000
00000000
00000000
00FFFFFC
00FFFFFC
01FFFFF8
01FFFFF8
01FFFFF8
0003F800
0003F800
0003F800
0003F000
0007F000
0007F000
0007F000
0007F000
000FE000
000FE000
000FE000
000FE000
001FC000
001FC000
001FC000
001FC000
003F8000
003F8000
003F8000
003F8000
007F0000
007F0000
007F0000
7FFFFE00
7FFFFE00
7FFFFE00
7FFFFC00
FFFFFC00
FFFFFC00
ENDCHAR
STARTCHAR 0129
ENCODING 297
SWIDTH 486 0
DWIDTH 27 0
BBX 22 38 6 -1
BITMAP
00F838
01FFFC
03FFFC
07FFF8
07FFF8
078FF0
0303C0
000000
000000
000000
000000
7FFE00
7FFE00
7FFE00
7FFE00
FFFE00
FFFC00
01FC00
01FC00
01FC00
03F800
03F800
03F800
03F800
03F000
07F000
07F000
07F000
07F000
07F000
07F000
07F8E0
07FFE0
07FFE0
03FFE0
03FFE0
01FFE0
001C00
ENDCHAR
STARTCHAR 012A
ENCODING 298
SWIDTH 486 0
DWIDTH 27 0
BBX 30 44 2 0
BITMAP
0003FFFC
0007FFF8
0007FFF8
0007FFF8
0007FFF8
00000000
00000000
00000000
00000000
00000000
00FFFFFC
00FFFFFC
01FFFFF8
01FFFFF8
01FFFFF8
0003F800
0003F800
0003F800
0003F000
0007F000
0007F000
0007F000
0007F000
000FE000
000FE000
000FE000
000FE000
001FC000
001FC000
001FC000
001FC000
003F8000
003F8000
003F8000
003F8000
007F0000
007F0000
007F0000
7FFFFE00
7FFFFE00
7FFFFE00
7FFFFC00
FFFFFC00
FFFFFC00
ENDCHAR
STARTCHAR 012B
ENCODING 299
SWIDTH 486 0
DWIDTH 27 0
BBX 22 37 6 -1
BITMAP
03FFFC
03FFFC
03FFFC
07FFF8
07FFF8
000000
000000
000000
000000
000000
7FFE00
7FFE00
7FFE00
7FFE00
FFFE00
FFFC00
01FC00
01FC00
01FC00
03F800
03F800
03F800
03F800
03F000
07F000
07F000
07F000
07F000
07F000
07F000
07F8E0
07FFE0
07FFE0
03FFE0
03FFE0
01FFE0
001C00
ENDCHAR
STARTCHAR 012C
ENCODING 300
SWIDTH 486 0
DWIDTH 27 0
BBX 30 46 2 0
BITMAP
0003E0F8
0007E0F8
0007E1F8
0003E3F0
0003FFF0
0003FFE0
0001FFC0
0000FF80
00000C00
00000000
00000000
00000000
00FFFFFC
00FFFFFC
01FFFFF8
01FFFFF8
01FFFFF8
0003F800
0003F800
0003F800
0003F000
0007F000
0007F000
0007F000
0007F000
000FE000
000FE000
000FE000
000FE000
001FC000
001FC000
001FC000
001FC000
003F8000
003F8000
003F8000
003F8000
007F0000
007F0000
007F0000
7FFFFE00
7FFFFE00
7FFFFE00
7FFFFC00
FFFFFC00
FFFFFC00
ENDCHAR
STARTCHAR 012D
ENCODING 301
SWIDTH 486 0
DWIDTH 27 0
BBX 22 39 6 -1
BITMAP
01F07C
01F07C
01F0FC
01FBF8
01FFF8
00FFF0
00FFE0
003F80
000000
000000
000000
000000
7FFE00
7FFE00
7FFE00
7FFE00
FFFE00
FFFC00
01FC00
01FC00
01FC00
03F800
03F800
03F800
03F800
03F000
07F000
07F000
07F000
07F000
07F000
07F000
07F8E0
07FFE0
07FFE0
03FFE0
03FFE0
01FFE0
001C00
ENDCHAR
STARTCHAR 012E
ENCODING 302
SWIDTH 486 0
DWIDTH 27 0
BBX 30 43 2 -9
BITMAP
00FFFFFC
00FFFFFC
01FFFFF8
01FFFFF8
01FFFFF8
0003F800
0003F800
0003F800
0003F000
0007F000
0007F000
0007F000
0007F000
000FE000
000FE000
000FE000
000FE000
001FC000
001FC000
001FC000
001FC000
003F8000
003F8000
003F8000
003F8000
007F0000
007F0000
007F0000
7FFFFE00
7FFFFE00
7FFFFE00
7FFFFC00
FFFFFC00
FFFFFC00
00FC0000
03F00000
07E00000
0FC00000
1FC00000
1FCC0000
1FF80000
1FF80000
0FF80000
ENDCHAR
STARTCHAR 012F
ENCODING 303
SWIDTH 486 0
DWIDTH 27 0
BBX 19 47 6 -9
BITMAP
001E00
003F00
007F80
007F80
00FF80
007F80
007F00
007E00
001800
000000
000000
000000
7FFE00
7FFE00
7FFE00
7FFE00
FFFE00
FFFC00
01FC00
01FC00
01FC00
03F800
03F800
03F800
03F800
03F000
07F000
07F000
07F000
07F000
07F000
07F000
07F8E0
07FFE0
07FFE0
03FFE0
03FFE0
01FFE0
001FC0
003F00
007E00
00FC00
01FC00
01FCC0
01FF80
01FF80
00FF80
ENDCHAR
STARTCHAR 0130
ENCODING 304
SWIDTH 486 0
DWIDTH 27 0
BBX 30 45 2 0
BITMAP
00003E00
00007F00
00007F00
0000FF00
0000FF00
00007F00
00007E00
00001000
00000000
00000000
00000000
00FFFFFC
00FFFFFC
01FFFFF8
01FFFFF8
01FFFFF8
0003F800
0003F800
0003F800
0003F000
0007F000
0007F000
0007F000
0007F000
000FE000
000FE000
000FE000
000FE000
001FC000
001FC000
001FC000
001FC000
003F8000
003F8000
003F8000
003F8000
007F0000
007F0000
007F0000
7FFFFE00
7FFFFE00
7FFFFE00
7FFFFC00
FFFFFC00
FFFFFC00
ENDCHAR
STARTCHAR 0131
ENCODING 305
SWIDTH 486 0
DWIDTH 27 0
BBX 19 27 6 -1
BITMAP
7FFE00
7FFE00
7FFE00
7FFE00
FFFE00
FFFC00
01FC00
01FC00
01FC00
03F800
03F800
03F800
03F800
03F000
07F000
07F000
07F000
07F000
07F000
07F000
07F8E0
07FFE0
07FFE0
03FFE0
03FFE0
01FFE0
001C00
ENDCHAR
STARTCHAR 0132
ENCODING 306
SWIDTH 486 0
DWIDTH 27 0
BBX 32 35 1 -1
BITMAP
00FC003F
00FC003F
01FC007F
01F8007F
01F8007E
01F8007E
03F800FE
03F800FE
03F000FC
03F000FC
07F001FC
07F001FC
07E001F8
07E001F8
0FE001F8
0FE003F8
0FC003F0
0FC003F0
1FC003F0
1FC007F0
1F8007E0
1F8007E0
3F8007E0
3F800FE0
3F000FE0
3F000FC0
3F001FC0
7F101FC0
7E383F80
7E3FFF80
7E7FFF00
FEFFFE00
FC7FFE00
FC1FF800
0003C000
ENDCHAR
STARTCHAR 0133
ENCODING 307
SWIDTH 486 0
DWIDTH 27 0
BBX 28 47 4 -9
BITMAP
007803C0
00FE0FE0
01FE0FF0
01FE1FF0
01FE1FF0
01FE1FE0
01FE1FE0
00FC0FC0
00700700
00000000
00000000
00000000
03F83F80
03F83F80
07F03F80
07F03F00
07F07F00
07F07F00
0FE07F00
0FE07E00
0FE0FE00
0FE0FE00
1FC0FE00
1FC0FE00
1FC1FC00
1FC1FC00
3F81FC00
3F81FC00
3F83F800
3F83F800
3F03F800
7F03F800
7F07F000
7F07F000
7E07F000
FE07F000
FE0FE000
FE0FE000
000FE000
001FE000
043FC000
07FFC000
07FF8000
0FFF0000
0FFF0000
0FFC0000
0FF80000
ENDCHAR
STARTCHAR 0134
ENCODING 308
SWIDTH 486 0
DWIDTH 27 0
BBX 29 47 2 -1
BITMAP
00000300
00000700
00000F80
00003FC0
00007FE0
0000FFF0
0001FBF0
0001F0F8
0001E070
00008020
00000000
00000000
001FFFF8
001FFFF8
003FFFF0
003FFFF0
003FFFF0
000007F0
00000FE0
00000FE0
00000FE0
00000FE0
00000FC0
00001FC0
00001FC0
00001FC0
00001F80
00003F80
00003F80
00003F80
00003F00
00007F00
00007F00
00007F00
00007F00
0000FE00
0000FE00
0000FE00
1001FC00
3C03FC00
3F0FF800
7FFFF800
FFFFF000
7FFFE000
3FFFC000
0FFF0000
00F80000
ENDCHAR
STARTCHAR 0135
ENCODING 309
SWIDTH 486 0
DWIDTH 27 0
BBX 27 47 0 -9
BITMAP
00000400
00001E00
00003F00
00007F80
0001FFC0
0003FFE0
0007F7E0
0003C3E0
000380C0
00000000
00000000
00000000
007FFFC0
007FFFC0
00FFFFC0
00FFFF80
00FFFF80
00FFFF80
00003F80
00003F80
00007F00
00007F00
00007F00
00007F00
0000FE00
0000FE00
0000FE00
0000FE00
0001FC00
0001FC00
0001FC00
0001FC00
0001F800
0003F800
0003F800
0003F800
0003F000
0007F000
0007F000
000FF000
301FE000
7FFFE000
7FFFC000
FFFFC000
FFFF8000
FFFF0000
1FFC0000
ENDCHAR
STARTCHAR 0136
ENCODING 310
SWIDTH 486 0
DWIDTH 27 0
BBX 31 43 2 -9
BITMAP
00FE01FE
01FC03FC
01FC03F8
01FC07F8
01FC0FF0
01F81FE0
03F83FC0
03F83F80
03F87F00
03F0FE00
07F1FE00
07F3FC00
07F7F800
07EFF000
0FFFE000
0FFF8000
0FFF8000
0FFFC000
1FDFC000
1FDFE000
1FCFF000
1FC7F000
3F87F800
3F83F800
3F83FC00
3F81FC00
3F01FC00
7F00FE00
7F00FE00
7F00FF00
7E007F00
FE007F00
FE007F00
FE007F80
00000000
00000000
00FC0000
00F80000
01F80000
03F80000
1FF00000
1FE00000
1FC00000
ENDCHAR
STARTCHAR 0137
ENCODING 311
SWIDTH 486 0
DWIDTH 27 0
BBX 28 47 3 -8
BITMAP
003F0000
007F0000
007E0000
00FE0000
00FE0000
00FE0000
00FC0000
01FC0000
01FC0000
01FC0000
01F80000
03F80000
03F80FF0
03F81FE0
03F83FC0
07F07F80
07F07F00
07F0FE00
07F3FC00
0FE7F800
0FEFF000
0FFFE000
0FFFC000
1FFF8000
1FFF8000
1FFF8000
1FDFC000
1F9FE000
3F8FE000
3F8FF000
3F87F000
3F07F800
7F03F800
7F03FC00
7F01FC00
7E01FC00
FE00FE00
FE00FE00
00000000
00000000
00F80000
00F80000
01F80000
03F80000
1FF00000
1FE00000
1FC00000
ENDCHAR
STARTCHAR 0138
ENCODING 312
SWIDTH 486 0
DWIDTH 27 0
BBX 28 26 3 0
BITMAP
03F80FF0
03F81FE0
03F83FC0
07F07F80
07F07F00
07F0FE00
07F3FC00
0FE7F800
0FEFF000
0FFFE000
0FFFC000
1FFF8000
1FFF8000
1FFF8000
1FDFC000
1F9FE000
3F8FE000
3F8FF000
3F87F000
3F07F800
7F03F800
7F03FC00
7F01FC00
7E01FC00
FE00FE00
FE00FE00
ENDCHAR
STARTCHAR 0139
ENCODING 313
SWIDTH 486 0
DWIDTH 27 0
BBX 22 46 3 0
BITMAP
0000C0
0001C0
0003E0
000FF0
001FF0
003FF0
00FFC0
007F00
003C00
003000
000000
000000
01FC00
01FC00
01FC00
01FC00
01F800
03F800
03F800
03F800
03F000
07F000
07F000
07F000
07E000
0FE000
0FE000
0FE000
0FE000
1FC000
1FC000
1FC000
1FC000
3F8000
3F8000
3F8000
3F8000
3F0000
7F0000
7F0000
7FFFFC
7FFFFC
FFFFFC
FFFFF8
FFFFF8
FFFFF8
ENDCHAR
STARTCHAR 013A
ENCODING 314
SWIDTH 486 0
DWIDTH 27 0
BBX 19 47 8 -1
BITMAP
0000C0
0003C0
000FC0
003FE0
00FFE0
01FF80
01FC00
00E000
000000
000000
7FFE00
FFFE00
FFFC00
FFFC00
FFFC00
FFFC00
03F800
03F800
03F800
03F800
03F000
07F000
07F000
07F000
07E000
0FE000
0FE000
0FE000
0FE000
1FC000
1FC000
1FC000
1FC000
3F8000
3F8000
3F8000
3F8000
3F8000
3F8000
3F8000
3FC780
3FFF80
3FFF80
1FFF80
1FFF80
0FFF00
00F000
ENDCHAR
STARTCHAR 013B
ENCODING 315
SWIDTH 486 0
DWIDTH 27 0
BBX 22 43 3 -9
BITMAP
01FC00
01FC00
01FC00
01FC00
01F800
03F800
03F800
03F800
03F000
07F000
07F000
07F000
07E000
0FE000
0FE000
0FE000
0FE000
1FC000
1FC000
1FC000
1FC000
3F8000
3F8000
3F8000
3F8000
3F0000
7F0000
7F0000
7FFFFC
7FFFFC
FFFFFC
FFFFF8
FFFFF8
FFFFF8
000000
000000
00F800
00F800
01F800
03F800
1FF000
1FE000
1FC000
ENDCHAR
STARTCHAR 013C
ENCODING 316
SWIDTH 486 0
DWIDTH 27 0
BBX 17 47 8 -9
BITMAP
7FFE00
7FFE00
7FFE00
FFFE00
FFFC00
01FC00
01FC00
01FC00
01F800
03F800
03F800
03F800
03F000
07F000
07F000
07F000
07F000
0FE000
0FE000
0FE000
0FE000
1FC000
1FC000
1FC000
1FC000
3F8000
3F8000
3F8000
3F8000
3F8000
3F8000
3F8000
3FC780
3FFF80
3FFF80
1FFF80
1FFF80
0FFF00
00F000
000000
03E000
03E000
07E000
0FE000
7FC000
7F8000
7F0000
ENDCHAR
STARTCHAR 013D
ENCODING 317
SWIDTH 486 0
DWIDTH 27 0
BBX 26 35 3 0
BITMAP
00001FC0
01FC1F80
01FC1F80
01FC1F00
01FC3F00
01F83F00
03F83E00
03F83E00
03F87C00
03F07C00
07F07C00
07F07800
07F07800
07E00000
0FE00000
0FE00000
0FE00000
0FE00000
1FC00000
1FC00000
1FC00000
1FC00000
3F800000
3F800000
3F800000
3F800000
3F000000
7F000000
7F000000
7FFFFC00
7FFFFC00
FFFFFC00
FFFFF800
FFFFF800
FFFFF800
ENDCHAR
STARTCHAR 013E
ENCODING 318
SWIDTH 486 0
DWIDTH 27 0
BBX 26 40 8 -1
BITMAP
00000FC0
7FFE0FC0
7FFE1F80
7FFE1F80
FFFE1F80
FFFC1F00
01FC1F00
01FC3F00
01FC3E00
01F83E00
03F83C00
03F87C00
03F87C00
03F00000
07F00000
07F00000
07F00000
07F00000
0FE00000
0FE00000
0FE00000
0FE00000
1FC00000
1FC00000
1FC00000
1FC00000
3F800000
3F800000
3F800000
3F800000
3F800000
3F800000
3F800000
3FC78000
3FFF8000
3FFF8000
1FFF8000
1FFF8000
0FFF0000
00F00000
ENDCHAR
STARTCHAR 013F
ENCODING 319
SWIDTH 486 0
DWIDTH 27 0
BBX 24 34 3 0
BITMAP
01FC00
01FC00
01FC00
01FC00
01F800
03F800
03F800
03F800
03F000
07F000
07F000
07F000
07E01E
0FE07F
0FE07F
0FE07F
0FE07F
1FC07F
1FC07E
1FC018
1FC000
3F8000
3F8000
3F8000
3F8000
3F0000
7F0000
7F0000
7FFFFC
7FFFFC
FFFFFC
FFFFF8
FFFFF8
FFFFF8
ENDCHAR
STARTCHAR 0140
ENCODING 320
SWIDTH 486 0
DWIDTH 27 0
BBX 25 39 8 -1
BITMAP
7FFE0000
7FFE0000
7FFE0000
FFFE0000
FFFC0000
01FC0000
01FC0000
01FC0000
01F80000
03F80000
03F80000
03F80000
03F00000
07F00000
07F00000
07F00000
07F01F00
0FE03F80
0FE03F80
0FE07F80
0FE07F80
1FC07F80
1FC03F00
1FC01C00
1FC00000
3F800000
3F800000
3F800000
3F800000
3F800000
3F800000
3F800000
3FC78000
3FFF8000
3FFF8000
1FFF8000
1FFF8000
0FFF0000
00F00000
ENDCHAR
STARTCHAR 0141
ENCODING 321
SWIDTH 486 0
DWIDTH 27 0
BBX 22 34 3 0
BITMAP
007F00
007F00
007F00
007F00
007E00
00FE00
00FE00
00FE00
00FC00
01FC70
01FFF0
01FFF0
01FFF0
03FFF0
03FFC0
0FFF00
3FFC00
FFF000
FFF000
FFF000
FFF000
6FE000
0FE000
0FE000
0FE000
1FC000
1FC000
1FC000
1FFFFC
1FFFFC
3FFFFC
3FFFF8
3FFFF8
3FFFF8
ENDCHAR
STARTCHAR 0142
ENCODING 322
SWIDTH 486 0
DWIDTH 27 0
BBX 18 39 7 -1
BITMAP
3FFF00
3FFF00
3FFF00
7FFF00
7FFE00
00FE00
00FE00
00FE00
00FC00
01FC00
01FC00
01FDC0
01FFC0
03FFC0
03FFC0
03FFC0
0FFF00
3FF800
FFF000
FFF000
FFF000
7FE000
4FE000
0FE000
0FE000
1FC000
1FC000
1FC000
1FC000
1FC000
1FC000
1FC000
1FE3C0
1FFFC0
1FFFC0
0FFFC0
0FFFC0
07FF80
007800
ENDCHAR
STARTCHAR 0143
ENCODING 323
SWIDTH 486 0
DWIDTH 27 0
BBX 30 46 2 0
BITMAP
00000180
00000380
000007C0
00001FC0
00003FE0
00007FE0
0001FF80
0000FE00
00007800
00006000
00000000
00000000
01FC00FC
01FC00FC
01FC00FC
01FE00FC
03FE01F8
03FE01F8
03FF01F8
03FF01F8
03FF03F0
07FF03F0
07EF83F0
07EF83F0
07EF87E0
0FCF87E0
0FC7C7E0
0FC7C7E0
0FC7CFC0
1F87CFC0
1F83EFC0
1F83EFC0
1F83FFC0
3F03FF80
3F01FF80
3F01FF80
3F01FF80
7F01FF00
7E01FF00
7E00FF00
7E00FF00
7E00FE00
FC00FE00
FC00FE00
FC00FE00
FC007C00
ENDCHAR
STARTCHAR 0144
ENCODING 324
SWIDTH 486 0
DWIDTH 27 0
BBX 25 38 3 0
BITMAP
00000C00
00001C00
00007E00
0000FF00
0001FF00
0007FE00
0007F800
0007E000
0003C000
00010000
00000000
0007C000
01FFF800
07FFFE00
07FFFE00
07FFFF00
07FFFF00
0FF0FF80
0FE07F80
0FE07F80
0FE03F80
1FC03F00
1FC07F00
1FC07F00
1FC07F00
3F807F00
3F80FE00
3F80FE00
3F80FE00
7F00FE00
7F01FC00
7F01FC00
7F01FC00
7E01FC00
FE03F800
FE03F800
FE03F800
FC03F800
ENDCHAR
STARTCHAR 0145
ENCODING 325
SWIDTH 486 0
DWIDTH 27 0
BBX 30 43 2 -9
BITMAP
01FC00FC
01FC00FC
01FC00FC
01FE00FC
03FE01F8
03FE01F8
03FF01F8
03FF01F8
03FF03F0
07FF03F0
07EF83F0
07EF83F0
07EF87E0
0FCF87E0
0FC7C7E0
0FC7C7E0
0FC7CFC0
1F87CFC0
1F83EFC0
1F83EFC0
1F83FFC0
3F03FF80
3F01FF80
3F01FF80
3F01FF80
7F01FF00
7E01FF00
7E00FF00
7E00FF00
7E00FE00
FC00FE00
FC00FE00
FC00FE00
FC007C00
00000000
00000000
00FC0000
00F80000
01F80000
03F80000
1FF00000
1FE00000
1FC00000
ENDCHAR
STARTCHAR 0146
ENCODING 326
SWIDTH 486 0
DWIDTH 27 0
BBX 25 36 3 -9
BITMAP
0007C000
01FFF800
07FFFE00
07FFFE00
07FFFF00
07FFFF00
0FF0FF80
0FE07F80
0FE07F80
0FE03F80
1FC03F00
1FC07F00
1FC07F00
1FC07F00
3F807F00
3F80FE00
3F80FE00
3F80FE00
7F00FE00
7F01FC00
7F01FC00
7F01FC00
7E01FC00
FE03F800
FE03F800
FE03F800
FC03F800
00000000
00000000
01F80000
01F00000
03F00000
07F00000
3FE00000
3FC00000
3F800000
ENDCHAR
STARTCHAR 0147
ENCODING 327
SWIDTH 486 0
DWIDTH 27 0
BBX 30 46 2 0
BITMAP
00008020
0001C0F0
0003F1F0
0001FFF0
0001FFE0
0000FF80
00007F00
00003E00
00001C00
00001000
00000000
00000000
01FC00FC
01FC00FC
01FC00FC
01FE00FC
03FE01F8
03FE01F8
03FF01F8
03FF01F8
03FF03F0
07FF03F0
07EF83F0
07EF83F0
07EF87E0
0FCF87E0
0FC7C7E0
0FC7C7E0
0FC7CFC0
1F87CFC0
1F83EFC0
1F83EFC0
1F83FFC0
3F03FF80
3F01FF80
3F01FF80
3F01FF80
7F01FF00
7E01FF00
7E00FF00
7E00FF00
7E00FE00
FC00FE00
FC00FE00
FC00FE00
FC007C00
ENDCHAR
STARTCHAR 0148
ENCODING 328
SWIDTH 486 0
DWIDTH 27 0
BBX 26 38 3 0
BITMAP
00060300
001F0780
001F9FC0
000FFF80
0007FE00
0007FC00
0003F800
0001F000
0000C000
00000000
00000000
0007C000
01FFF800
07FFFE00
07FFFE00
07FFFF00
07FFFF00
0FF0FF80
0FE07F80
0FE07F80
0FE03F80
1FC03F00
1FC07F00
1FC07F00
1FC07F00
3F807F00
3F80FE00
3F80FE00
3F80FE00
7F00FE00
7F01FC00
7F01FC00
7F01FC00
7E01FC00
FE03F800
FE03F800
FE03F800
FC03F800
ENDCHAR
STARTCHAR 0149
ENCODING 329
SWIDTH 486 0
DWIDTH 27 0
BBX 25 39 3 0
BITMAP
01F80000
03F80000
03F80000
03F00000
03F00000
07E00000
07E00000
07C00000
0FC00000
1F800000
0F000000
00000000
0007E000
00FFFC00
03FFFE00
03FFFF00
03FFFF80
07FFFF80
07F87F80
07F03F80
07F03F80
0FE03F80
0FE03F80
0FE03F80
0FE03F80
1FC03F80
1FC07F00
1FC07F00
1FC07F00
3F807F00
3F80FE00
3F80FE00
3F80FE00
7F00FE00
7F01FC00
7F01FC00
7F01FC00
7E01FC00
FE03F800
ENDCHAR
STARTCHAR 014A
ENCODING 330
SWIDTH 486 0
DWIDTH 27 0
BBX 30 43 2 -9
BITMAP
01FC00FC
01FC00FC
01FC00FC
01FE00FC
03FE01F8
03FE01F8
03FF01F8
03FF01F8
03FF03F0
07FF03F0
07EF83F0
07EF83F0
07EF87E0
0FCF87E0
0FC7C7E0
0FC7C7E0
0FC7CFC0
1F87CFC0
1F83EFC0
1F83EFC0
1F83FF80
3F03FF80
3F03FF80
3F01FF80
3F01FF80
7F01FF00
7E01FF00
7E00FF00
7E00FF00
7E00FE00
FC00FE00
FC00FE00
FC00FE00
FC00FC00
0000FC00
0000FC00
0001F800
007FF800
007FF800
007FF000
00FFE000
00FFC000
00FF8000
ENDCHAR
STARTCHAR 014B
ENCODING 331
SWIDTH 486 0
DWIDTH 27 0
BBX 25 36 3 -9
BITMAP
00078000
03FFF800
07FFFE00
07FFFE00
07FFFF00
07FFFF00
0FE0FF80
0FE07F80
0FE07F80
0FC03F80
1FC03F00
1FC07F00
1FC07F00
1FC07F00
3F807F00
3F80FE00
3F80FE00
3F80FE00
7F00FE00
7F01FC00
7F01FC00
7F01FC00
7E01FC00
FE01F800
FE03F800
FE03F800
FC03F800
0007F000
0007F000
0007F000
00FFE000
00FFE000
01FFE000
01FFC000
01FF8000
01FE0000
ENDCHAR
STARTCHAR 014C
ENCODING 332
SWIDTH 486 0
DWIDTH 27 0
BBX 28 45 4 -1
BITMAP
000FFFF0
001FFFE0
001FFFE0
001FFFE0
001FFFE0
00000000
00000000
00000000
00000000
000FF000
003FFC00
00FFFE00
01FFFF00
03FFFF80
07FFFF80
07F83F80
0FF01FC0
0FE01FC0
1FC01FC0
1FC01FC0
3F801FC0
3F801FC0
3F001FC0
7F001FC0
7F001FC0
7F001FC0
FE003F80
FE003F80
FE003F80
FE003F80
FE007F00
FE007F00
FE007F00
FE00FE00
FE00FE00
FE01FC00
FE03FC00
FE07F800
FF9FF800
7FFFF000
7FFFE000
3FFFC000
1FFF8000
0FFE0000
01F00000
ENDCHAR
STARTCHAR 014D
ENCODING 333
SWIDTH 486 0
DWIDTH 27 0
BBX 25 37 4 -1
BITMAP
007FFF80
007FFF80
00FFFF00
00FFFF00
00FFFF00
00000000
00000000
00000000
00000000
000F8000
007FF000
01FFF800
03FFFC00
07FFFE00
0FFFFE00
1FF1FF00
3FC0FF00
3F807F00
7F007F00
7F007F00
7E007F00
FE007F00
FE007F00
FE007F00
FC007E00
FC00FE00
FE00FE00
FE01FC00
FE03FC00
FE07F800
FF8FF800
FFFFF000
7FFFE000
7FFFC000
3FFF8000
0FFE0000
03E00000
ENDCHAR
STARTCHAR 014E
ENCODING 334
SWIDTH 486 0
DWIDTH 27 0
BBX 28 47 4 -1
BITMAP
000F81F0
000F83F0
000F83E0
000FC7E0
000FFFC0
0007FFC0
0003FF80
0001FE00
00003000
00000000
00000000
000FF000
003FFC00
00FFFE00
01FFFF00
03FFFF80
07FFFF80
07F83F80
0FF01FC0
0FE01FC0
1FC01FC0
1FC01FC0
3F801FC0
3F801FC0
3F001FC0
7F001FC0
7F001FC0
7F001FC0
FE003F80
FE003F80
FE003F80
FE003F80
FE007F00
FE007F00
FE007F00
FE00FE00
FE00FE00
FE01FC00
FE03FC00
FE07F800
FF9FF800
7FFFF000
7FFFE000
3FFFC000
1FFF8000
0FFE0000
01F00000
ENDCHAR
STARTCHAR 014F
ENCODING 335
SWIDTH 486 0
DWIDTH 27 0
BBX 25 39 4 -1
BITMAP
003E0F80
007E0F80
007E1F80
003F7F00
003FFF00
003FFE00
001FFC00
0007F000
00000000
00000000
00000000
000F8000
007FF000
01FFF800
03FFFC00
07FFFE00
0FFFFE00
1FF1FF00
3FC0FF00
3F807F00
7F007F00
7F007F00
7E007F00
FE007F00
FE007F00
FE007F00
FC007E00
FC00FE00
FE00FE00
FE01FC00
FE03FC00
FE07F800
FF8FF800
FFFFF000
7FFFE000
7FFFC000
3FFF8000
0FFE0000
03E00000
ENDCHAR
STARTCHAR 0150
ENCODING 336
SWIDTH 486 0
DWIDTH 27 0
BBX 31 47 4 -1
BITMAP
00008018
0001C038
0003E07C
0007F0FE
000FF1FE
003FC3FC
007F8FF0
003E07C0
001C0380
00100200
00000000
000FF000
003FFC00
00FFFE00
01FFFF00
03FFFF80
07FFFF80
07F83F80
0FF01FC0
0FE01FC0
1FC01FC0
1FC01FC0
3F801FC0
3F801FC0
3F001FC0
7F001FC0
7F001FC0
7F001FC0
FE003F80
FE003F80
FE003F80
FE003F80
FE007F00
FE007F00
FE007F00
FE00FE00
FE00FE00
FE01FC00
FE03FC00
FE07F800
FF9FF800
7FFFF000
7FFFE000
3FFFC000
1FFF8000
0FFE0000
01F00000
ENDCHAR
STARTCHAR 0151
ENCODING 337
SWIDTH 486 0
DWIDTH 27 0
BBX 28 39 4 -1
BITMAP
00060040
000F01E0
001F83F0
003F87F0
007F8FF0
00FE1FE0
01FC3F80
01F01F00
00E01C00
00000800
00000000
000F8000
007FF000
01FFF800
03FFFC00
07FFFE00
0FFFFE00
1FF1FF00
3FC0FF00
3F807F00
7F007F00
7F007F00
7E007F00
FE007F00
FE007F00
FE007F00
FC007E00
FC00FE00
FE00FE00
FE01FC00
FE03FC00
FE07F800
FF8FF800
FFFFF000
7FFFE000
7FFFC000
3FFF8000
0FFE0000
03E00000
ENDCHAR
STARTCHAR 0152
ENCODING 338
SWIDTH 486 0
DWIDTH 27 0
BBX 31 35 3 0
BITMAP
0003E000
001FFFFE
007FFFFC
00FFFFFC
01FFFFFC
03FFFFFC
07FC7E00
07F07E00
0FE07E00
1FE0FC00
1FC0FC00
1F80FC00
3F80FC00
3F81F800
3F01FFC0
7F01FFC0
7F01FFC0
7E03FFC0
7E03FF80
FE03FF80
FE03F000
FE07F000
FE07E000
FC07E000
FC07E000
FC0FE000
FC0FC000
FE0FC000
FE0FC000
7FFFFF80
7FFFFF00
7FFFFF00
3FFFFF00
1FFFFF00
07FFFE00
ENDCHAR
STARTCHAR 0153
ENCODING 339
SWIDTH 486 0
DWIDTH 27 0
BBX 29 28 2 -1
BITMAP
003C0380
00FF0FE0
03FF9FF0
07FFBFF0
0FFFFFF8
0FFFF9F8
1FCFF0F8
1F87E0F8
3F07E0F8
3E07C0F0
7E07C1F0
7C07C3F0
7C078FE0
7C07FFC0
FC0FFF80
F80FFF00
F80FFC00
F81FC000
F81F8000
F83F8000
FC3F8000
FC7FC080
FFFFF780
7FFFFF80
7FFBFF80
3FF3FF80
1FC1FF80
07007800
ENDCHAR
STARTCHAR 0154
ENCODING 340
SWIDTH 486 0
DWIDTH 27 0
BBX 28 46 2 0
BITMAP
00000300
00000700
00000F80
00003F80
00007FC0
0000FFC0
0003FF00
0001FC00
0000F000
0000C000
00000000
000FF000
00FFFE00
00FFFF80
01FFFFC0
01FFFFC0
01FFFFE0
01F81FE0
03F80FE0
03F807F0
03F807F0
03F807F0
07F007E0
07F00FE0
07F00FE0
07F01FE0
07E03FC0
0FE1FF80
0FFFFF80
0FFFFF00
0FFFFC00
1FFFF800
1FFFE000
1FC7F000
1F83F000
3F83F800
3F81F800
3F81FC00
3F01FC00
7F00FC00
7F00FE00
7F00FE00
7E007E00
FE007F00
FE007F00
FE007F00
ENDCHAR
STARTCHAR 0155
ENCODING 341
SWIDTH 486 0
DWIDTH 27 0
BBX 26 38 4 0
BITMAP
00000C00
00001C00
00007E00
0000FF00
0001FF00
0007FE00
0007F800
0007F000
0003C000
00010000
00000000
0001E000
007FFFC0
03FFFF80
07FFFF80
07FFFF00
07FFFF00
07FFFF00
0FF00000
0FE00000
0FE00000
0FE00000
0FC00000
1FC00000
1FC00000
1FC00000
1F800000
3F800000
3F800000
3F800000
3F000000
7F000000
7F000000
7F000000
7F000000
FE000000
FE000000
FE000000
ENDCHAR
STARTCHAR 0156
ENCODING 342
SWIDTH 486 0
DWIDTH 27 0
BBX 28 44 2 -9
BITMAP
000FF000
00FFFE00
00FFFF80
01FFFFC0
01FFFFC0
01FFFFE0
01F81FE0
03F80FE0
03F807F0
03F807F0
03F807F0
07F007E0
07F00FE0
07F00FE0
07F01FE0
07E03FC0
0FE1FF80
0FFFFF80
0FFFFF00
0FFFFC00
1FFFF800
1FFFE000
1FC7F000
1F83F000
3F83F800
3F81F800
3F81FC00
3F01FC00
7F00FC00
7F00FE00
7F00FE00
7E007E00
FE007F00
FE007F00
FE007F00
00000000
00000000
00FC0000
00F80000
01F80000
03F80000
1FF00000
1FE00000
1FC00000
ENDCHAR
STARTCHAR 0157
ENCODING 343
SWIDTH 486 0
DWIDTH 27 0
BBX 32 36 -2 -9
BITMAP
00000780
0001FFFF
000FFFFE
001FFFFE
001FFFFC
001FFFFC
001FFFFC
003FC000
003F8000
003F8000
003F8000
003F0000
007F0000
007F0000
007F0000
007E0000
00FE0000
00FE0000
00FE0000
00FC0000
01FC0000
01FC0000
01FC0000
01FC0000
03F80000
03F80000
03F80000
00000000
00000000
03E00000
07E00000
07E00000
1FC00000
7FC00000
FF800000
FF000000
ENDCHAR
STARTCHAR 0158
ENCODING 344
SWIDTH 486 0
DWIDTH 27 0
BBX 28 46 2 0
BITMAP
00020080
000703C0
000FC7C0
0007FFC0
0007FF80
0003FE00
0001FC00
0000F800
00007000
00004000
00000000
000FF000
00FFFE00
00FFFF80
01FFFFC0
01FFFFC0
01FFFFE0
01F81FE0
03F80FE0
03F807F0
03F807F0
03F807F0
07F007E0
07F00FE0
07F00FE0
07F01FE0
07E03FC0
0FE1FF80
0FFFFF80
0FFFFF00
0FFFFC00
1FFFF800
1FFFE000
1FC7F000
1F83F000
3F83F800
3F81F800
3F81FC00
3F01FC00
7F00FC00
7F00FE00
7F00FE00
7E007E00
FE007F00
FE007F00
FE007F00
ENDCHAR
STARTCHAR 0159
ENCODING 345
SWIDTH 486 0
DWIDTH 27 0
BBX 26 38 4 0
BITMAP
00060180
000F07C0
000FCFC0
000FFF80
0007FF00
0003FE00
0001FC00
0000F000
00006000
00004000
00000000
0001E000
007FFFC0
03FFFF80
07FFFF80
07FFFF00
07FFFF00
07FFFF00
0FF00000
0FE00000
0FE00000
0FE00000
0FC00000
1FC00000
1FC00000
1FC00000
1F800000
3F800000
3F800000
3F800000
3F000000
7F000000
7F000000
7F000000
7F000000
FE000000
FE000000
FE000000
ENDCHAR
STARTCHAR 015A
ENCODING 346
SWIDTH 486 0
DWIDTH 27 0
BBX 28 47 2 -1
BITMAP
00000300
00000700
00000F80
00003F80
00007FC0
0000FFC0
0003FF00
0001FC00
0000F000
0000C000
00000000
0007FF00
001FFFE0
007FFFF0
00FFFFF0
01FFFFE0
01FFFFE0
03FC01C0
03F80000
03F80000
03F00000
03F80000
03F80000
03FC0000
03FE0000
03FF8000
01FFE000
00FFF800
007FFC00
003FFE00
000FFE00
0003FF00
0001FF00
0000FF00
00007F00
00007F00
00007F00
00007F00
00007F00
3800FF00
3E03FE00
7FFFFE00
FFFFFC00
FFFFF800
7FFFF000
1FFFC000
00FC0000
ENDCHAR
STARTCHAR 015B
ENCODING 347
SWIDTH 486 0
DWIDTH 27 0
BBX 25 39 3 -1
BITMAP
00000C00
00001C00
00007E00
0000FF00
0001FF00
0007FE00
0007F800
0007E000
0003C000
00010000
00000000
0007F000
007FFF00
00FFFF80
01FFFF00
03FFFF00
07FFFE00
07F80E00
07F00000
07F00000
07F00000
07F80000
07FF0000
07FFC000
03FFF000
01FFF800
007FF800
000FFC00
0003FC00
0001FC00
0001FC00
3001FC00
3C07FC00
7FFFF800
7FFFF800
FFFFF000
FFFFE000
3FFF8000
01F80000
ENDCHAR
STARTCHAR 015C
ENCODING 348
SWIDTH 486 0
DWIDTH 27 0
BBX 28 47 2 -1
BITMAP
00000400
00000E00
00003F00
00007F80
0000FF80
0001FFC0
0007F7E0
0007E3F0
000381E0
00010080
00000000
0007FF00
001FFFE0
007FFFF0
00FFFFF0
01FFFFE0
01FFFFE0
03FC01C0
03F80000
03F80000
03F00000
03F80000
03F80000
03FC0000
03FE0000
03FF8000
01FFE000
00FFF800
007FFC00
003FFE00
000FFE00
0003FF00
0001FF00
0000FF00
00007F00
00007F00
00007F00
00007F00
00007F00
3800FF00
3E03FE00
7FFFFE00
FFFFFC00
FFFFF800
7FFFF000
1FFFC000
00FC0000
ENDCHAR
STARTCHAR 015D
ENCODING 349
SWIDTH 486 0
DWIDTH 27 0
BBX 25 39 3 -1
BITMAP
00003000
00007800
0000FC00
0003FC00
0007FE00
000FFF00
001F9F80
001F0F80
000C0700
00000200
00000000
0007F000
007FFF00
00FFFF80
01FFFF00
03FFFF00
07FFFE00
07F80E00
07F00000
07F00000
07F00000
07F80000
07FF0000
07FFC000
03FFF000
01FFF800
007FF800
000FFC00
0003FC00
0001FC00
0001FC00
3001FC00
3C07FC00
7FFFF800
7FFFF800
FFFFF000
FFFFE000
3FFF8000
01F80000
ENDCHAR
STARTCHAR 015E
ENCODING 350
SWIDTH 486 0
DWIDTH 27 0
BBX 28 44 2 -9
BITMAP
0007FF00
001FFFE0
007FFFF0
00FFFFF0
01FFFFE0
01FFFFE0
03FC01C0
03F80000
03F80000
03F00000
03F80000
03F80000
03FC0000
03FE0000
03FF8000
01FFE000
00FFF800
007FFC00
003FFE00
000FFE00
0003FF00
0001FF00
0000FF00
00007F00
00007F00
00007F00
00007F00
00007F00
3800FF00
3E03FE00
7FFFFE00
FFFFFC00
FFFFF800
7FFFF000
1FFFC000
01F80000
01F00000
01F80000
007C0000
007C0000
08FC0000
1FFC0000
1FF80000
1FF00000
ENDCHAR
STARTCHAR 015F
ENCODING 351
SWIDTH 486 0
DWIDTH 27 0
BBX 25 36 3 -9
BITMAP
0007F000
007FFF00
00FFFF80
01FFFF00
03FFFF00
07FFFE00
07F80E00
07F00000
07F00000
07F00000
07F80000
07FF0000
07FFC000
03FFF000
01FFF800
007FF800
000FFC00
0003FC00
0001FC00
0001FC00
3001FC00
3C07FC00
7FFFF800
7FFFF800
FFFFF000
FFFFE000
3FFF8000
01F80000
01F00000
03F80000
00F80000
00FC0000
10F80000
1FF80000
3FF00000
3FE00000
ENDCHAR
STARTCHAR 0160
ENCODING 352
SWIDTH 486 0
DWIDTH 27 0
BBX 28 47 2 -1
BITMAP
00008060
0001C0E0
0003E3F0
0003F7F0
0001FFE0
0000FF80
00007F00
00003E00
00003800
00001000
00000000
0007FF00
001FFFE0
007FFFF0
00FFFFF0
01FFFFE0
01FFFFE0
03FC01C0
03F80000
03F80000
03F00000
03F80000
03F80000
03FC0000
03FE0000
03FF8000
01FFE000
00FFF800
007FFC00
003FFE00
000FFE00
0003FF00
0001FF00
0000FF00
00007F00
00007F00
00007F00
00007F00
00007F00
3800FF00
3E03FE00
7FFFFE00
FFFFFC00
FFFFF800
7FFFF000
1FFFC000
00FC0000
ENDCHAR
STARTCHAR 0161
ENCODING 353
SWIDTH 486 0
DWIDTH 27 0
BBX 26 39 3 -1
BITMAP
00060180
000F0780
000F8FC0
000FFF80
0007FF00
0003FE00
0001F800
0000F000
0000E000
00004000
00000000
0007F000
007FFF00
00FFFF80
01FFFF00
03FFFF00
07FFFE00
07F80E00
07F00000
07F00000
07F00000
07F80000
07FF0000
07FFC000
03FFF000
01FFF800
007FF800
000FFC00
0003FC00
0001FC00
0001FC00
3001FC00
3C07FC00
7FFFF800
7FFFF800
FFFFF000
FFFFE000
3FFF8000
01F80000
ENDCHAR
STARTCHAR 0162
ENCODING 354
SWIDTH 486 0
DWIDTH 27 0
BBX 28 43 5 -9
BITMAP
1FFFFFF0
1FFFFFF0
1FFFFFF0
1FFFFFF0
3FFFFFE0
001FC000
001FC000
001FC000
003F8000
003F8000
003F8000
003F8000
007F0000
007F0000
007F0000
007F0000
007E0000
00FE0000
00FE0000
00FE0000
00FC0000
01FC0000
01FC0000
01FC0000
01F80000
03F80000
03F80000
03F80000
03F80000
07F00000
07F00000
07F00000
07F00000
0FE00000
07C00000
07C00000
0FE00000
03E00000
01F00000
43F00000
7FE00000
FFE00000
FF800000
ENDCHAR
STARTCHAR 0163
ENCODING 355
SWIDTH 486 0
DWIDTH 27 0
BBX 24 43 5 -9
BITMAP
000300
00FE00
00FE00
00FE00
00FE00
00FC00
01FC00
01FC00
3FFFFF
7FFFFE
7FFFFE
7FFFFE
7FFFFE
FFFFFC
07F000
07F000
07F000
07F000
0FE000
0FE000
0FE000
0FE000
1FC000
1FC000
1FC000
1FC000
1FC000
1FC010
1FF1F0
1FFFF0
1FFFF0
0FFFF0
07FFF0
03FFC0
007800
00F800
00FC00
003E00
003E00
047E00
0FFE00
0FFC00
0FF800
ENDCHAR
STARTCHAR 0164
ENCODING 356
SWIDTH 486 0
DWIDTH 27 0
BBX 26 46 7 0
BITMAP
00100400
00381E00
007E3E00
003FFE00
003FFC00
001FF000
000FE000
0007C000
00038000
00020000
00000000
00000000
7FFFFFC0
7FFFFFC0
7FFFFFC0
7FFFFFC0
FFFFFF80
007F0000
007F0000
007F0000
00FE0000
00FE0000
00FE0000
00FE0000
01FC0000
01FC0000
01FC0000
01FC0000
01F80000
03F80000
03F80000
03F80000
03F00000
07F00000
07F00000
07F00000
07E00000
0FE00000
0FE00000
0FE00000
0FE00000
1FC00000
1FC00000
1FC00000
1FC00000
3F800000
ENDCHAR
STARTCHAR 0165
ENCODING 357
SWIDTH 486 0
DWIDTH 27 0
BBX 26 40 6 -1
BITMAP
00000FC0
00000FC0
00001F80
00001F80
00001F00
00021F00
00FE3E00
00FE3E00
00FE3C00
01FC3C00
01FC0000
01FC0000
01FC0000
7FFFFE00
7FFFFE00
7FFFFE00
7FFFFE00
FFFFFC00
FFFFFC00
07F00000
07F00000
07E00000
0FE00000
0FE00000
0FE00000
0FE00000
1FC00000
1FC00000
1FC00000
1FC00000
1FC00000
3F800000
3FC00000
1FF1E000
1FFFE000
1FFFE000
0FFFE000
0FFFE000
03FFC000
003C0000
ENDCHAR
STARTCHAR 0166
ENCODING 358
SWIDTH 486 0
DWIDTH 27 0
BBX 26 34 7 0
BITMAP
7FFFFFC0
7FFFFFC0
7FFFFFC0
7FFFFFC0
FFFFFF80
007F0000
007F0000
007F0000
00FE0000
00FE0000
00FE0000
00FE0000
01FC0000
01FC0000
01FC0000
7FFFF000
7FFFE000
FFFFE000
FFFFE000
FFFFE000
FFFFC000
07F00000
07F00000
07F00000
07E00000
0FE00000
0FE00000
0FE00000
0FE00000
1FC00000
1FC00000
1FC00000
1FC00000
3F800000
ENDCHAR
STARTCHAR 0167
ENCODING 359
SWIDTH 486 0
DWIDTH 27 0
BBX 25 35 4 -1
BITMAP
00008000
003F8000
003F8000
003F8000
007F0000
007F0000
007F0000
007F0000
1FFFFF80
1FFFFF80
1FFFFF80
1FFFFF80
3FFFFF00
3FFFFF00
01FC0000
01FC0000
01F80000
03F80000
7FFFFF00
7FFFFE00
FFFFFE00
FFFFFE00
FFFFFE00
07F00000
07F00000
07F00000
0FE00000
0FF00000
07FC7800
07FFF800
07FFF800
03FFF800
03FFF800
00FFF000
000F0000
ENDCHAR
STARTCHAR 0168
ENCODING 360
SWIDTH 486 0
DWIDTH 27 0
BBX 28 46 4 -1
BITMAP
0007C180
000FF3E0
001FFFE0
003FFFC0
003FFFC0
007FFF80
00183F00
00000000
00000000
00000000
00000000
07F007F0
07F007F0
07F007E0
07E00FE0
0FE00FE0
0FE00FE0
0FE00FC0
0FC01FC0
1FC01FC0
1FC01FC0
1FC01FC0
1F803F80
3F803F80
3F803F80
3F803F80
3F807F00
7F007F00
7F007F00
7F007F00
7F00FE00
FE00FE00
FE00FE00
FE00FE00
FE01FC00
FE01FC00
FE01FC00
FE03F800
FE03F800
FF0FF800
FFFFF000
7FFFE000
7FFFE000
3FFF8000
1FFF0000
01F00000
ENDCHAR
STARTCHAR 0169
ENCODING 361
SWIDTH 486 0
DWIDTH 27 0
BBX 25 38 4 -1
BITMAP
001F0700
007FFF80
007FFF80
00FFFF00
01FFFF00
00F3FE00
00607800
00000000
00000000
00000000
00000000
0FE03F80
0FE03F80
1FC03F80
1FC07F00
1FC07F00
1FC07F00
3F807F00
3F807E00
3F80FE00
3F80FE00
3F00FE00
7F00FC00
7F01FC00
7F01FC00
7E01FC00
FE01F800
FE03F800
FE03F800
FE03F800
FE07F800
FF9FF800
7FFFF800
7FFFF800
7FFFFC00
3FFDFC00
1FF8FC00
03800000
ENDCHAR
STARTCHAR 016A
ENCODING 362
SWIDTH 486 0
DWIDTH 27 0
BBX 28 45 4 -1
BITMAP
001FFFE0
001FFFE0
001FFFE0
003FFFC0
003FFFC0
00000000
00000000
00000000
00000000
00000000
07F007F0
07F007F0
07F007E0
07E00FE0
0FE00FE0
0FE00FE0
0FE00FC0
0FC01FC0
1FC01FC0
1FC01FC0
1FC01FC0
1F803F80
3F803F80
3F803F80
3F803F80
3F807F00
7F007F00
7F007F00
7F007F00
7F00FE00
FE00FE00
FE00FE00
FE00FE00
FE01FC00
FE01FC00
FE01FC00
FE03F800
FE03F800
FF0FF800
FFFFF000
7FFFE000
7FFFE000
3FFF8000
1FFF0000
01F00000
ENDCHAR
STARTCHAR 016B
ENCODING 363
SWIDTH 486 0
DWIDTH 27 0
BBX 25 37 4 -1
BITMAP
007FFF80
007FFF80
00FFFF00
00FFFF00
00FFFF00
00000000
00000000
00000000
00000000
00000000
0FE03F80
0FE03F80
1FC03F80
1FC07F00
1FC07F00
1FC07F00
3F807F00
3F807E00
3F80FE00
3F80FE00
3F00FE00
7F00FC00
7F01FC00
7F01FC00
7E01FC00
FE01F800
FE03F800
FE03F800
FE03F800
FE07F800
FF9FF800
7FFFF800
7FFFF800
7FFFFC00
3FFDFC00
1FF8FC00
03800000
ENDCHAR
STARTCHAR 016C
ENCODING 364
SWIDTH 486 0
DWIDTH 27 0
BBX 28 47 4 -1
BITMAP
000F83E0
001F83E0
001F87E0
000F8FC0
000FFFC0
000FFF80
0007FF00
0003FE00
00003000
00000000
00000000
00000000
07F007F0
07F007F0
07F007E0
07E00FE0
0FE00FE0
0FE00FE0
0FE00FC0
0FC01FC0
1FC01FC0
1FC01FC0
1FC01FC0
1F803F80
3F803F80
3F803F80
3F803F80
3F807F00
7F007F00
7F007F00
7F007F00
7F00FE00
FE00FE00
FE00FE00
FE00FE00
FE01FC00
FE01FC00
FE01FC00
FE03F800
FE03F800
FF0FF800
FFFFF000
7FFFE000
7FFFE000
3FFF8000
1FFF0000
01F00000
ENDCHAR
STARTCHAR 016D
ENCODING 365
SWIDTH 486 0
DWIDTH 27 0
BBX 25 39 4 -1
BITMAP
007C0F80
007C1F80
007C1F00
007F7F00
007FFE00
003FFC00
001FF800
000FF000
00000000
00000000
00000000
00000000
0FE03F80
0FE03F80
1FC03F80
1FC07F00
1FC07F00
1FC07F00
3F807F00
3F807E00
3F80FE00
3F80FE00
3F00FE00
7F00FC00
7F01FC00
7F01FC00
7E01FC00
FE01F800
FE03F800
FE03F800
FE03F800
FE07F800
FF9FF800
7FFFF800
7FFFF800
7FFFFC00
3FFDFC00
1FF8FC00
03800000
ENDCHAR
STARTCHAR 016E
ENCODING 366
SWIDTH 486 0
DWIDTH 27 0
BBX 28 47 4 -1
BITMAP
0001E000
0007F800
000FFC00
000FFE00
001E1E00
001E1E00
001E1E00
000F1E00
000FFC00
0007FC00
0003F800
00000000
00000000
07F007F0
07F007E0
07E00FE0
0FE00FE0
0FE00FE0
0FE00FC0
0FC01FC0
1FC01FC0
1FC01FC0
1FC01FC0
1F803F80
3F803F80
3F803F80
3F803F80
3F807F00
7F007F00
7F007F00
7F007F00
7F00FE00
FE00FE00
FE00FE00
FE00FE00
FE01FC00
FE01FC00
FE01FC00
FE03F800
FE03F800
FF0FF800
FFFFF000
7FFFE000
7FFFE000
3FFF8000
1FFF0000
01F00000
ENDCHAR
STARTCHAR 016F
ENCODING 367
SWIDTH 486 0
DWIDTH 27 0
BBX 25 41 4 -1
BITMAP
0007F000
000FF800
000FFC00
001E3C00
001E1E00
001E1E00
001E1E00
001F3C00
000FFC00
0007F800
0003E000
00000000
00000000
00000000
0FE03F80
0FE03F80
1FC03F80
1FC07F00
1FC07F00
1FC07F00
3F807F00
3F807E00
3F80FE00
3F80FE00
3F00FE00
7F00FC00
7F01FC00
7F01FC00
7E01FC00
FE01F800
FE03F800
FE03F800
FE03F800
FE07F800
FF9FF800
7FFFF800
7FFFF800
7FFFFC00
3FFDFC00
1FF8FC00
03800000
ENDCHAR
STARTCHAR 0170
ENCODING 368
SWIDTH 486 0
DWIDTH 27 0
BBX 30 47 4 -1
BITMAP
00010020
00038070
000F80F8
001FC3F8
003FC7FC
007F8FF0
00FE1FE0
00FC1F80
00700E00
00200400
00000000
00000000
07F007F0
07F007F0
07F007E0
07E00FE0
0FE00FE0
0FE00FE0
0FE00FC0
0FC01FC0
1FC01FC0
1FC01FC0
1FC01FC0
1F803F80
3F803F80
3F803F80
3F803F80
3F807F00
7F007F00
7F007F00
7F007F00
7F00FE00
FE00FE00
FE00FE00
FE00FE00
FE01FC00
FE01FC00
FE01FC00
FE03F800
FE03F800
FF0FF800
FFFFF000
7FFFE000
7FFFE000
3FFF8000
1FFF0000
01F00000
ENDCHAR
STARTCHAR 0171
ENCODING 369
SWIDTH 486 0
DWIDTH 27 0
BBX 28 39 4 -1
BITMAP
000600C0
000E01C0
001F03E0
007F87F0
00FF1FF0
01FE3FC0
03F87F80
01F03E00
00C01C00
00000000
00000000
00000000
0FE03F80
0FE03F80
1FC03F80
1FC07F00
1FC07F00
1FC07F00
3F807F00
3F807E00
3F80FE00
3F80FE00
3F00FE00
7F00FC00
7F01FC00
7F01FC00
7E01FC00
FE01F800
FE03F800
FE03F800
FE03F800
FE07F800
FF9FF800
7FFFF800
7FFFF800
7FFFFC00
3FFDFC00
1FF8FC00
03800000
ENDCHAR
STARTCHAR 0172
ENCODING 370
SWIDTH 486 0
DWIDTH 27 0
BBX 28 43 4 -9
BITMAP
07F007F0
07F007F0
07F007E0
07E00FE0
0FE00FE0
0FE00FE0
0FE00FC0
0FC01FC0
1FC01FC0
1FC01FC0
1FC01FC0
1F803F80
3F803F80
3F803F80
3F803F80
3F807F00
7F007F00
7F007F00
7F007F00
7F00FE00
FE00FE00
FE00FE00
FE00FE00
FE01FC00
FE01FC00
FE01FC00
FE03F800
FE03F800
FF0FF800
FFFFF000
7FFFE000
7FFFC000
3FFF8000
1FFF0000
01FC0000
01F80000
03F00000
07E00000
0FC00000
0FEC0000
0FFC0000
0FFC0000
07FC0000
ENDCHAR
STARTCHAR 0173
ENCODING 371
SWIDTH 486 0
DWIDTH 27 0
BBX 25 35 4 -9
BITMAP
0FE03F80
0FE03F80
1FC03F80
1FC07F00
1FC07F00
1FC07F00
3F807F00
3F807E00
3F80FE00
3F80FE00
3F00FE00
7F00FC00
7F01FC00
7F01FC00
7E01FC00
FE01F800
FE03F800
FE03F800
FE03F800
FE07F800
FF9FF800
7FFFF800
7FFFF800
7FFFFC00
3FFDFC00
1FF8FC00
0383F800
0007E000
000FC000
001F8000
003F8000
003F9000
003FF000
003FF000
001FF000
ENDCHAR
STARTCHAR 0174
ENCODING 372
SWIDTH 486 0
DWIDTH 27 0
BBX 32 46 2 0
BITMAP
00000400
00000E00
00003F00
00007F80
0000FF80
0001FFC0
0007F7E0
0007E3F0
000381E0
00010080
00000000
00000000
03F8007F
03F0007E
03F0007E
03F0007E
03F000FE
07E000FC
07E000FC
07E000FC
07E000F8
0FC001F8
0FC001F8
0FC001F8
0FC7E1F0
0F87E3F0
1F8FE3F0
1F8FE3E0
1F9FE3E0
1F1FE7E0
1F3FE7E0
3F3DE7C0
3F79E7C0
3E79E7C0
3EF1EF80
3EF1EF80
3FE1EF80
7DE1EF80
7FC1FF00
7FC1FF00
7F81FF00
7F80FE00
7F00FE00
FF00FE00
FE00FC00
FE00FC00
ENDCHAR
STARTCHAR 0175
ENCODING 373
SWIDTH 486 0
DWIDTH 27 0
BBX 28 38 4 0
BITMAP
00004000
0001E000
0003F000
0007F800
001FFC00
003FFE00
007F7E00
003C3E00
00380C00
00000000
00000000
00000000
3E0003F0
7E0003F0
7E0007E0
7E0007E0
7E0007E0
7E1F07C0
7C1F0FC0
7C3F0FC0
7C3F0F80
FC7F0F80
FC7F1F80
F8FF1F00
F8FF1F00
F9FF3F00
F9FF3E00
FBEF3E00
FBCF7C00
FFCFFC00
F78FFC00
FF87F800
FF07F800
FF07F000
FE07F000
FC07E000
FC07E000
F807C000
ENDCHAR
STARTCHAR 0176
ENCODING 374
SWIDTH 486 0
DWIDTH 27 0
BBX 26 46 8 0
BITMAP
00018000
0003C000
0007C000
000FE000
003FF000
007FF800
00FEFC00
00F87C00
00703800
00401000
00000000
00000000
FE003FC0
FE003F80
FE007F80
FE007F00
7E00FE00
7E01FE00
7F01FC00
7F03F800
7F03F800
3F07F000
3F0FE000
3F0FE000
3F9FC000
3FBF8000
1FBF8000
1FFF0000
1FFE0000
0FFC0000
0FF80000
0FF80000
0FF00000
0FE00000
0FE00000
0FE00000
0FE00000
0FC00000
1FC00000
1FC00000
1FC00000
1F800000
3F800000
3F800000
3F800000
3F000000
ENDCHAR
STARTCHAR 0177
ENCODING 375
SWIDTH 486 0
DWIDTH 27 0
BBX 32 47 -2 -9
BITMAP
00000100
00000780
00000FC0
00001FE0
00007FF0
0000FFF8
0001FDF8
0000F0F8
0000E030
00000000
00000000
00000000
00FE007F
00FE007F
00FE00FF
00FF00FE
007F00FE
007F01FC
007F01FC
007F01F8
007F03F8
007F03F8
007F07F0
007F07F0
003F0FE0
003F0FE0
003F9FC0
003F9FC0
003FBF80
003FBF80
001FFF00
001FFE00
001FFE00
001FFC00
001FF800
000FF800
000FF000
000FE000
001FE000
003FC000
007F8000
7FFF0000
7FFE0000
7FFC0000
FFF80000
FFE00000
FF800000
ENDCHAR
STARTCHAR 0178
ENCODING 376
SWIDTH 486 0
DWIDTH 27 0
BBX 26 45 8 0
BITMAP
01E03C00
03F07E00
07F0FE00
07F0FE00
07F0FE00
07F0FE00
03E07C00
00000000
00000000
00000000
00000000
FE003FC0
FE003F80
FE007F80
FE007F00
7E00FE00
7E01FE00
7F01FC00
7F03F800
7F03F800
3F07F000
3F0FE000
3F0FE000
3F9FC000
3FBF8000
1FBF8000
1FFF0000
1FFE0000
0FFC0000
0FF80000
0FF80000
0FF00000
0FE00000
0FE00000
0FE00000
0FE00000
0FC00000
1FC00000
1FC00000
1FC00000
1F800000
3F800000
3F800000
3F800000
3F000000
ENDCHAR
STARTCHAR 0179
ENCODING 377
SWIDTH 486 0
DWIDTH 27 0
BBX 30 46 2 0
BITMAP
00000180
00000380
000007C0
00001FC0
00003FE0
00007FE0
0001FF80
0000FE00
00007800
00006000
00000000
00000000
00FFFFFC
00FFFFF8
00FFFFF8
01FFFFF8
01FFFFF8
000007F0
00000FE0
00001FC0
00003F80
00007F80
0000FF00
0001FE00
0003FC00
0003F800
0007F000
000FE000
001FC000
003FC000
007F8000
00FF0000
00FE0000
01FC0000
03F80000
07F80000
0FF00000
0FE00000
1FC00000
3F800000
7FFFFE00
7FFFFE00
FFFFFE00
FFFFFE00
FFFFFC00
FFFFFC00
ENDCHAR
STARTCHAR 017A
ENCODING 378
SWIDTH 486 0
DWIDTH 27 0
BBX 26 38 3 0
BITMAP
00000C00
00001C00
00007E00
0000FF00
0001FF00
0007FE00
0007F800
0007E000
0003C000
00010000
00000000
00000000
03FFFFC0
03FFFFC0
03FFFFC0
07FFFFC0
07FFFF80
07FFFF80
0001FE00
0003FC00
0007F800
000FF000
001FE000
003FC000
007F8000
00FF0000
01FE0000
03FC0000
07F80000
0FF00000
1FE00000
1FC00000
3FFFFC00
7FFFFC00
7FFFF800
FFFFF800
FFFFF800
FFFFF800
ENDCHAR
STARTCHAR 017B
ENCODING 379
SWIDTH 486 0
DWIDTH 27 0
BBX 30 45 2 0
BITMAP
00003E00
00007F00
00007F00
0000FF00
0000FF00
00007F00
00007E00
00001000
00000000
00000000
00000000
00FFFFFC
00FFFFF8
00FFFFF8
01FFFFF8
01FFFFF8
000007F0
00000FE0
00001FC0
00003F80
00007F80
0000FF00
0001FE00
0003FC00
0003F800
0007F000
000FE000
001FC000
003FC000
007F8000
00FF0000
00FE0000
01FC0000
03F80000
07F80000
0FF00000
0FE00000
1FC00000
3F800000
7FFFFE00
7FFFFE00
FFFFFE00
FFFFFE00
FFFFFC00
FFFFFC00
ENDCHAR
STARTCHAR 017C
ENCODING 380
SWIDTH 486 0
DWIDTH 27 0
BBX 26 37 3 1
BITMAP
0000F800
0001FC00
0001FC00
0003FC00
0003FC00
0001F800
0000F000
00000000
00000000
00000000
00000000
03FFFFC0
03FFFFC0
03FFFFC0
07FFFFC0
07FFFF80
07FFFF80
0001FE00
0003FC00
0007F800
000FF000
001FE000
003FC000
007F8000
00FF0000
01FE0000
03FC0000
07F80000
0FF00000
1FE00000
1FC00000
3FFFFC00
7FFFFC00
7FFFF800
FFFFF800
FFFFF800
FFFFF800
ENDCHAR
STARTCHAR 017D
ENCODING 381
SWIDTH 486 0
DWIDTH 27 0
BBX 30 46 2 0
BITMAP
00010040
0003C1E0
0007E3F0
0003FFE0
0003FFC0
0001FF80
0000FE00
00007C00
00003800
00001000
00000000
00000000
00FFFFFC
00FFFFF8
00FFFFF8
01FFFFF8
01FFFFF8
000007F0
00000FE0
00001FC0
00003F80
00007F80
0000FF00
0001FE00
0003FC00
0003F800
0007F000
000FE000
001FC000
003FC000
007F8000
00FF0000
00FE0000
01FC0000
03F80000
07F80000
0FF00000
0FE00000
1FC00000
3F800000
7FFFFE00
7FFFFE00
FFFFFE00
FFFFFE00
FFFFFC00
FFFFFC00
ENDCHAR
STARTCHAR 017E
ENCODING 382
SWIDTH 486 0
DWIDTH 27 0
BBX 26 38 3 0
BITMAP
00060300
001F0780
001F9FC0
000FFF80
0007FE00
0007FC00
0003F800
0001F000
0000C000
00000000
00000000
00000000
03FFFFC0
03FFFFC0
03FFFFC0
07FFFFC0
07FFFF80
07FFFF80
0001FE00
0003FC00
0007F800
000FF000
001FE000
003FC000
007F8000
00FF0000
01FE0000
03FC0000
07F80000
0FF00000
1FE00000
1FC00000
3FFFFC00
7FFFFC00
7FFFF800
FFFFF800
FFFFF800
FFFFF800
ENDCHAR
STARTCHAR 017F
ENCODING 383
SWIDTH 486 0
DWIDTH 27 0
BBX 35 48 -2 -9
BITMAP
0000000800
000001FFC0
000007FFE0
00000FFFE0
00001FFFE0
00003FFFC0
00007FC3C0
00007F0000
00007F0000
0000FE0000
0000FE0000
0000FE0000
0000FC0000
0001FC0000
0001FC0000
0001FC0000
0001FC0000
0001F80000
0003F80000
0003F80000
0003F80000
0003F80000
0003F00000
0007F00000
0007F00000
0007F00000
0007F00000
0007E00000
000FE00000
000FE00000
000FE00000
000FE00000
000FC00000
001FC00000
001FC00000
001FC00000
001FC00000
001F800000
003F800000
003F800000
007F800000
00FF000000
3FFF000000
7FFE000000
7FFC000000
7FFC000000
FFF0000000
7FC0000000
ENDCHAR
STARTCHAR 0180
ENCODING 384
SWIDTH 486 0
DWIDTH 27 0
BBX 25 40 3 -1
BITMAP
00010000
007F0000
007E0000
00FE0000
00FE0000
07FFFC00
07FFF800
0FFFF800
0FFFF800
01FC0000
01F80000
03F80000
03F80000
03FFF800
03FFFE00
07FFFF00
07FFFF00
07FFFF80
07FEFF80
07E03F80
0FE03F80
0FE01F80
0FE01F80
0FC01F80
1FC01F80
1FC03F80
1FC03F80
1F803F80
3F803F80
3F807F00
3F807F00
3F00FE00
7F01FE00
7F07FC00
7FFFF800
7FFFF800
FFFFE000
FFFFC000
7FFF0000
01F80000
ENDCHAR
STARTCHAR 0181
ENCODING 385
SWIDTH 486 0
DWIDTH 27 0
BBX 26 35 5 0
BITMAP
001FE000
03FFFC00
0FFFFE00
1FFFFF00
3FFFFF80
7FFE7F80
7E7E1F80
FC7E0FC0
F8FC0FC0
F8FC0F80
F8FC1F80
C0FC1F80
01FC1F80
01F83F00
01FFFE00
01FFFC00
01FFF000
03FFF800
03FFFC00
03FFFE00
03F07E00
07E07E00
07E03E00
07E03F00
07E03F00
0FC03E00
0FC07E00
0FC07E00
0FC0FE00
1F83FC00
1FFFFC00
1FFFF800
1FFFF000
3FFFC000
3FFF0000
ENDCHAR
STARTCHAR 0182
ENCODING 386
SWIDTH 486 0
DWIDTH 27 0
BBX 27 34 2 0
BITMAP
00FFFFE0
01FFFFE0
01FFFFE0
01FFFFE0
01FFFFC0
01F80000
03F80000
03F80000
03F80000
03F00000
07F00000
07F00000
07FFF000
07FFFC00
0FFFFE00
0FFFFF00
0FFFFF00
0FFFFF80
1FC07F80
1FC03F80
1FC03F80
1F801F80
3F801F80
3F803F80
3F803F80
3F803F80
7F007F00
7F01FF00
7FBFFE00
7FFFFE00
7FFFFC00
FFFFF000
FFFFC000
FFFF0000
ENDCHAR
STARTCHAR 0183
ENCODING 387
SWIDTH 486 0
DWIDTH 27 0
BBX 28 39 2 -1
BITMAP
007FFFF0
007FFFF0
007FFFF0
00FFFFE0
00FFFFE0
00FFFFE0
00FC0000
01FC0000
01FC0000
01FC0000
01F80000
03F86000
03FFFC00
03FFFE00
03FFFF00
07FFFF80
07FFFF80
07F87F80
07F03FC0
0FE01FC0
0FE01FC0
0FE01FC0
0FE01FC0
1FC01FC0
1FC01FC0
1FC01FC0
1FC03F80
1F803F80
3F803F80
3F807F00
3F80FF00
3F01FE00
7F07FE00
7FFFFC00
7FFFF800
7FFFF000
FFFFC000
7FFF0000
01F00000
ENDCHAR
STARTCHAR 0184
ENCODING 388
SWIDTH 486 0
DWIDTH 27 0
BBX 25 39 3 0
BITMAP
000E0000
007E0000
01FE0000
0FFE0000
0FFC0000
0FFC0000
07FC0000
03FC0000
01F80000
03F80000
03F80000
03F86000
03F7FC00
07FFFE00
07FFFF00
07FFFF00
07FFFF80
0FF87F80
0FE03F80
0FE03F80
0FE03F80
1FC01F80
1FC01F80
1FC03F80
1FC03F80
3F803F80
3F803F80
3F803F80
3F807F00
7F00FF00
7F00FE00
7F03FE00
7F0FFC00
7FFFF800
FFFFF000
FFFFE000
FFFFC000
7FFF0000
01F00000
ENDCHAR
STARTCHAR 0185
ENCODING 389
SWIDTH 486 0
DWIDTH 27 0
BBX 24 35 4 0
BITMAP
000400
003C00
01FC00
07FC00
1FF800
1FF800
0FF800
0FF800
07F000
03F000
07F000
07F000
07E400
07FFE0
0FFFF8
0FFFFC
0FFFFE
0FFFFE
1FC1FF
1FC0FF
1FC07F
1F807F
3F807F
3F807F
3F807F
3F007F
7F00FE
7F01FE
7F03FC
7FFFFC
FFFFF8
FFFFF0
FFFFE0
FFFF80
FFFE00
ENDCHAR
STARTCHAR 0186
ENCODING 390
SWIDTH 486 0
DWIDTH 27 0
BBX 26 36 2 -1
BITMAP
003FE000
00FFF800
03FFFE00
03FFFF00
01FFFF00
01FFFF80
01807F80
00003FC0
00001FC0
00001FC0
00001FC0
00001FC0
00001FC0
00001FC0
00001FC0
00001FC0
00001FC0
00001FC0
00001FC0
00001FC0
00001FC0
00003F80
00003F80
00003F80
00007F00
00007F00
0000FE00
0001FE00
2003FC00
7C1FFC00
7FFFF800
FFFFF000
FFFFE000
FFFF8000
3FFE0000
03E00000
ENDCHAR
STARTCHAR 0187
ENCODING 391
SWIDTH 486 0
DWIDTH 27 0
BBX 32 40 4 -1
BITMAP
0000007E
000000FF
000001FF
000003FE
0003FFFE
001FFFFC
003FFFC0
00FFFFC0
01FFFF80
03FFFF80
07FC0700
07F80100
0FF00000
0FE00000
1FC00000
1FC00000
3F800000
3F800000
3F800000
7F000000
7F000000
7F000000
7F000000
7F000000
7E000000
FE000000
FE000000
FE000000
FE000000
FE000000
7F000000
7F000000
7F802000
7FE1F000
3FFFF000
3FFFF000
1FFFF000
0FFFF000
07FFC000
00FC0000
ENDCHAR
STARTCHAR 0188
ENCODING 392
SWIDTH 486 0
DWIDTH 27 0
BBX 29 32 4 -1
BITMAP
000003F8
00000FF8
00000FF8
00001FF0
0007FFF0
007FFF20
01FFFE00
03FFFC00
07FFF800
0FFFF800
1FF83800
3FE00000
3FC00000
7F800000
7F000000
7F000000
FE000000
FE000000
FE000000
FE000000
FE000000
FE000000
FE000000
FF000000
FF800000
7FF3C000
7FFFC000
3FFFC000
1FFFC000
0FFFE000
07FFC000
00F80000
ENDCHAR
STARTCHAR 0189
ENCODING 393
SWIDTH 486 0
DWIDTH 27 0
BBX 26 35 3 0
BITMAP
001FC000
00FFF800
01FFFC00
01FFFE00
01FFFF00
01FFFF80
03F87F80
03F83FC0
03F81FC0
03F81FC0
03F01FC0
07F00FC0
07F00FC0
07F00FC0
7FFE1FC0
7FFE1FC0
7FFC1FC0
7FFC1FC0
FFFC1FC0
FFFC1FC0
1FC03F80
1FC03F80
1F803F80
3F807F80
3F807F00
3F80FF00
3F01FE00
7F03FE00
7F07FC00
7FFFF800
7FFFF000
7FFFE000
FFFFC000
FFFF0000
FFFC0000
ENDCHAR
STARTCHAR 018A
ENCODING 394
SWIDTH 486 0
DWIDTH 27 0
BBX 26 35 5 0
BITMAP
007F8000
03FFF800
0FFFFC00
1FFFFE00
3FFFFF00
7FFE7F00
7E7E3F80
FC7E1F80
F8FE1F80
F8FC1F80
F8FC0FC0
C0FC0FC0
01FC0FC0
01F81FC0
01F81F80
01F81F80
01F81F80
03F01F80
03F01F80
03F01F80
03F03F00
07E03F00
07E03F00
07E07E00
07E07E00
0FC0FE00
0FC0FC00
0FC1FC00
0FC3F800
1FC7F000
1FFFF000
1FFFE000
1FFFC000
3FFF0000
3FFC0000
ENDCHAR
STARTCHAR 018B
ENCODING 395
SWIDTH 486 0
DWIDTH 27 0
BBX 29 34 3 0
BITMAP
007FFFF8
00FFFFF8
00FFFFF8
00FFFFF0
00FFFFF0
000007F0
000007F0
00000FE0
00000FE0
00000FE0
00000FE0
00001FC0
001FFFC0
00FFFFC0
03FFFFC0
0FFFFF80
1FFFFF80
3FFFFF80
3FE03F80
7F803F00
7F007F00
7F007F00
7E007F00
FE007E00
FE00FE00
FE00FE00
7F00FE00
7F80FC00
7FF3FC00
3FFFFC00
3FFFFC00
1FFFFC00
07FFF800
01FFF800
ENDCHAR
STARTCHAR 018C
ENCODING 396
SWIDTH 486 0
DWIDTH 27 0
BBX 28 39 4 -1
BITMAP
007FFFF0
007FFFF0
007FFFF0
00FFFFE0
00FFFFE0
00FFFFE0
00000FE0
00000FE0
00001FC0
00001FC0
00001FC0
00001FC0
003FFF80
00FFFF80
03FFFF80
07FFFF80
0FFFFF00
1FF07F00
3FE07F00
3F807F00
7F807E00
7F00FE00
FE00FE00
FE00FE00
FE00FC00
FE01FC00
FC01FC00
FC01FC00
FC01F800
FC01F800
FE03F800
FE07F800
FF0FF800
FFFFF800
7FFFFC00
7FFFFC00
3FFEFC00
1FF8FC00
03C00000
ENDCHAR
STARTCHAR 018D
ENCODING 397
SWIDTH 486 0
DWIDTH 27 0
BBX 27 36 1 -9
BITMAP
0003F000
001FFE00
007FFF80
00FFFFC0
01FFFFC0
03FFFFE0
03FE1FE0
07F80FE0
07F007E0
0FE007E0
0FE007E0
0FC007E0
1FC00FE0
1FC00FE0
1FC00FE0
1FE01FC0
0FE03FC0
0FF07F80
0FF0FF00
07FFFE00
07FFFC00
03FFF800
01FFE000
00FFC000
003FE000
001FF000
000FF000
0007F000
0007F000
0007F000
3C0FF000
3FFFF000
7FFFE000
7FFFC000
FFFF8000
1FFE0000
ENDCHAR
STARTCHAR 018E
ENCODING 398
SWIDTH 486 0
DWIDTH 27 0
BBX 29 34 2 0
BITMAP
00FFFFF8
00FFFFF8
00FFFFF8
00FFFFF0
01FFFFF0
000007F0
000007F0
000007F0
00000FE0
00000FE0
00000FE0
00000FE0
00001FC0
01FFFFC0
01FFFFC0
03FFFFC0
03FFFF80
03FFFF80
03FFFF80
00003F80
00003F00
00007F00
00007F00
00007F00
00007E00
0000FE00
0000FE00
0000FE00
7FFFFC00
7FFFFC00
FFFFFC00
FFFFFC00
FFFFF800
FFFFF800
ENDCHAR
STARTCHAR 018F
ENCODING 399
SWIDTH 486 0
DWIDTH 27 0
BBX 26 36 4 -1
BITMAP
00FFE000
07FFF800
07FFFC00
07FFFE00
07FFFF00
07FFFF80
0600FF80
00003F80
00001FC0
00001FC0
00001FC0
00001FC0
00001FC0
00001FC0
00001FC0
00001FC0
FFFFFFC0
FFFFFF80
FFFFFF80
FFFFFF80
FFFFFF80
FC003F80
FC003F00
FC007F00
FC007F00
FC00FE00
FC00FE00
FC01FC00
FE03FC00
FE0FF800
7FFFF000
7FFFE000
3FFFC000
1FFF8000
0FFE0000
01F00000
ENDCHAR
STARTCHAR 0190
ENCODING 400
SWIDTH 486 0
DWIDTH 27 0
BBX 28 36 4 -1
BITMAP
0003FF00
001FFFE0
007FFFF0
00FFFFF0
01FFFFE0
03FFFFC0
03FC00C0
07F80000
07F00000
07F00000
07F00000
07F00000
07F00000
03F80000
03FFFC00
01FFF800
00FFF800
03FFF800
0FFFF800
1FFFF000
3FE00000
7F800000
7F000000
FE000000
FE000000
FE000000
FE000000
FE000000
FF000C00
FFC0FC00
7FFFFC00
7FFFFC00
3FFFFE00
1FFFFE00
07FFF000
007D0000
ENDCHAR
STARTCHAR 0191
ENCODING 401
SWIDTH 486 0
DWIDTH 27 0
BBX 36 43 -4 -9
BITMAP
0001FFFFF0
0001FFFFF0
0001FFFFF0
0003FFFFF0
0003FFFFE0
0003F80000
0003F80000
0007F00000
0007F00000
0007F00000
0007F00000
0007E00000
000FE00000
000FE00000
000FFFFE00
000FFFFE00
001FFFFE00
001FFFFC00
001FFFFC00
001FC00000
003F800000
003F800000
003F800000
003F800000
007F000000
007F000000
007F000000
007F000000
00FE000000
00FE000000
00FE000000
00FE000000
00FC000000
01FC000000
01FC000000
01FC000000
03F8000000
7FF8000000
7FF0000000
7FF0000000
FFE0000000
FFC0000000
FF00000000
ENDCHAR
STARTCHAR 0192
ENCODING 402
SWIDTH 486 0
DWIDTH 27 0
BBX 35 48 -2 -9
BITMAP
0000000800
000001FFC0
000007FFE0
00000FFFC0
00001FFFC0
00003FFF80
00007FC380
00007F0000
00007F0000
0000FE0000
0000FE0000
0000FE0000
0000FC0000
003FFFFF00
003FFFFE00
007FFFFE00
007FFFFE00
007FFFFE00
007FFFFC00
0003F80000
0003F80000
0003F80000
0003F00000
0007F00000
0007F00000
0007F00000
0007F00000
0007E00000
000FE00000
000FE00000
000FE00000
000FE00000
000FC00000
001FC00000
001FC00000
001FC00000
001FC00000
001F800000
003F800000
003F800000
007F800000
00FF000000
3FFF000000
7FFE000000
7FFC000000
7FFC000000
FFF0000000
7FC0000000
ENDCHAR
STARTCHAR 0193
ENCODING 403
SWIDTH 486 0
DWIDTH 27 0
BBX 32 40 4 -1
BITMAP
0000007E
000000FF
000001FF
000003FE
0007FFFE
001FFFFC
007FFFC0
00FFFFC0
01FFFF80
03FFFF80
07FC0700
07F80100
0FF00000
0FE00000
1FC00000
1FC00000
3F800000
3F800000
3F800000
7F000000
7F000000
7F003F00
7F007F00
7E007F00
FE007F00
FE007F00
FE00FE00
FE00FE00
FE00FE00
FE00FE00
FF01FC00
7F01FC00
7F81FC00
7FE1FC00
3FFFF800
3FFFF800
1FFFF800
0FFFF800
07FFE000
00FC0000
ENDCHAR
STARTCHAR 0194
ENCODING 404
SWIDTH 486 0
DWIDTH 27 0
BBX 29 43 5 -9
BITMAP
1F8001F8
1F8003F8
1F8007F0
1FC007E0
1FC00FE0
0FC00FC0
0FC01F80
0FC03F80
0FC03F00
0FC07E00
07E0FE00
07E0FC00
07E1FC00
07E3F800
07E3F000
03F7F000
03FFE000
03FFC000
03FF8000
01FF8000
01FF0000
01FE0000
01FE0000
01FC0000
01FC0000
03FC0000
07FC0000
0FFE0000
0FFE0000
1FBE0000
3FBE0000
3F3E0000
7E3F0000
7C3F0000
7C1F0000
FC1F0000
FC3F0000
FE7F0000
7FFE0000
7FFE0000
3FFC0000
3FF80000
0FE00000
ENDCHAR
STARTCHAR 0195
ENCODING 405
SWIDTH 486 0
DWIDTH 27 0
BBX 31 39 1 0
BITMAP
007C0000
00FC0000
00FC0000
00F80000
00F80000
01F80000
01F80000
01F00000
01F00000
01F00000
03F00000
03E20000
03FFC07E
03FFE07C
07FFE07C
07FFF07C
07E7F0FC
07C3F0F8
0FC3E0F8
0FC3E0F8
0F83E1F8
0F87E1F8
1F87E1F0
1F87C1F0
1F07C3F0
1F0FC3F0
3F0FC3E0
3F0F83E0
3E0F87E0
3E0F87E0
3E1F87C0
7E1F87C0
7C1F8FC0
7C1F9F80
7C1FFF80
FC0FFF00
F80FFE00
F807FC00
0000F000
ENDCHAR
STARTCHAR 0196
ENCODING 406
SWIDTH 486 0
DWIDTH 27 0
BBX 22 35 8 -1
BITMAP
7FFFFC
7FFFFC
7FFFFC
7FFFFC
FFFFF8
01FC00
03F800
03F800
03F800
03F800
07F000
07F000
07F000
07F000
0FE000
0FE000
0FE000
0FE000
1FC000
1FC000
1FC000
1FC000
1F8000
3F8000
3F8000
3F8000
3F8000
3F8000
3FE380
3FFF80
3FFFC0
1FFFC0
1FFFC0
07FF80
01F800
ENDCHAR
STARTCHAR 0197
ENCODING 407
SWIDTH 486 0
DWIDTH 27 0
BBX 30 34 2 0
BITMAP
00FFFFFC
00FFFFFC
01FFFFF8
01FFFFF8
01FFFFF8
0003F800
0003F800
0003F800
0003F000
0007F000
0007F000
0007F000
0007E000
01FFFF00
01FFFF00
01FFFF00
01FFFE00
03FFFE00
03FFFE00
001FC000
001FC000
003F8000
003F8000
003F8000
003F8000
007F0000
007F0000
007F0000
7FFFFE00
7FFFFE00
7FFFFE00
7FFFFC00
FFFFFC00
FFFFFC00
ENDCHAR
STARTCHAR 0198
ENCODING 408
SWIDTH 486 0
DWIDTH 27 0
BBX 33 35 2 0
BITMAP
0000007E00
00FE00FF00
01FC03FF80
01FC07FF80
01FC0FFF00
01FC1FFE00
01F81FCC00
03F83F8000
03F87F0000
03F8FE0000
03F1FC0000
07F3FC0000
07F7F80000
07F7F00000
07EFE00000
0FFFC00000
0FFF800000
0FFF800000
0FFFC00000
1FDFC00000
1FDFE00000
1FCFF00000
1FC7F00000
3F87F80000
3F83F80000
3F83FC0000
3F81FC0000
7F01FC0000
7F00FE0000
7F00FE0000
7F00FE0000
7E007F0000
FE007F0000
FE007F0000
FE007F8000
ENDCHAR
STARTCHAR 0199
ENCODING 409
SWIDTH 486 0
DWIDTH 27 0
BBX 28 39 3 0
BITMAP
00004000
000FF800
001FF800
003FF800
007FF000
007FF000
00FF0000
00FE0000
01FC0000
01FC0000
01FC0000
01FC0000
03F80000
03F80FF0
03F81FE0
03F83FC0
07F07F80
07F07F00
07F0FE00
07F3FC00
0FE7F800
0FEFF000
0FFFE000
0FFFC000
1FFF8000
1FFF8000
1FFF8000
1FDFC000
1F9FE000
3F8FE000
3F8FF000
3F87F000
3F07F800
7F03F800
7F03FC00
7F01FC00
7E01FC00
FE00FE00
FE00FE00
ENDCHAR
STARTCHAR 019A
ENCODING 410
SWIDTH 486 0
DWIDTH 27 0
BBX 23 40 5 -1
BITMAP
07FFE0
07FFE0
07FFE0
0FFFC0
0FFFC0
0FFFC0
001FC0
001F80
003F80
003F80
003F80
003F80
007F00
007F00
007F00
007F00
007E00
7FFFFE
7FFFFC
7FFFFC
FFFFFC
FFFFFC
01FC00
01FC00
01F800
03F800
03F800
03F800
03F000
07F000
07F000
07F000
07F800
07FC78
07FFF8
03FFF8
03FFF8
01FFF8
00FFE0
000C00
ENDCHAR
STARTCHAR 019B
ENCODING 411
SWIDTH 486 0
DWIDTH 27 0
BBX 27 38 8 1
BITMAP
00FF8000
00FFC000
00FFE000
00FFF0E0
00FFF7E0
0007FFE0
0003FFE0
000FFF80
007FFC00
00FFFC00
00FFFC00
0079FC00
0041FC00
0003FC00
0007FC00
0007FE00
000FFE00
001FFE00
001FFE00
003FFE00
007F7E00
007E7E00
00FE7F00
01FC7F00
01FC7F00
03F87F00
07F07F00
07F07F00
0FE07F00
0FE07F00
1FC07F00
1FC07F00
3F807F00
3F807F00
7F807F80
7F007F80
FF007F80
FE007F80
ENDCHAR
STARTCHAR 019C
ENCODING 412
SWIDTH 486 0
DWIDTH 27 0
BBX 31 35 2 -1
BITMAP
03F0003E
03F0007E
03E0007E
03E0007E
07E0007C
07E0007C
07C000FC
07C000FC
0FC000F8
0FC000F8
0F8001F8
0F8001F8
1F8001F0
1F87C1F0
1F07C3F0
1F0FC3F0
3F0FC3E0
3F0F83E0
3E0F87E0
3E0F87E0
7E1F87E0
7E1F07C0
7E1F0FC0
7C1F0FC0
7C3F0FC0
FC3F0F80
FC3E0F80
FC3E1F80
FC3F1F80
FFFFFF00
FFFFFF00
7FFFFF00
7FFFFF00
3FCFFE00
0601C000
ENDCHAR
STARTCHAR 019D
ENCODING 413
SWIDTH 486 0
DWIDTH 27 0
BBX 38 43 -6 -9
BITMAP
0000FC00FC
0000FC00FC
0001FE00FC
0001FE00FC
0001FE01F8
0001FF01F8
0003FF01F8
0003FF01F8
0003FF03F0
0003FF83F0
0007EF83F0
0007EF83F0
0007EF87E0
0007E7C7E0
000FE7C7E0
000FC7C7E0
000FC7CFC0
000FC3CFC0
000FC3EFC0
001F83EFC0
001F83EFC0
001F83FF80
001F81FF80
003F01FF80
003F01FF80
003F01FF00
003F01FF00
007E00FF00
007E00FF00
007E00FE00
007E00FE00
00FC00FE00
00FC007E00
00FC007C00
00FC000000
01F8000000
01F8000000
3FF8000000
3FF0000000
7FF0000000
7FE0000000
7FC0000000
FF00000000
ENDCHAR
STARTCHAR 019E
ENCODING 414
SWIDTH 486 0
DWIDTH 27 0
BBX 25 36 3 -9
BITMAP
00078000
03FFF800
07FFFE00
07FFFE00
07FFFF00
07FFFF00
0FE0FF80
0FE07F80
0FE07F80
0FC03F80
1FC03F00
1FC07F00
1FC07F00
1FC07F00
3F807F00
3F80FE00
3F80FE00
3F80FE00
7F00FE00
7F01FC00
7F01FC00
7F01FC00
7E01FC00
FE03F800
FE03F800
FE03F800
FC03F800
0003F000
0007F000
0007F000
0007F000
0007E000
000FE000
000FE000
000FE000
000FC000
ENDCHAR
STARTCHAR 019F
ENCODING 415
SWIDTH 486 0
DWIDTH 27 0
BBX 26 36 4 -1
BITMAP
000FF000
003FFC00
00FFFE00
01FFFF00
03FFFF80
03FFFF80
07F83FC0
0FF01FC0
0FE01FC0
1FC01FC0
1FC01FC0
3F801FC0
3F801FC0
3F801FC0
7F001FC0
7FFFFFC0
7FFFFFC0
7FFFFF80
FFFFFF80
FFFFFF80
FFFFFF80
FE003F00
FE007F00
FE007F00
FE00FE00
FE00FE00
FE01FE00
FE03FC00
FF07F800
FF8FF800
7FFFF000
7FFFE000
3FFFC000
1FFF8000
0FFE0000
01F00000
ENDCHAR
STARTCHAR 01A0
ENCODING 416
SWIDTH 486 0
DWIDTH 27 0
BBX 29 41 4 -1
BITMAP
000001F8
000001F8
000001F8
000001F8
000003F8
000FE3F0
003FFFF0
00FFFFE0
01FFFFC0
03FFFF80
07FFFF00
07F87F00
0FE03F80
1FE03F80
1FC03F80
1F803F80
3F803F80
3F803F80
7F003F80
7F003F80
7F003F80
7E003F80
FE003F00
FE007F00
FE007F00
FE007F00
FE007E00
FE00FE00
FE00FE00
FE01FC00
FE01FC00
FE03FC00
FE03F800
FE07F000
FF9FF000
7FFFE000
7FFFC000
3FFF8000
1FFF0000
0FFC0000
01E00000
ENDCHAR
STARTCHAR 01A1
ENCODING 417
SWIDTH 486 0
DWIDTH 27 0
BBX 28 32 4 -1
BITMAP
000003F0
000003F0
000003F0
000007F0
000F07E0
007FEFE0
01FFFFC0
03FFFF80
0FFFFF80
0FFFFE00
1FE1FE00
3FC0FE00
3F80FE00
7F00FE00
7F00FE00
7E00FE00
FE00FE00
FE00FE00
FE00FE00
FC00FC00
FC01FC00
FC01FC00
FE03F800
FE03F800
FE07F000
FF1FF000
FFFFE000
7FFFC000
7FFF8000
3FFF0000
1FFC0000
03C00000
ENDCHAR
STARTCHAR 01A2
ENCODING 418
SWIDTH 486 0
DWIDTH 27 0
BBX 28 36 3 -1
BITMAP
003F0FC0
007FBFE0
00FFFFF0
01FFFFF0
03FFFFF0
07E7F3F0
07C3E1F0
0FC3E1F0
0F83E1F0
0F83E1F0
1F03E1F0
1F03E3F0
3F03E3E0
3E07E3E0
3E07C3E0
3E07C7E0
7E07C7C0
7C07C7C0
7C0FC7C0
7C0F87C0
7C0F8F80
FC0F8F80
F81F8F80
F81F0F80
F81F1F00
F83F1F00
F83E1F00
F83E1F00
F87C3F00
F8FC3E00
FDF83E00
FFF83E00
7FF07E00
7FE07C00
3FC07C00
0F000000
ENDCHAR
STARTCHAR 01A3
ENCODING 419
SWIDTH 486 0
DWIDTH 27 0
BBX 27 36 3 -9
BITMAP
00780C00
01FE7F80
03FFFFC0
07FFFFE0
0FFFFFE0
1FDFEFE0
1F0FC7E0
3F0FC7E0
3E07C7E0
3E07C7C0
7C0F87C0
7C0F87C0
7C0F87C0
F80F8FC0
F80F8F80
F80F8F80
F81F0F80
F81F1F80
F81F1F00
F83E1F00
F83E1F00
F87E3F00
FFFC3E00
FFF83E00
7FF03E00
7FE03E00
3FC07C00
06007C00
00007C00
00007C00
0000F800
0000F800
0000F800
0000F800
0001F000
0001F000
ENDCHAR
STARTCHAR 01A4
ENCODING 420
SWIDTH 486 0
DWIDTH 27 0
BBX 26 35 5 0
BITMAP
001FE000
03FFFC00
0FFFFF00
1FFFFF80
3FFFFF80
7FFF7FC0
7E7E1FC0
7C7E0FC0
FC7E0FC0
F87E0FC0
F8FC0FC0
E0FC0FC0
00FC0FC0
00FC1FC0
01F81F80
01F83F80
01F83F80
01F8FF00
03FFFE00
03FFFC00
03FFF800
03FFF000
03FFC000
07E00000
07E00000
07E00000
07E00000
0FC00000
0FC00000
0FC00000
0FC00000
1F800000
1F800000
1F800000
1F800000
ENDCHAR
STARTCHAR 01A5
ENCODING 421
SWIDTH 486 0
DWIDTH 27 0
BBX 28 48 0 -9
BITMAP
00001000
0003FE00
0007FE00
000FFE00
001FFC00
001FFC00
003FC000
003F8000
007F0000
007F0000
007F0000
007F0000
00FE7800
00FFFF00
00FFFF80
00FFFFC0
01FFFFE0
01FFFFE0
01FC1FF0
01FC07F0
01F807F0
03F807F0
03F807F0
03F807F0
03F007F0
07F007F0
07F007F0
07F00FE0
07F00FE0
0FE01FE0
0FE01FC0
0FE03FC0
0FE0FF80
1FC7FF80
1FFFFF00
1FFFFE00
1FFFFC00
3FFFF000
3FFFC000
3FB40000
3F800000
7F000000
7F000000
7F000000
7F000000
7E000000
FE000000
FE000000
ENDCHAR
STARTCHAR 01A6
ENCODING 422
SWIDTH 486 0
DWIDTH 27 0
BBX 28 44 2 -5
BITMAP
007F0000
007F0000
007E0000
00FE0000
00FFF000
00FFFE00
00FFFF80
01FFFFC0
01FFFFC0
01FFFFE0
01F81FE0
03F80FE0
03F807F0
03F807F0
03F807F0
03F007E0
07F00FE0
07F00FE0
07F01FC0
07E03FC0
0FE1FF80
0FFFFF80
0FFFFF00
0FFFFC00
1FFFF000
1FFFE000
1FC7F000
1F87F000
3F83F800
3F83F800
3F81F800
3F01FC00
7F00FC00
7F00FC00
7F00FE00
7E007E00
FE007E00
FE007F00
FE007F00
00003F00
00003F80
00003F80
00003F80
00001F80
ENDCHAR
STARTCHAR 01A7
ENCODING 423
SWIDTH 486 0
DWIDTH 27 0
BBX 27 36 3 -1
BITMAP
000FFC00
007FFF00
01FFFF80
01FFFFC0
01FFFFE0
00FFFFE0
00C00FE0
00000FE0
000007E0
00000FE0
00000FE0
00001FE0
00003FC0
0000FFC0
0007FF80
003FFF00
00FFFE00
03FFF800
07FFE000
1FFF8000
1FFC0000
3FF00000
7FC00000
7F800000
7F000000
7E000000
FE000000
FF000000
7F000400
7FC03C00
7FFFFC00
3FFFFC00
3FFFFE00
1FFFFE00
07FFF800
003C0000
ENDCHAR
STARTCHAR 01A8
ENCODING 424
SWIDTH 486 0
DWIDTH 27 0
BBX 23 28 4 -1
BITMAP
001F80
03FFF0
07FFFC
07FFFC
07FFFE
07FFFE
0600FE
00007E
0000FE
0000FE
0003FE
001FFC
00FFF8
07FFF0
1FFFE0
3FFF00
7FF800
7FC000
FF0000
FE0000
FE0000
FE0070
FFFFF0
FFFFF0
7FFFF0
3FFFF0
0FFFE0
01FC00
ENDCHAR
STARTCHAR 01A9
ENCODING 425
SWIDTH 486 0
DWIDTH 27 0
BBX 32 34 1 0
BITMAP
00FFFFFF
00FFFFFF
00FFFFFE
00FFFFFE
00FFFFFE
007F0000
007F0000
003F8000
003F8000
001FC000
000FC000
000FE000
0007F000
0007F000
0003F800
0001F800
0001FC00
0003FC00
0007F800
000FF000
001FE000
003FC000
00FF8000
01FE0000
03FC0000
07F80000
0FF00000
1FE00000
3FFFFF80
7FFFFF80
7FFFFF80
7FFFFF80
FFFFFF00
FFFFFF00
ENDCHAR
STARTCHAR 01AA
ENCODING 426
SWIDTH 486 0
DWIDTH 27 0
BBX 18 48 8 -9
BITMAP
00F800
07FE00
0FFF00
1FFF80
3FFF80
7F1FC0
7C1FC0
FC1FC0
FC1FC0
F81FC0
FC1FC0
FEFFC0
FFFF80
7FFF80
7FFF80
3FFF80
0F7F00
007F00
007F00
007F00
00FE00
00FE00
00FE00
00FE00
00FC00
01FC00
01FC00
01FC00
01F800
03F800
03F800
03F800
03F000
07F000
07F000
07F000
07E000
0FE000
0FE000
0FE000
0FE000
0FF000
0FFF80
0FFF80
07FF00
07FF00
03FF00
01FF00
ENDCHAR
STARTCHAR 01AB
ENCODING 427
SWIDTH 486 0
DWIDTH 27 0
BBX 25 43 5 -9
BITMAP
00010000
007F0000
007F0000
007F0000
00FE0000
00FE0000
00FE0000
00FE0000
3FFFFF80
7FFFFF80
7FFFFF00
7FFFFF00
7FFFFF00
FFFFFF00
03F80000
03F80000
03F00000
07F00000
07F00000
07F00000
07F00000
0FE00000
0FE00000
0FE00000
0FE00000
0FE00000
1FC00000
1FE00000
0FF8F800
0FFFF800
0FFFF800
07FFF800
03FFF000
01FFF000
0003F000
0003F000
0003F000
0007E000
00FFE000
01FFC000
01FFC000
01FF8000
03FE0000
ENDCHAR
STARTCHAR 01AC
ENCODING 428
SWIDTH 486 0
DWIDTH 27 0
BBX 29 34 5 0
BITMAP
03FFFFF8
0FFFFFF0
1FFFFFF0
3FFFFFF0
7FFFFFF0
7F0FE000
7E0FE000
7C0FC000
7C1FC000
FC1FC000
601FC000
001F8000
003F8000
003F8000
003F8000
003F0000
007F0000
007F0000
007F0000
007F0000
00FE0000
00FE0000
00FE0000
00FE0000
01FC0000
01FC0000
01FC0000
01FC0000
03F80000
03F80000
03F80000
03F80000
03F00000
07F00000
ENDCHAR
STARTCHAR 01AD
ENCODING 429
SWIDTH 486 0
DWIDTH 27 0
BBX 28 40 5 -1
BITMAP
00000800
0001FFE0
0007FFF0
000FFFE0
001FFFE0
003FFFC0
003FE3C0
007F8000
007F0000
00FE0000
00FE0000
00FE0000
00FE0000
3FFFFF80
7FFFFF80
7FFFFF00
7FFFFF00
7FFFFF00
FFFFFF00
03F80000
03F80000
03F00000
07F00000
07F00000
07F00000
07F00000
0FE00000
0FE00000
0FE00000
0FE00000
0FE00000
1FC00000
1FE00000
0FF8F000
0FFFF000
0FFFF800
07FFF800
07FFF800
01FFE000
00180000
ENDCHAR
STARTCHAR 01AE
ENCODING 430
SWIDTH 486 0
DWIDTH 27 0
BBX 26 43 7 -9
BITMAP
7FFFFFC0
7FFFFFC0
7FFFFFC0
7FFFFFC0
FFFFFF80
007F0000
007F0000
007F0000
00FE0000
00FE0000
00FE0000
00FE0000
01FC0000
01FC0000
01FC0000
01FC0000
03F80000
03F80000
03F80000
03F80000
03F00000
07F00000
07F00000
07F00000
07E00000
0FE00000
0FE00000
0FE00000
0FE00000
1FC00000
1FC00000
1FC00000
1FC00000
3F800000
3F800000
3F800000
3F800000
3FFC0000
3FFC0000
3FFC0000
1FFC0000
0FFC0000
07FC0000
ENDCHAR
STARTCHAR 01AF
ENCODING 431
SWIDTH 486 0
DWIDTH 27 0
BBX 33 41 4 -1
BITMAP
0000001F80
0000001F80
0000001F80
0000001F00
0000003F00
000001FE00
07F01FFE00
07F01FFC00
07E01FF000
07E01F8000
0FE03F8000
0FE03F8000
0FC03F0000
0FC03F0000
1FC07F0000
1FC07F0000
1F807E0000
1F807E0000
3F80FE0000
3F80FE0000
3F00FC0000
3F00FC0000
7F00FC0000
7F01FC0000
7E01F80000
7E01F80000
7E01F80000
FE03F80000
FC03F00000
FC03F00000
FC07F00000
FC07F00000
FC07E00000
FC0FE00000
FE1FE00000
FFFFC00000
FFFF800000
7FFF800000
3FFF000000
1FFC000000
07E0000000
ENDCHAR
STARTCHAR 01B0
ENCODING 432
SWIDTH 486 0
DWIDTH 27 0
BBX 31 32 3 -1
BITMAP
0000007E
0000007C
000000FC
000000FC
000003F8
0FC07FF8
0FC07FF0
0FC07FC0
1FC07E00
1F80FE00
1F80FC00
1F80FC00
3F80FC00
3F81FC00
3F01F800
3F01F800
7F01F800
7F03F800
7E03F000
7E03F000
7E03F000
FE07F000
FE07F000
FE07F000
FE0FF000
FF1FF000
7FFFF000
7FFFF000
7FFFF000
3FFBF000
1FF3F800
03000000
ENDCHAR
STARTCHAR 01B1
ENCODING 433
SWIDTH 486 0
DWIDTH 27 0
BBX 31 35 3 -1
BITMAP
07FF1FFE
07FF1FFE
0FFF1FFC
0FFF3FFC
0FFE3FFC
00FC1F80
01F81F80
03F80FC0
03F00FC0
07E00FC0
0FE00FC0
0FC00FE0
1FC00FE0
1F800FE0
3F800FE0
3F000FE0
3F000FE0
7F000FE0
7F000FC0
7E000FC0
7E001FC0
FE001FC0
FE001FC0
FE003F80
FE003F80
FE007F00
7F00FF00
7F01FE00
7FC7FE00
7FFFFC00
3FFFF800
1FFFF000
0FFFE000
07FF8000
00F80000
ENDCHAR
STARTCHAR 01B2
ENCODING 434
SWIDTH 486 0
DWIDTH 27 0
BBX 26 36 4 -1
BITMAP
00007800
07F0FE00
07F1FF00
07F1FF80
07F1FF80
0FE1FFC0
0FE03FC0
0FE01FC0
0FE01FC0
0FC01FC0
1FC01FC0
1FC01FC0
1FC01FC0
1F801FC0
3F801FC0
3F801FC0
3F801FC0
3F003F80
7F003F80
7F003F80
7F003F80
7F007F00
FE007F00
FE00FF00
FE00FE00
FE01FE00
FE01FC00
FE03FC00
FE07F800
FF1FF000
FFFFE000
7FFFE000
7FFF8000
3FFF0000
1FFC0000
03F00000
ENDCHAR
STARTCHAR 01B3
ENCODING 435
SWIDTH 486 0
DWIDTH 27 0
BBX 28 35 7 0
BITMAP
00000FC0
FE001FE0
7E003FF0
7E007FF0
7E00FFE0
7F01FFC0
7F01FD80
7F03F800
3F03F000
3F07E000
3F07E000
3F0FC000
3F9F8000
1F9F8000
1FBF0000
1FBF0000
1FFE0000
0FFC0000
0FFC0000
0FF80000
0FF80000
07F00000
07E00000
0FE00000
0FE00000
0FE00000
0FE00000
1FC00000
1FC00000
1FC00000
1FC00000
3F800000
3F800000
3F800000
3F800000
ENDCHAR
STARTCHAR 01B4
ENCODING 436
SWIDTH 486 0
DWIDTH 27 0
BBX 34 35 -2 -8
BITMAP
00FE003FC0
00FE00FFC0
00FE00FFC0
00FE01FF80
007E03FF80
007E03FD80
007E07F000
007E07E000
007E07E000
007F0FE000
007F0FC000
007F1FC000
007F1F8000
007F3F8000
003F3F0000
003F3F0000
003F7E0000
003F7E0000
003FFC0000
003FFC0000
001FFC0000
001FF80000
001FF80000
001FF00000
001FF00000
000FE00000
001FC00000
003FC00000
007F800000
3FFF000000
7FFE000000
7FFC000000
7FF8000000
FFE0000000
FF80000000
ENDCHAR
STARTCHAR 01B5
ENCODING 437
SWIDTH 486 0
DWIDTH 27 0
BBX 30 34 2 0
BITMAP
00FFFFFC
00FFFFF8
00FFFFF8
01FFFFF8
01FFFFF8
000007F0
00000FE0
00001FC0
00003F80
00007F00
0000FF00
0001FE00
0003FC00
0003F800
07FFFFC0
0FFFFFC0
0FFFFFC0
0FFFFFC0
0FFFFF80
007F0000
00FE0000
01FC0000
03F80000
07F00000
07F00000
0FE00000
1FC00000
3F800000
7FFFFE00
7FFFFE00
FFFFFE00
FFFFFE00
FFFFFC00
FFFFFC00
ENDCHAR
STARTCHAR 01B6
ENCODING 438
SWIDTH 486 0
DWIDTH 27 0
BBX 26 26 3 0
BITMAP
03FFFFC0
03FFFFC0
03FFFFC0
07FFFFC0
07FFFF80
07FFFF00
0001FE00
0003FC00
0007F800
000FF000
001FE000
0FFFFE00
0FFFFE00
0FFFFE00
0FFFFC00
03FC0000
07F80000
07F00000
0FE00000
1FC00000
3FFFFC00
7FFFFC00
7FFFF800
FFFFF800
FFFFF800
FFFFF800
ENDCHAR
STARTCHAR 01B7
ENCODING 439
SWIDTH 486 0
DWIDTH 27 0
BBX 30 35 2 -1
BITMAP
00FFFFFC
00FFFFF8
00FFFFF8
00FFFFF8
00FFFFF0
00000FE0
00001FC0
00003F80
00007F00
0000FE00
0001FC00
0003F800
0007F000
000FE000
001FF000
001FFC00
003FFE00
003FFF00
0001FF00
00007F80
00003F80
00003F80
00003F80
00003F80
00003F80
00007F80
00007F00
3000FF00
3E03FF00
7FFFFE00
7FFFFC00
FFFFF800
FFFFF000
1FFFC000
03FE0000
ENDCHAR
STARTCHAR 01B8
ENCODING 440
SWIDTH 486 0
DWIDTH 27 0
BBX 28 35 4 -1
BITMAP
01FFFFF0
01FFFFF0
01FFFFF0
01FFFFF0
01FFFFE0
00FE0000
00FE0000
007F0000
007F0000
003F8000
001F8000
001FC000
000FE000
000FE000
003FF000
01FFF000
07FFE000
0FFFE000
1FFC0000
3FE00000
3F800000
7F000000
7F000000
7F000000
FE000000
FF000000
FF000000
7F000400
7FC03C00
7FFFFC00
3FFFFC00
1FFFFC00
0FFFFC00
07FFF800
007F8000
ENDCHAR
STARTCHAR 01B9
ENCODING 441
SWIDTH 486 0
DWIDTH 27 0
BBX 27 35 3 -9
BITMAP
01FFFFE0
01FFFFE0
01FFFFE0
01FFFFE0
01FFFFC0
01FFFFC0
00FC0000
00FE0000
007F0000
007F0000
003F8000
001F8000
001FC000
000FE000
003FE000
01FFE000
07FFE000
0FFFE000
1FFF0000
3FE00000
7F800000
7F000000
FE000000
FE000000
FE000000
FE000000
FE000000
FF000000
FF801800
7FFFF800
7FFFF800
3FFFF800
1FFFF800
0FFFF000
01FF8000
ENDCHAR
STARTCHAR 01BA
ENCODING 442
SWIDTH 486 0
DWIDTH 27 0
BBX 29 35 0 -9
BITMAP
007FFFF8
007FFFF8
00FFFFF0
00FFFFF0
00FFFFF0
00FFFFE0
00003F80
00007F00
0000FE00
0003FC00
0007F000
000FE000
001FE000
001FFC00
003FFE00
003FFF00
0000FF00
00007F80
00003F80
00003F80
00003F80
00007F80
0001FF00
001FFF00
01FFFE00
0FFFFC00
1FFFF800
7FFFC000
7FFC0000
FFC00000
FE000000
FC000000
FC000000
FC000000
F8000000
ENDCHAR
STARTCHAR 01BB
ENCODING 443
SWIDTH 486 0
DWIDTH 27 0
BBX 27 35 3 0
BITMAP
0007FC00
003FFF00
00FFFF80
01FFFF80
01FFFFC0
01FFFFC0
00F01FC0
00C01FE0
00000FE0
00001FC0
00001FC0
00001FC0
00003F80
00007F80
0000FF00
0001FE00
07FFFFC0
07FFFFC0
07FFFFC0
07FFFF80
0FFFFF80
00FF0000
01FE0000
07FC0000
0FF80000
0FE00000
1FC00000
3FC00000
3F800000
7FFFFE00
7FFFFE00
FFFFFE00
FFFFFC00
FFFFFC00
FFFFFC00
ENDCHAR
STARTCHAR 01BC
ENCODING 444
SWIDTH 486 0
DWIDTH 27 0
BBX 29 35 3 -1
BITMAP
03FFFFF8
03FFFFF0
03FFFFF0
07FFFFF0
07FFFFE0
007F0000
007E0000
007E0000
00FE0000
00FC0000
00FC0000
01FC0000
01F80000
01FFC000
03FFF000
03FFFC00
03FFFE00
000FFE00
0001FF00
0000FF00
00007F00
00007F00
00007F00
00007F00
00007F00
00007F00
0000FF00
2001FE00
3C03FE00
7FFFFC00
7FFFFC00
FFFFF800
FFFFE000
7FFF8000
07FC0000
ENDCHAR
STARTCHAR 01BD
ENCODING 445
SWIDTH 486 0
DWIDTH 27 0
BBX 25 27 4 -1
BITMAP
07FFFF80
07FFFF00
0FFFFF00
0FFFFF00
0FFFFF00
1FFFFE00
01F80000
03F80000
03F00000
03F00000
07FF8000
07FFE000
07FFF000
0FFFF800
000FF800
0003FC00
0001FC00
0001FC00
0001FC00
0003F800
780FF800
7FFFF800
7FFFF000
FFFFE000
FFFFC000
FFFF0000
0FF00000
ENDCHAR
STARTCHAR 01BE
ENCODING 446
SWIDTH 486 0
DWIDTH 27 0
BBX 24 35 5 -1
BITMAP
000100
007F00
007F00
007F00
00FE00
00FE00
00FE00
00FE00
3FFFFF
3FFFFF
3FFFFF
3FFFFF
7FFFFE
7FFFFE
03F800
03F800
03F800
03F800
03FE00
03FF80
03FFE0
01FFF0
007FF8
001FF8
0007FC
0003FC
0001FC
6003F8
7C07F8
FFFFF8
FFFFF0
FFFFE0
FFFFC0
3FFF00
03F800
ENDCHAR
STARTCHAR 01BF
ENCODING 447
SWIDTH 486 0
DWIDTH 27 0
BBX 28 36 0 -9
BITMAP
0000F800
001FFF00
00FFFFC0
00FFFFC0
01FFFFE0
01FFFFE0
01FFFFF0
01FC1FF0
03FC0FF0
03FC07F0
03F807F0
03F807F0
07F80FF0
07F80FF0
07F00FE0
07F01FE0
0FF01FE0
0FF03FC0
0FE07FC0
0FE0FF80
1FE1FF00
1FE7FF00
1FDFFE00
1FFFFC00
1FFFF000
3FFFE000
3FFF8000
3FFE0000
3FF80000
7F800000
7F000000
7F000000
7F000000
FF000000
FF000000
FE000000
ENDCHAR
STARTCHAR 01C0
ENCODING 448
SWIDTH 486 0
DWIDTH 27 0
BBX 18 48 7 -9
BITMAP
001FC0
001FC0
001FC0
001FC0
003F80
003F80
003F80
003F80
007F00
007F00
007F00
007F00
007E00
00FE00
00FE00
00FE00
00FC00
01FC00
01FC00
01FC00
01F800
03F800
03F800
03F800
03F800
07F000
07F000
07F000
07F000
0FE000
0FE000
0FE000
0FE000
1FC000
1FC000
1FC000
1FC000
3F8000
3F8000
3F8000
3F8000
3F0000
7F0000
7F0000
7F0000
7E0000
FE0000
FE0000
ENDCHAR
STARTCHAR 01C1
ENCODING 449
SWIDTH 486 0
DWIDTH 27 0
BBX 29 48 2 -9
BITMAP
001FC3F8
001FC3F8
001FC3F8
003F87F0
003F87F0
003F87F0
003F87F0
003F0FE0
007F0FE0
007F0FE0
007F0FE0
007E1FC0
00FE1FC0
00FE1FC0
00FE1FC0
00FC1F80
01FC3F80
01FC3F80
01FC3F80
01FC3F00
03F87F00
03F87F00
03F87F00
03F87E00
07F0FE00
07F0FE00
07F0FE00
07F0FE00
0FE1FC00
0FE1FC00
0FE1FC00
0FE1FC00
0FC3F800
1FC3F800
1FC3F800
1FC3F800
1F87F000
3F87F000
3F87F000
3F87F000
3F07E000
7F0FE000
7F0FE000
7F0FE000
7F0FC000
FE1FC000
FE1FC000
FE1FC000
ENDCHAR
STARTCHAR 01C2
ENCODING 450
SWIDTH 486 0
DWIDTH 27 0
BBX 29 48 2 -9
BITMAP
00007E00
0000FE00
0000FE00
0000FE00
0000FE00
0001FC00
0001FC00
0001FC00
0001FC00
0003F800
0003F800
0003F800
0003F800
0007F000
0007F000
0007F000
0FFFFFF8
1FFFFFF8
1FFFFFF0
1FFFFFF0
1FFFFFF0
1FFFFFF0
001FC000
001FC000
001FC000
001F8000
7FFFFFC0
7FFFFFC0
7FFFFFC0
7FFFFFC0
FFFFFF80
FFFFFF80
007F0000
007F0000
00FE0000
00FE0000
00FE0000
00FE0000
01FC0000
01FC0000
01FC0000
01FC0000
01F80000
03F80000
03F80000
03F80000
03F00000
07F00000
ENDCHAR
STARTCHAR 01C3
ENCODING 451
SWIDTH 486 0
DWIDTH 27 0
BBX 16 35 9 -1
BITMAP
00FF
01FE
01FE
01FE
01FE
03FC
03FC
03FC
03FC
07F8
07F8
07F8
07F8
07F0
0FF0
0FF0
0FE0
0FE0
0FE0
0FC0
0FC0
0F80
0000
0000
0000
0400
3F00
7F80
7F80
FF80
FF80
FF80
7F00
7E00
1800
ENDCHAR
STARTCHAR 01C4
ENCODING 452
SWIDTH 486 0
DWIDTH 27 0
BBX 38 45 0 0
BITMAP
0000001008
000000383C
0000007C7C
0000003FF8
0000001FE0
0000000FC0
0000000700
0000000600
0000000000
0000000000
003F000000
00FFC0FFE0
00FFE0FFE0
00FFF0FFC0
00FFF0FFC0
01F1F1FFC0
01F1F00F80
01F0F80F80
01F0F81F00
03E0F81E00
03E0F83E00
03E0F83C00
03E0F07C00
03C0F07800
07C1F0F800
07C1F0F000
07C1F1F000
0781F1E000
0F81F3E000
0F83E3C000
0F83E7C000
0F03E78000
1F07CF8000
1F07CF0000
1F07DF0000
1F0F9E0000
3E0FBE0000
3E1F3C0000
3E3F3C0000
3E7E7C0000
7FFC7FF000
7FF8FFF000
7FF0FFE000
7FE0FFE000
FF80FFE000
ENDCHAR
STARTCHAR 01C5
ENCODING 453
SWIDTH 486 0
DWIDTH 27 0
BBX 35 37 0 0
BITMAP
0000000040
00000060C0
003F00F3E0
00FFC07FE0
00FFE03F80
00FFF03F00
00FFF01C00
01F1F00800
01F1F00000
01F0F80000
01F0F80000
03E0F9FF80
03E0F9FF80
03E0FBFF80
03E0F3FF00
03C0F3FF00
07C1F01F00
07C1F03E00
07C1F07C00
0781F07C00
0F81F0F800
0F83E0F000
0F83E1F000
0F03E3E000
1F07C3E000
1F07C7C000
1F07C7C000
1F0F8F8000
3E0F8F0000
3E1F1F0000
3E3F1E0000
3E7E3E0000
7FFC3FF000
7FF87FF000
7FF07FF000
7FE07FE000
FF80FFE000
ENDCHAR
STARTCHAR 01C6
ENCODING 454
SWIDTH 486 0
DWIDTH 27 0
BBX 34 39 2 0
BITMAP
0000F80000
0001F00000
0001F0C380
0001F1E7C0
0001F1FF80
0003E0FF00
0003E07C00
0003E03800
0003E00000
0003C00000
0007C00000
0067C00000
01FFC7FE00
07FF87FE00
07FF8FFE00
0FFF8FFC00
1FFF8FFC00
1F0F007C00
3E1F00F800
3E1F01F000
3C1F01F000
7C1F03E000
7C3E03C000
7C3E07C000
F83E0F8000
F83E0F8000
F87C1F0000
F87C1F0000
F07C3E0000
F07C3C0000
F0F87C0000
F0F8780000
F8F8F80000
FDF8FFC000
FFF1FFC000
FFF1FFC000
7FF1FF8000
3FE3FF8000
0E00000000
ENDCHAR
STARTCHAR 01C7
ENCODING 455
SWIDTH 486 0
DWIDTH 27 0
BBX 34 35 0 -1
BITMAP
00F80007C0
00F0000F80
01F0000F80
01F0000F80
01F0000F80
01E0000F00
03E0001F00
03E0001F00
03E0001F00
03E0001E00
07C0003E00
07C0003E00
07C0003E00
07C0003C00
0F80007C00
0F80007C00
0F80007C00
0F80007C00
0F0000F800
1F0000F800
1F0000F800
1F0000F800
1E0001F000
3E0001F000
3E0001F000
3E0001F000
3C0003E000
7C0003E000
7C0007E000
7FFC1FC000
7FFCFFC000
FFF8FF8000
FFF8FF0000
FFF9FC0000
0001E00000
ENDCHAR
STARTCHAR 01C8
ENCODING 456
SWIDTH 486 0
DWIDTH 27 0
BBX 32 46 1 -9
BITMAP
0000000E
0000003F
0000007F
00F8007F
00F000FF
01F000FE
01F0007E
01F00038
01E00000
03E00000
03E00000
03E000F8
03C000F8
07C000F8
07C001F0
07C001F0
07C001F0
0F8001F0
0F8003E0
0F8003E0
0F8003E0
1F0003E0
1F0003C0
1F0007C0
1F0007C0
3E0007C0
3E000780
3E000F80
3E000F80
3C000F80
7C000F80
7C001F00
7FFE1F00
7FFE1F00
FFFE1F00
FFFE3E00
FFFC3E00
00003E00
00007C00
00007C00
0000FC00
003FF800
007FF800
007FF000
007FE000
007F8000
ENDCHAR
STARTCHAR 01C9
ENCODING 457
SWIDTH 486 0
DWIDTH 27 0
BBX 29 47 5 -8
BITMAP
01F00000
01F000E0
03E001F0
03E003F8
03E007F8
03E007F0
07C007F0
07C007E0
07C00180
07C00000
07800000
0F800000
0F8007C0
0F800780
0F000F80
1F000F80
1F000F80
1F000F80
1F001F00
3E001F00
3E001F00
3E001F00
3E003E00
7C003E00
7C003E00
7C003E00
7C007C00
F8007C00
F8007C00
F8007C00
F8007800
F800F800
FC00F800
FE00F800
FF80F000
FF81F000
7F81F000
1F01F000
0001E000
0003E000
0003E000
0007C000
03DFC000
03FF8000
03FF0000
07FE0000
03FC0000
ENDCHAR
STARTCHAR 01CA
ENCODING 458
SWIDTH 486 0
DWIDTH 27 0
BBX 34 35 0 -1
BITMAP
00F07C07C0
00F07C0F80
01F07C0F80
01F0F80F80
01F0F80F80
01F0F80F00
03F0F81F00
03F0F01F00
03F1F01F00
03F1F01E00
07F1F03E00
07F1E03E00
07F3E03E00
07F3E03C00
0FBBE07C00
0FBBC07C00
0FBFC07C00
0FBFC07C00
0F3FC0F800
1F3FC0F800
1F3F80F800
1F3F80F800
1E3F81F000
3E3F81F000
3E3F01F000
3E3F01F000
3E3F03E000
7C3F03E000
7C3E07E000
7C3E0FC000
7C3E7FC000
F83E7F8000
F83CFF0000
F83CFE0000
0000E00000
ENDCHAR
STARTCHAR 01CB
ENCODING 459
SWIDTH 486 0
DWIDTH 27 0
BBX 33 46 0 -9
BITMAP
0000000700
0000001F80
0000003F80
00F83E3F80
00F87C7F80
00F87C3F00
00F87C3F00
01F87C1C00
01F8F80000
01F8F80000
01F8F80000
03F8F87C00
03F8F07C00
03F9F07C00
03F9F07C00
07F9F0F800
07F9E0F800
07FBE0F800
07FBE0F800
07BBE1F000
0FBBE1F000
0FBFC1F000
0FBFC1F000
0F3FC3E000
1F3FC3E000
1F3F83E000
1F3F83E000
1E3F87C000
3E3F87C000
3E3F07C000
3E3F07C000
3E3F078000
7C3F0F8000
7C3E0F8000
7C3E0F8000
7C3E0F0000
F83E1F0000
00001F0000
00001F0000
00003E0000
00007E0000
001FFC0000
003FFC0000
003FF80000
003FF00000
003FC00000
ENDCHAR
STARTCHAR 01CC
ENCODING 460
SWIDTH 486 0
DWIDTH 27 0
BBX 34 46 0 -9
BITMAP
0000000380
0000000FC0
0000001FC0
0000001FC0
0000001FC0
0000001FC0
0000001F80
0000000E00
0000000000
0000000000
0007000000
01FFE03E00
03FFF03E00
03FFF03E00
03FFF83E00
07C1F87C00
07C0F87C00
07C0F87C00
07C0F87C00
0F80F0F800
0F81F0F800
0F81F0F800
0F81F0F800
1F01F0F000
1F03E1F000
1F03E1F000
1F03E1F000
1E03E1E000
3E07C3E000
3E07C3E000
3E07C3E000
3C07C3C000
7C0787C000
7C0F87C000
7C0F87C000
780F87C000
F80F0F8000
00000F8000
00000F8000
00001F0000
00003F0000
000FFE0000
001FFE0000
001FFC0000
001FF80000
001FE00000
ENDCHAR
STARTCHAR 01CD
ENCODING 461
SWIDTH 486 0
DWIDTH 27 0
BBX 30 46 0 0
BITMAP
00006010
0000F078
0001F8FC
0000FFF8
00007FF0
00007FE0
00003F80
00001F00
00000E00
00000400
00000000
00000000
00007F80
0000FF80
0000FF80
0001FF80
0003FF80
0003FF80
0007EF80
0007EF80
000FCF80
000FCFC0
001F8FC0
001F8FC0
003F0FC0
003F0FC0
007E0FC0
007E0FC0
00FC0FC0
00FC0FC0
01F80FC0
01F80FC0
03FFFFC0
03FFFFC0
07FFFFC0
07FFFFC0
0FFFFFC0
0FFFFFC0
1FC00FC0
1F800FC0
3F800FC0
3F000FC0
7F000FC0
7F000FC0
FE000FC0
FE000FC0
ENDCHAR
STARTCHAR 01CE
ENCODING 462
SWIDTH 486 0
DWIDTH 27 0
BBX 26 39 4 -1
BITMAP
00060300
000F0780
001F9FC0
000FFF80
0007FE00
0003FC00
0003F800
0001F000
0000C000
00000000
00000000
0007E000
003FFE00
00FFFF80
03FFFF80
07FFFF80
0FFFFF00
1FF07F00
3FE07F00
3F807F00
7F807E00
7F00FE00
FE00FE00
FE00FE00
FE00FC00
FE01FC00
FC01FC00
FC01FC00
FC01F800
FC01F800
FE03F800
FE07F800
FF0FF800
FFFFF800
7FFFFC00
7FFFFC00
3FFEFC00
1FF8FC00
03C00000
ENDCHAR
STARTCHAR 01CF
ENCODING 463
SWIDTH 486 0
DWIDTH 27 0
BBX 30 46 2 0
BITMAP
00018040
0003C0E0
0007E3F0
0003F7F0
0001FFC0
0000FF80
00007F00
00007C00
00003800
00001000
00000000
00000000
00FFFFFC
00FFFFFC
01FFFFF8
01FFFFF8
01FFFFF8
0003F800
0003F800
0003F800
0003F000
0007F000
0007F000
0007F000
0007F000
000FE000
000FE000
000FE000
000FE000
001FC000
001FC000
001FC000
001FC000
003F8000
003F8000
003F8000
003F8000
007F0000
007F0000
007F0000
7FFFFE00
7FFFFE00
7FFFFE00
7FFFFC00
FFFFFC00
FFFFFC00
ENDCHAR
STARTCHAR 01D0
ENCODING 464
SWIDTH 486 0
DWIDTH 27 0
BBX 21 39 6 -1
BITMAP
00C060
01E0F0
03F3F8
01FFF0
00FFC0
007F80
007F00
003E00
001800
000000
000000
000000
7FFE00
7FFE00
7FFE00
7FFE00
FFFE00
FFFC00
01FC00
01FC00
01FC00
03F800
03F800
03F800
03F800
03F000
07F000
07F000
07F000
07F000
07F000
07F000
07F8E0
07FFE0
07FFE0
03FFE0
03FFE0
01FFE0
001C00
ENDCHAR
STARTCHAR 01D1
ENCODING 465
SWIDTH 486 0
DWIDTH 27 0
BBX 26 47 4 -1
BITMAP
00020080
000703C0
000FC7C0
0007FFC0
0007FF80
0003FE00
0001FC00
0000F800
00007000
00004000
00000000
000FF000
003FFC00
00FFFE00
01FFFF00
03FFFF80
07FFFF80
07F83F80
0FF01FC0
0FE01FC0
1FC01FC0
1FC01FC0
3F801FC0
3F801FC0
3F001FC0
7F001FC0
7F001FC0
7F001FC0
FE003F80
FE003F80
FE003F80
FE003F80
FE007F00
FE007F00
FE007F00
FE00FE00
FE00FE00
FE01FC00
FE03FC00
FE07F800
FF9FF800
7FFFF000
7FFFE000
3FFFC000
1FFF8000
0FFE0000
01F00000
ENDCHAR
STARTCHAR 01D2
ENCODING 466
SWIDTH 486 0
DWIDTH 27 0
BBX 25 39 4 -1
BITMAP
000C0600
003E0F00
003F3F80
001FFF00
000FFC00
000FF800
0007F000
0003E000
00018000
00000000
00000000
000F8000
007FF000
01FFF800
03FFFC00
07FFFE00
0FFFFE00
1FF1FF00
3FC0FF00
3F807F00
7F007F00
7F007F00
7E007F00
FE007F00
FE007F00
FE007F00
FC007E00
FC00FE00
FE00FE00
FE01FC00
FE03FC00
FE07F800
FF8FF800
FFFFF000
7FFFE000
7FFFC000
3FFF8000
0FFE0000
03E00000
ENDCHAR
STARTCHAR 01D3
ENCODING 467
SWIDTH 486 0
DWIDTH 27 0
BBX 28 47 4 -1
BITMAP
00020100
000F0380
001F8FC0
000FDFC0
0007FF00
0003FE00
0001FC00
0001F000
0000E000
00004000
00000000
00000000
07F007F0
07F007F0
07F007E0
07E00FE0
0FE00FE0
0FE00FE0
0FE00FC0
0FC01FC0
1FC01FC0
1FC01FC0
1FC01FC0
1F803F80
3F803F80
3F803F80
3F803F80
3F807F00
7F007F00
7F007F00
7F007F00
7F00FE00
FE00FE00
FE00FE00
FE00FE00
FE01FC00
FE01FC00
FE01FC00
FE03F800
FE03F800
FF0FF800
FFFFF000
7FFFE000
7FFFE000
3FFF8000
1FFF0000
01F00000
ENDCHAR
STARTCHAR 01D4
ENCODING 468
SWIDTH 486 0
DWIDTH 27 0
BBX 25 39 4 -1
BITMAP
00180600
003C1E00
003E3F00
003FFE00
001FFC00
000FF800
0007E000
0003C000
00038000
00010000
00000000
00000000
0FE03F80
0FE03F80
1FC03F80
1FC07F00
1FC07F00
1FC07F00
3F807F00
3F807E00
3F80FE00
3F80FE00
3F00FE00
7F00FC00
7F01FC00
7F01FC00
7E01FC00
FE01F800
FE03F800
FE03F800
FE03F800
FE07F800
FF9FF800
7FFFF800
7FFFF800
7FFFFC00
3FFDFC00
1FF8FC00
03800000
ENDCHAR
STARTCHAR 01D5
ENCODING 469
SWIDTH 486 0
DWIDTH 27 0
BBX 27 47 4 -1
BITMAP
0007FFC0
0007FFC0
000FFF80
000FFF80
00000000
000E0700
001F0F80
003F1F80
003F1F80
003F1F80
001E0F00
00080000
00000000
00000000
07F007E0
07E00FE0
0FE00FE0
0FE00FE0
0FE00FE0
0FC01FC0
1FC01FC0
1FC01FC0
1FC01FC0
1FC03F80
3F803F80
3F803F80
3F803F80
3F807F00
7F007F00
7F007F00
7F007F00
7F00FE00
FE00FE00
FE00FE00
FE00FE00
FE01FC00
FE01FC00
FE01FC00
FE03F800
FE03F800
FF0FF800
FFFFF000
7FFFE000
7FFFE000
3FFF8000
1FFF0000
01F00000
ENDCHAR
STARTCHAR 01D6
ENCODING 470
SWIDTH 486 0
DWIDTH 27 0
BBX 25 42 4 -1
BITMAP
001FFF00
001FFF00
001FFF00
001FFE00
00000000
00000000
007C1E00
007C3E00
00FC7F00
00FC7E00
007C3E00
00701C00
00000000
00000000
00000000
0FE03F80
0FE03F80
1FC03F80
1FC07F00
1FC07F00
1FC07F00
3F807F00
3F807E00
3F80FE00
3F80FE00
3F00FE00
7F00FC00
7F01FC00
7F01FC00
7E01FC00
FE01F800
FE03F800
FE03F800
FE03F800
FE07F800
FF9FF800
7FFFF800
7FFFF800
7FFFFC00
3FFDFC00
1FF8FC00
03800000
ENDCHAR
STARTCHAR 01D7
ENCODING 471
SWIDTH 486 0
DWIDTH 27 0
BBX 28 47 4 -1
BITMAP
00003000
00003800
00007C00
0000FC00
0038F9C0
00FDF3E0
00FCE7E0
00FC07E0
00FC07E0
007803C0
00000000
00000000
00000000
07F007F0
07F007E0
07E00FE0
0FE00FE0
0FE00FE0
0FE00FC0
0FC01FC0
1FC01FC0
1FC01FC0
1FC01FC0
1F803F80
3F803F80
3F803F80
3F803F80
3F807F00
7F007F00
7F007F00
7F007F00
7F00FE00
FE00FE00
FE00FE00
FE00FE00
FE01FC00
FE01FC00
FE01FC00
FE03F800
FE03F800
FF0FF800
FFFFF000
7FFFE000
7FFFE000
3FFF8000
1FFF0000
01F00000
ENDCHAR
STARTCHAR 01D8
ENCODING 472
SWIDTH 486 0
DWIDTH 27 0
BBX 26 45 4 -1
BITMAP
00001000
00003800
00003E00
00007E00
0000FC00
0000FC00
0001F800
0003F000
0023E100
00F8C7C0
01F80FC0
01F80FC0
01F80FC0
01F00780
00600300
00000000
00000000
00000000
0FE03F80
0FE03F80
1FC03F80
1FC07F00
1FC07F00
1FC07F00
3F807F00
3F807E00
3F80FE00
3F80FE00
3F00FE00
7F00FC00
7F01FC00
7F01FC00
7E01FC00
FE01F800
FE03F800
FE03F800
FE03F800
FE07F800
FF9FF800
7FFFF800
7FFFF800
7FFFFC00
3FFDFC00
1FF8FC00
03800000
ENDCHAR
STARTCHAR 01D9
ENCODING 473
SWIDTH 486 0
DWIDTH 27 0
BBX 28 47 4 -1
BITMAP
00008C00
0001DC00
0003FE00
0001FC00
0039F9E0
007CF3E0
00FE43F0
00FE03F0
007C03E0
007803C0
00000000
00000000
00000000
07F007F0
07F007E0
07E00FE0
0FE00FE0
0FE00FE0
0FE00FC0
0FC01FC0
1FC01FC0
1FC01FC0
1FC01FC0
1F803F80
3F803F80
3F803F80
3F803F80
3F807F00
7F007F00
7F007F00
7F007F00
7F00FE00
FE00FE00
FE00FE00
FE00FE00
FE01FC00
FE01FC00
FE01FC00
FE03F800
FE03F800
FF0FF800
FFFFF000
7FFFE000
7FFFE000
3FFF8000
1FFF0000
01F00000
ENDCHAR
STARTCHAR 01DA
ENCODING 474
SWIDTH 486 0
DWIDTH 27 0
BBX 26 43 4 0
BITMAP
000E0600
001F1F00
001FBF00
000FFE00
0007F800
0003F000
0023E100
00F9C7C0
01F80FC0
01F80FC0
01F80FC0
01F00780
00600300
00000000
00000000
00000000
0FE03F80
0FE03F80
1FC03F80
1FC07F00
1FC07F00
1FC07F00
3F807F00
3F807E00
3F80FE00
3F80FE00
3F00FE00
7F00FC00
7F01FC00
7F01FC00
7E01FC00
FE01F800
FE03F800
FE03F800
FE03F800
FE07F800
FF9FF800
7FFFF800
7FFFF800
7FFFFC00
3FFDFC00
1FF8FC00
03800000
ENDCHAR
STARTCHAR 01DB
ENCODING 475
SWIDTH 486 0
DWIDTH 27 0
BBX 28 47 4 -1
BITMAP
0000C000
0001C000
0003E000
0003F000
0039F1E0
007CFBE0
00FC73F0
00FC07F0
00FC03E0
007803C0
00000000
00000000
00000000
07F007F0
07F007E0
07E00FE0
0FE00FE0
0FE00FE0
0FE00FC0
0FC01FC0
1FC01FC0
1FC01FC0
1FC01FC0
1F803F80
3F803F80
3F803F80
3F803F80
3F807F00
7F007F00
7F007F00
7F007F00
7F00FE00
FE00FE00
FE00FE00
FE00FE00
FE01FC00
FE01FC00
FE01FC00
FE03F800
FE03F800
FF0FF800
FFFFF000
7FFFE000
7FFFE000
3FFF8000
1FFF0000
01F00000
ENDCHAR
STARTCHAR 01DC
ENCODING 476
SWIDTH 486 0
DWIDTH 27 0
BBX 25 45 4 -1
BITMAP
00020000
000F0000
003F0000
001F0000
001F8000
000F8000
00078000
0007C000
0043C200
01F18F80
03F01F80
03F01F80
03F01F80
03E00F00
00C00600
00000000
00000000
00000000
0FE03F80
0FE03F80
1FC03F80
1FC07F00
1FC07F00
1FC07F00
3F807F00
3F807E00
3F80FE00
3F80FE00
3F00FE00
7F00FC00
7F01FC00
7F01FC00
7E01FC00
FE01F800
FE03F800
FE03F800
FE03F800
FE07F800
FF9FF800
7FFFF800
7FFFF800
7FFFFC00
3FFDFC00
1FF8FC00
03800000
ENDCHAR
STARTCHAR 01DD
ENCODING 477
SWIDTH 486 0
DWIDTH 27 0
BBX 25 28 3 -1
BITMAP
007F0000
07FFE000
0FFFF800
0FFFFC00
0FFFFE00
0FFFFF00
0C01FF00
00007F00
00003F00
00003F80
0007FF80
00FFFF80
07FFFF80
1FFFFF80
3FFFFF00
7FF03F00
7F003F00
FE007F00
FE007E00
FC00FE00
FE01FC00
FE07F800
FFFFF800
7FFFF000
7FFFC000
3FFF8000
1FFE0000
00C00000
ENDCHAR
STARTCHAR 01DE
ENCODING 478
SWIDTH 486 0
DWIDTH 27 0
BBX 30 46 0 0
BITMAP
00007FFC
0000FFF8
0000FFF8
0000FFF8
00000000
0000C060
0003E0F8
0003F1F8
0003F1F8
0003E1F8
0003E1F0
00008040
00000000
00000000
0000FF00
0000FF00
0001FF00
0001FF80
0003FF80
0007FF80
0007FF80
000FDF80
000FDF80
001F9F80
001F8F80
003F0FC0
007F0FC0
007E0FC0
00FE0FC0
00FC0FC0
01FC0FC0
01F80FC0
03F80FC0
03F80FC0
07FFFFC0
07FFFFC0
0FFFFFC0
0FFFFFC0
1FFFFFC0
1FC00FC0
3F800FC0
3F800FC0
7F000FC0
7F000FC0
FE000FC0
FE000FC0
ENDCHAR
STARTCHAR 01DF
ENCODING 479
SWIDTH 486 0
DWIDTH 27 0
BBX 26 42 4 -1
BITMAP
0007FFC0
000FFF80
000FFF80
000FFF80
00000000
00000000
001E0F00
003F1F80
003F1F80
003F1F80
003E1F00
001C0E00
00000000
00000000
0007E000
003FFE00
00FFFF80
03FFFF80
07FFFF80
0FFFFF00
1FF07F00
3FE07F00
3F807F00
7F807E00
7F00FE00
FE00FE00
FE00FE00
FE00FC00
FE01FC00
FC01FC00
FC01FC00
FC01F800
FC01F800
FE03F800
FE07F800
FF0FF800
FFFFF800
7FFFFC00
7FFFFC00
3FFEFC00
1FF8FC00
03C00000
ENDCHAR
STARTCHAR 01E0
ENCODING 480
SWIDTH 486 0
DWIDTH 27 0
BBX 30 46 0 0
BITMAP
00007FFC
00007FF8
0000FFF8
0000FFF8
00000000
00000E00
00001F00
00003F00
00003F00
00003F00
00001E00
00000000
00000000
00000000
0000FF00
0000FF00
0001FF00
0001FF80
0003FF80
0007FF80
0007FF80
000FDF80
000FDF80
001F9F80
001F8F80
003F0FC0
007F0FC0
007E0FC0
00FE0FC0
00FC0FC0
01FC0FC0
01F80FC0
03F80FC0
03F80FC0
07FFFFC0
07FFFFC0
0FFFFFC0
0FFFFFC0
1FFFFFC0
1FC00FC0
3F800FC0
3F800FC0
7F000FC0
7F000FC0
FE000FC0
FE000FC0
ENDCHAR
STARTCHAR 01E1
ENCODING 481
SWIDTH 486 0
DWIDTH 27 0
BBX 26 42 4 -1
BITMAP
0007FFC0
0007FF80
000FFF80
000FFF80
00000000
00000000
0001F000
0001F000
0003F000
0003F000
0003F000
0001E000
00000000
00000000
0007E000
003FFE00
00FFFF80
03FFFF80
07FFFF80
0FFFFF00
1FF07F00
3FE07F00
3F807F00
7F807E00
7F00FE00
FE00FE00
FE00FE00
FE00FC00
FE01FC00
FC01FC00
FC01FC00
FC01F800
FC01F800
FE03F800
FE07F800
FF0FF800
FFFFF800
7FFFFC00
7FFFFC00
3FFEFC00
1FF8FC00
03C00000
ENDCHAR
STARTCHAR 01E2
ENCODING 482
SWIDTH 486 0
DWIDTH 27 0
BBX 36 44 0 0
BITMAP
00000FFFF0
00000FFFF0
00001FFFE0
00001FFFE0
00001FFFE0
0000000000
0000000000
0000000000
0000000000
0000000000
00007FFF80
00007FFF80
0000FFFF80
0001FFFF80
0001FFFF00
0003FFC000
0007EFC000
0007DFC000
000FDF8000
000F9F8000
001F9F8000
001F1F8000
003F3F0000
003E3FF800
007E3FF800
00FC3FF800
00FC7FF000
01F87FF000
01F87FF000
03F87E0000
03FFFC0000
07FFFC0000
07FFFC0000
0FFFFC0000
0FFFF80000
1FFFF80000
1F81F80000
3F81F80000
3F03FFE000
7F03FFE000
7F03FFE000
FE03FFE000
FE03FFE000
FC07FFC000
ENDCHAR
STARTCHAR 01E3
ENCODING 483
SWIDTH 486 0
DWIDTH 27 0
BBX 28 37 2 -1
BITMAP
001FFFE0
001FFFE0
001FFFE0
001FFFE0
003FFFE0
00000000
00000000
00000000
00000000
03E00780
0FF81FE0
1FFC3FE0
1FFE7FF0
0FFEFFF0
0E7FF9F0
001FE1F0
001FE1F0
000FC1F0
000FC1F0
003F83E0
03FF87E0
0FFF8FC0
1FFFFFC0
3FFFFF80
7F1FFE00
7C1FF800
FC3F8000
F83F0000
F83F0000
F87F8000
F8FF8000
F9FFE700
FFF7FF00
FFE7FF00
7FC3FF80
7F81FF00
0C007800
ENDCHAR
STARTCHAR 01E4
ENCODING 484
SWIDTH 486 0
DWIDTH 27 0
BBX 27 36 4 -1
BITMAP
0003FE00
000FFFC0
003FFFE0
007FFFC0
01FFFFC0
01FFFF80
03FE0380
07F80000
0FF00000
0FE00000
1FE00000
1FC00000
3F800000
3F800000
3F800000
7F000000
7F007F00
7F007F00
7F007F00
7E07FFC0
FE0FFFC0
FE0FFF80
FE0FFF80
FE0FFF80
FE0FFF80
FE01FC00
FF01FC00
7F01F800
7F81F800
7FC3F800
3FFFF800
3FFFF000
1FFFF000
0FFFF000
07FFE000
00FC0000
ENDCHAR
STARTCHAR 01E5
ENCODING 485
SWIDTH 486 0
DWIDTH 27 0
BBX 30 36 0 -9
BITMAP
00003C00
0003FFF0
000FFFF0
003FFFF0
007FFFF0
00FFFFF0
01FF07F0
01FC0FE0
03F80FE0
07F80FE0
07F0FFFC
07F0FFFC
07E0FFFC
0FE0FFFC
0FE1FFF8
0FE01F80
0FE03F80
0FE03F80
0FF03F80
07F9FF00
07FFFF00
07FFFF00
03FFFF00
01FFFF00
00FEFE00
0000FE00
0000FE00
0001FC00
0001FC00
3003F800
3FFFF800
7FFFF000
7FFFE000
FFFFC000
7FFF8000
1FFE0000
ENDCHAR
STARTCHAR 01E6
ENCODING 486
SWIDTH 486 0
DWIDTH 27 0
BBX 28 47 4 -1
BITMAP
00018040
0003C0E0
0007E3F0
0003F7F0
0001FFC0
0000FF80
00007F00
00007C00
00003800
00001000
00000000
0003FF00
000FFFC0
003FFFF0
007FFFE0
00FFFFE0
01FFFFC0
03FE01C0
07FC0000
0FF00000
0FE00000
1FE00000
1FC00000
3FC00000
3F800000
3F800000
7F000000
7F000000
7F003F00
7F007F00
7E007F00
FE007F00
FE007F00
FE00FE00
FE00FE00
FE00FE00
FE00FE00
FF01FC00
7F01FC00
7F81FC00
7FE1FC00
3FFFF800
3FFFF800
1FFFF800
0FFFF800
07FFE000
00FC0000
ENDCHAR
STARTCHAR 01E7
ENCODING 487
SWIDTH 486 0
DWIDTH 27 0
BBX 31 47 0 -9
BITMAP
0000300C
0000783C
00007C7E
00007FFC
00003FF8
00001FF0
00000FC0
00000780
00000700
00000200
00000000
00003E00
0003FFF0
000FFFF8
003FFFF8
007FFFF8
00FFFFF8
01FF03F8
01FE07F0
03FC07F0
03F807F0
07F007F0
07F00FE0
07E00FE0
0FE00FE0
0FE00FE0
0FE00FC0
0FE01FC0
0FE01FC0
0FF01FC0
07F8FF80
07FFFF80
07FFFF80
03FFFF80
01FFFF00
00FF7F00
00007F00
00007F00
0000FE00
0000FE00
3003FC00
3FFFFC00
7FFFF800
7FFFF000
FFFFE000
7FFFC000
1FFF0000
ENDCHAR
STARTCHAR 01E8
ENCODING 488
SWIDTH 486 0
DWIDTH 27 0
BBX 31 46 2 0
BITMAP
00010040
0003C1E0
0007E3E0
0003FFE0
0003FFC0
0001FF80
0000FE00
00007C00
00003800
00000000
00000000
00000000
00FE01FE
01FC03FC
01FC03F8
01FC07F8
01FC0FF0
01F81FE0
03F83FC0
03F83F80
03F87F00
03F0FE00
07F1FE00
07F3FC00
07F7F800
07EFF000
0FFFE000
0FFF8000
0FFF8000
0FFFC000
1FDFC000
1FDFE000
1FCFF000
1FC7F000
3F87F800
3F83F800
3F83FC00
3F81FC00
3F01FC00
7F00FE00
7F00FE00
7F00FF00
7E007F00
FE007F00
FE007F00
FE007F80
ENDCHAR
STARTCHAR 01E9
ENCODING 489
SWIDTH 486 0
DWIDTH 27 0
BBX 28 46 3 0
BITMAP
00080400
001C1E00
003F7E00
001FFC00
000FF800
0007F000
0003C000
00018000
00000000
00000000
00000000
001E0000
00FE0000
00FE0000
00FC0000
01FC0000
01FC0000
01FC0000
01F80000
03F80000
03F80FF0
03F81FE0
03F83FC0
07F07F80
07F07F00
07F0FE00
07F3FC00
0FE7F800
0FEFF000
0FFFE000
0FFFC000
1FFF8000
1FFF8000
1FFF8000
1FDFC000
1F9FE000
3F8FE000
3F8FF000
3F87F000
3F07F800
7F03F800
7F03FC00
7F01FC00
7E01FC00
FE00FE00
FE00FE00
ENDCHAR
STARTCHAR 01EA
ENCODING 490
SWIDTH 486 0
DWIDTH 27 0
BBX 26 44 4 -9
BITMAP
000FF000
003FFC00
00FFFE00
01FFFF00
03FFFF80
07FFFF80
07F83F80
0FF01FC0
0FE01FC0
1FC01FC0
1FC01FC0
3F801FC0
3F801FC0
3F001FC0
7F001FC0
7F001FC0
7F001F80
FE003F80
FE003F80
FE003F80
FE003F80
FE007F00
FE007F00
FE007F00
FE00FE00
FE00FE00
FE01FC00
FE03FC00
FE07F800
FF9FF000
7FFFF000
7FFFE000
3FFFC000
1FFF8000
0FFE0000
01F80000
03F00000
0FC00000
1FC00000
1F800000
3FD80000
3FF80000
1FF80000
1FF80000
ENDCHAR
STARTCHAR 01EB
ENCODING 491
SWIDTH 486 0
DWIDTH 27 0
BBX 24 36 4 -9
BITMAP
000F80
007FF0
01FFF8
03FFFC
07FFFE
0FFFFE
1FF1FF
3FC0FF
3F807F
7F007F
7F007F
7E007F
FE007F
FE007F
FE007F
FC007E
FC00FE
FE00FE
FE01FC
FE03FC
FE07F8
FF8FF8
FFFFF0
7FFFE0
7FFFC0
3FFF80
0FFE00
03FC00
03F000
07E000
0FC000
1FC000
1FC800
1FF800
1FF800
0FF800
ENDCHAR
STARTCHAR 01EC
ENCODING 492
SWIDTH 486 0
DWIDTH 27 0
BBX 27 53 4 -9
BITMAP
001FFFE0
001FFFE0
001FFFE0
003FFFC0
003FFFC0
00000000
00000000
00000000
00000000
000FF000
003FFC00
00FFFE00
01FFFF00
03FFFF80
07FFFF80
07F83F80
0FF01FC0
0FE01FC0
1FC01FC0
1FC01FC0
3F801FC0
3F801FC0
3F001FC0
7F001FC0
7F001FC0
7F001F80
FE003F80
FE003F80
FE003F80
FE003F80
FE007F00
FE007F00
FE007F00
FE00FE00
FE00FE00
FE01FC00
FE03FC00
FE07F800
FF9FF000
7FFFF000
7FFFE000
3FFFC000
1FFF8000
0FFE0000
01F80000
03F00000
0FC00000
1FC00000
1F800000
3FD80000
3FF80000
1FF80000
1FF80000
ENDCHAR
STARTCHAR 01ED
ENCODING 493
SWIDTH 486 0
DWIDTH 27 0
BBX 26 45 4 -9
BITMAP
003FFFC0
003FFFC0
007FFF80
007FFF80
007FFF80
00000000
00000000
00000000
00000000
000F8000
007FF000
01FFF800
03FFFC00
07FFFE00
0FFFFE00
1FF1FF00
3FC0FF00
3F807F00
7F007F00
7F007F00
7E007F00
FE007F00
FE007F00
FE007F00
FC007E00
FC00FE00
FE00FE00
FE01FC00
FE03FC00
FE07F800
FF8FF800
FFFFF000
7FFFE000
7FFFC000
3FFF8000
0FFE0000
03FC0000
03F00000
07E00000
0FC00000
1FC00000
1FC80000
1FF80000
1FF80000
0FF80000
ENDCHAR
STARTCHAR 01EE
ENCODING 494
SWIDTH 486 0
DWIDTH 27 0
BBX 30 47 2 -1
BITMAP
00008040
0003C0E0
0007E3F0
0003F7F0
0001FFC0
0000FF80
00007F00
00007C00
00003800
00001000
00000000
00000000
00FFFFFC
00FFFFF8
00FFFFF8
00FFFFF8
00FFFFF0
00000FE0
00001FC0
00003F80
00007F00
0000FE00
0001FC00
0003F800
0007F000
000FE000
001FF000
001FFC00
003FFE00
003FFF00
0001FF00
00007F80
00003F80
00003F80
00003F80
00003F80
00003F80
00007F80
00007F00
3000FF00
3E03FF00
7FFFFE00
7FFFFC00
FFFFF800
FFFFF000
1FFFC000
03FE0000
ENDCHAR
STARTCHAR 01EF
ENCODING 495
SWIDTH 486 0
DWIDTH 27 0
BBX 29 47 0 -9
BITMAP
0000C060
0003E0F0
0003F3F8
0001FFF0
0000FFC0
0000FF80
00007F00
00003E00
00001800
00000000
00000000
00000000
00FFFFF8
00FFFFF0
00FFFFF0
01FFFFF0
01FFFFE0
01FFFFC0
00001F80
00003F00
0000FE00
0001FC00
0003F800
0007F000
000FE000
001FC000
003FC000
003FF000
003FF800
007FFC00
000FFE00
0001FF00
0000FF00
00007F00
00007F00
00007F00
00007F00
00007F00
0000FF00
0001FE00
3003FE00
3FFFFC00
7FFFF800
7FFFF000
FFFFE000
7FFF8000
0FFE0000
ENDCHAR
STARTCHAR 01F0
ENCODING 496
SWIDTH 486 0
DWIDTH 27 0
BBX 28 47 0 -9
BITMAP
000180C0
0003C1E0
0007E7F0
0003FFE0
0001FFC0
0000FF00
00007E00
00007C00
00003800
00000000
00000000
00000000
007FFFC0
007FFFC0
00FFFFC0
00FFFF80
00FFFF80
00FFFF80
00003F80
00003F80
00007F00
00007F00
00007F00
00007F00
0000FE00
0000FE00
0000FE00
0000FE00
0001FC00
0001FC00
0001FC00
0001FC00
0001F800
0003F800
0003F800
0003F800
0003F000
0007F000
0007F000
000FF000
301FE000
7FFFE000
7FFFC000
FFFFC000
FFFF8000
FFFF0000
1FFC0000
ENDCHAR
STARTCHAR 01F1
ENCODING 497
SWIDTH 486 0
DWIDTH 27 0
BBX 35 35 0 0
BITMAP
003F000000
00FFC0FFE0
00FFE0FFE0
00FFF0FFC0
00FFF0FFC0
01F1F1FFC0
01F1F00F80
01F0F80F80
01F0F81F00
03E0F81E00
03E0F83E00
03E0F83C00
03E0F07C00
03C0F07800
07C1F0F800
07C1F0F000
07C1F1F000
0781F1E000
0F81F3E000
0F83E3C000
0F83E7C000
0F03E78000
1F07CF8000
1F07CF0000
1F07DF0000
1F0F9E0000
3E0FBE0000
3E1F3C0000
3E3F3C0000
3E7E7C0000
7FFC7FF000
7FF8FFF000
7FF0FFE000
7FE0FFE000
FF80FFE000
ENDCHAR
STARTCHAR 01F2
ENCODING 498
SWIDTH 486 0
DWIDTH 27 0
BBX 33 35 0 0
BITMAP
003F000000
00FFC00000
00FFE00000
00FFF00000
00FFF00000
01F1F00000
01F1F00000
01F0F80000
01F0F80000
03E0F9FF80
03E0F9FF80
03E0FBFF80
03E0F3FF00
03C0F3FF00
07C1F01F00
07C1F03E00
07C1F07C00
0781F07C00
0F81F0F800
0F83E0F000
0F83E1F000
0F03E3E000
1F07C3E000
1F07C7C000
1F07C7C000
1F0F8F8000
3E0F8F0000
3E1F1F0000
3E3F1E0000
3E7E3E0000
7FFC3FF000
7FF87FF000
7FF07FF000
7FE07FE000
FF80FFE000
ENDCHAR
STARTCHAR 01F3
ENCODING 499
SWIDTH 486 0
DWIDTH 27 0
BBX 31 39 2 0
BITMAP
0000F800
0001F000
0001F000
0001F000
0001F000
0003E000
0003E000
0003E000
0003E000
0003C000
0007C000
0067C000
01FFC7FE
07FF87FE
07FF8FFE
0FFF8FFC
1FFF8FFC
1F0F007C
3E1F00F8
3E1F01F0
3C1F01F0
7C1F03E0
7C3E03C0
7C3E07C0
F83E0F80
F83E0F80
F87C1F00
F87C1F00
F07C3E00
F07C3C00
F0F87C00
F0F87800
F8F8F800
FDF8FFC0
FFF1FFC0
FFF1FFC0
7FF1FF80
3FE3FF80
0E000000
ENDCHAR
STARTCHAR 01F4
ENCODING 500
SWIDTH 486 0
DWIDTH 27 0
BBX 28 47 4 -1
BITMAP
00000C00
00001C00
00003E00
0000FE00
0001FF00
0003FF00
000FFC00
0007F000
0003C000
00030000
00000000
0003FF00
000FFFC0
003FFFF0
007FFFE0
00FFFFE0
01FFFFC0
03FE01C0
07FC0000
0FF00000
0FE00000
1FE00000
1FC00000
3FC00000
3F800000
3F800000
7F000000
7F000000
7F003F00
7F007F00
7E007F00
FE007F00
FE007F00
FE00FE00
FE00FE00
FE00FE00
FE00FE00
FF01FC00
7F01FC00
7F81FC00
7FE1FC00
3FFFF800
3FFFF800
1FFFF800
0FFFF800
07FFE000
00FC0000
ENDCHAR
STARTCHAR 01F5
ENCODING 501
SWIDTH 486 0
DWIDTH 27 0
BBX 29 47 0 -9
BITMAP
000000C0
000001C0
000007E0
00000FF0
00001FF0
00007FE0
00007F80
00007E00
00003C00
00001000
00000000
00003E00
0003FFF0
000FFFF8
003FFFF8
007FFFF8
00FFFFF8
01FF03F8
01FE07F0
03FC07F0
03F807F0
07F007F0
07F00FE0
07E00FE0
0FE00FE0
0FE00FE0
0FE00FC0
0FE01FC0
0FE01FC0
0FF01FC0
07F8FF80
07FFFF80
07FFFF80
03FFFF80
01FFFF00
00FF7F00
00007F00
00007F00
0000FE00
0000FE00
3003FC00
3FFFFC00
7FFFF800
7FFFF000
FFFFE000
7FFFC000
1FFF0000
ENDCHAR
STARTCHAR 01F6
ENCODING 502
SWIDTH 486 0
DWIDTH 27 0
BBX 32 35 0 -1
BITMAP
00FC3F00
00FC3F00
00F83E00
00F83E00
01F87E00
01F87E00
01F07C00
01F07C00
03F0FC3F
03F0FC3E
03E0F83E
03E0F83E
07E1F87E
07FFF87C
07FFF07C
07FFF07C
0FFFF0FC
0FFFF0FC
0FFFF0F8
0F83E0F8
0F83E1F8
1F87E1F8
1F87E1F0
1F07C1F0
1F07C3F0
3F0FC3F0
3F0FC3E0
3E0FC3E0
3E0FC7E0
7E0FCFC0
7E0FFFC0
7C07FF80
7C07FF00
FC03FE00
00007800
ENDCHAR
STARTCHAR 01F7
ENCODING 503
SWIDTH 486 0
DWIDTH 27 0
BBX 30 44 1 -9
BITMAP
0000FC00
000FFF80
003FFFE0
007FFFF0
007FFFF0
007FFFF8
007F8FF8
00FE03FC
00FE03FC
00FE01FC
00FE01FC
01FC01FC
01FC01FC
01FC01FC
01FC01F8
03F803F8
03F803F8
03F803F8
03F807F0
03F007F0
07F00FE0
07F01FE0
07F01FC0
07E03FC0
0FE07F80
0FE1FF00
0FE3FE00
0FEFFC00
1FFFF800
1FFFF000
1FFFC000
1FFF8000
3FFE0000
3FF80000
3FC00000
3F800000
7F000000
7F000000
7F000000
7F000000
7E000000
FE000000
FE000000
FE000000
ENDCHAR
STARTCHAR 01F8
ENCODING 504
SWIDTH 486 0
DWIDTH 27 0
BBX 30 46 2 0
BITMAP
00010000
0001C000
0003E000
0007F000
0007FC00
0007FE00
0001FF00
00007F00
00001E00
00000400
00000000
00000000
01FC00FC
01FC00FC
01FC00FC
01FE00FC
03FE01F8
03FE01F8
03FF01F8
03FF01F8
03FF03F0
07FF03F0
07EF83F0
07EF83F0
07EF87E0
0FCF87E0
0FC7C7E0
0FC7C7E0
0FC7CFC0
1F87CFC0
1F83EFC0
1F83EFC0
1F83FFC0
3F03FF80
3F01FF80
3F01FF80
3F01FF80
7F01FF00
7E01FF00
7E00FF00
7E00FF00
7E00FE00
FC00FE00
FC00FE00
FC00FE00
FC007C00
ENDCHAR
STARTCHAR 01F9
ENCODING 505
SWIDTH 486 0
DWIDTH 27 0
BBX 25 38 3 0
BITMAP
00060000
000F0000
000FC000
001FE000
003FF000
001FFC00
0007FC00
0001FC00
00007800
00001000
00000000
0007C000
01FFF800
07FFFE00
07FFFE00
07FFFF00
07FFFF00
0FF0FF80
0FE07F80
0FE07F80
0FE03F80
1FC03F00
1FC07F00
1FC07F00
1FC07F00
3F807F00
3F80FE00
3F80FE00
3F80FE00
7F00FE00
7F01FC00
7F01FC00
7F01FC00
7E01FC00
FE03F800
FE03F800
FE03F800
FC03F800
ENDCHAR
STARTCHAR 01FA
ENCODING 506
SWIDTH 486 0
DWIDTH 27 0
BBX 27 46 0 0
BITMAP
00000040
000001C0
000007E0
00001FE0
00003F80
00003C00
00000000
00000400
00003F80
00007FC0
0000F3C0
0000E1C0
0000E1C0
0000F1C0
0000FFC0
0000FF80
0001FF80
0001FF80
0003FF80
0003FF80
0007FF80
000FDF80
000FCF80
001F8F80
001F8FC0
003F0FC0
003F0FC0
007E0FC0
007E0FC0
00FC0FC0
01FC0FC0
01F80FC0
03F80FC0
03FFFFC0
07FFFFC0
07FFFFC0
0FFFFFC0
0FFFFFC0
1FFFFFC0
1FC00FC0
3F800FC0
3F800FC0
7F000FC0
7F000FC0
FE000FC0
FE000FC0
ENDCHAR
STARTCHAR 01FB
ENCODING 507
SWIDTH 486 0
DWIDTH 27 0
BBX 25 47 4 -1
BITMAP
00000200
00000E00
00003F00
0000FF00
0001FC00
0001E000
00000000
00002000
0001FC00
0003FE00
00079E00
00070E00
00070E00
00078E00
0003FE00
0003FC00
0000F800
00000000
00000000
0007E000
003FFE00
00FFFF80
03FFFF80
07FFFF80
0FFFFF00
1FF07F00
3FE07F00
3F807F00
7F807E00
7F00FE00
FE00FE00
FE00FE00
FE00FC00
FE01FC00
FC01FC00
FC01FC00
FC01F800
FC01F800
FE03F800
FE07F800
FF0FF800
FFFFF800
7FFFFC00
7FFFFC00
3FFEFC00
1FF8FC00
03C00000
ENDCHAR
STARTCHAR 01FC
ENCODING 508
SWIDTH 486 0
DWIDTH 27 0
BBX 33 46 0 0
BITMAP
0000000C00
0000001C00
0000003E00
000000FF00
000001FF00
000003FF00
000007FC00
000007F000
000003C000
0000010000
0000000000
0000000000
00007FFF80
00007FFF80
0000FFFF80
0001FFFF80
0001FFFF00
0003FFC000
0007EFC000
0007DFC000
000FDF8000
000F9F8000
001F9F8000
001F1F8000
003F3F0000
003E3FF800
007E3FF800
00FC3FF800
00FC7FF000
01F87FF000
01F87FF000
03F87E0000
03FFFC0000
07FFFC0000
07FFFC0000
0FFFFC0000
0FFFF80000
1FFFF80000
1F81F80000
3F81F80000
3F03FFE000
7F03FFE000
7F03FFE000
FE03FFE000
FE03FFE000
FC07FFC000
ENDCHAR
STARTCHAR 01FD
ENCODING 509
SWIDTH 486 0
DWIDTH 27 0
BBX 28 39 2 -1
BITMAP
00000600
00000E00
00003F00
00007F80
0000FF80
0003FF00
0003FC00
0003F000
0001E000
00008000
00000000
03E00780
0FF81FE0
1FFC3FE0
1FFE7FF0
0FFEFFF0
0E7FF9F0
001FE1F0
001FE1F0
000FC1F0
000FC1F0
003F83E0
03FF87E0
0FFF8FC0
1FFFFFC0
3FFFFF80
7F1FFE00
7C1FF800
FC3F8000
F83F0000
F83F0000
F87F8000
F8FF8000
F9FFE700
FFF7FF00
FFE7FF00
7FC3FF80
7F81FF00
0C007800
ENDCHAR
STARTCHAR 01FE
ENCODING 510
SWIDTH 486 0
DWIDTH 27 0
BBX 28 48 3 -2
BITMAP
00001000
00007800
0000F800
0001FC00
0007FE00
000FFC00
001FF000
000FE000
000F8000
00060000
000001C0
0007FBF0
001FFFE0
007FFFE0
00FFFFC0
01FFFFC0
03FFFFC0
03FC3FC0
07F83FE0
07F07FE0
0FE0FFE0
0FC0FFE0
1FC1FFE0
1F81FFE0
1F83EFE0
3F87EFE0
3F07CFE0
3F0F8FE0
7F1F8FC0
7F1F0FC0
7F3E1FC0
7E7E1FC0
7E7C1F80
7EF83F80
7FF83F80
7FF03F00
7FE07F00
7FE0FE00
7FC0FE00
7F81FC00
7F83FC00
3FFFF800
3FFFF000
7FFFE000
7FFFC000
FFFF0000
78F80000
30000000
ENDCHAR
STARTCHAR 01FF
ENCODING 511
SWIDTH 486 0
DWIDTH 27 0
BBX 26 40 4 -3
BITMAP
00006000
0000F000
0001F800
0007F800
000FFC00
001FF800
003FE000
001F8000
001E0000
00080000
00000300
0007E3C0
003FFFC0
00FFFF80
01FFFF00
03FFFF00
07FFFF80
0FF07F80
0FE0FF80
1FC1FF80
1F83FF80
3F87FF80
3F0FDF80
3F0F9F80
7F1F1F80
7F3E3F80
7F7E3F80
7EFC3F00
7FF83F00
7FF07F00
7FE0FE00
7FC1FE00
7F83FC00
3FFFF800
3FFFF000
3FFFE000
7FFFC000
FFFF0000
78F80000
30000000
ENDCHAR
STARTCHAR 0200
ENCODING 512
SWIDTH 486 0
DWIDTH 27 0
BBX 31 46 0 0
BITMAP
00008060
0001C0E0
0007C1F0
0007E3F0
0007E1F8
0003F0F8
0001F87C
0000F83E
00007038
00000010
00000000
00000000
00007F80
0000FF80
0000FF80
0001FF80
0003FF80
0003FF80
0007EF80
0007EF80
000FCF80
000FCFC0
001F8FC0
001F8FC0
003F0FC0
003F0FC0
007E0FC0
007E0FC0
00FC0FC0
00FC0FC0
01F80FC0
01F80FC0
03FFFFC0
03FFFFC0
07FFFFC0
07FFFFC0
0FFFFFC0
0FFFFFC0
1FC00FC0
1F800FC0
3F800FC0
3F000FC0
7F000FC0
7F000FC0
FE000FC0
FE000FC0
ENDCHAR
STARTCHAR 0201
ENCODING 513
SWIDTH 486 0
DWIDTH 27 0
BBX 26 39 4 -1
BITMAP
00100C00
00781C00
00F83E00
00FC7E00
00FC3F00
007E1F80
003F0F80
001F07C0
000E0700
00000200
00000000
0007E000
003FFE00
00FFFF80
03FFFF80
07FFFF80
0FFFFF00
1FF07F00
3FE07F00
3F807F00
7F807E00
7F00FE00
FE00FE00
FE00FE00
FE00FC00
FE01FC00
FC01FC00
FC01FC00
FC01F800
FC01F800
FE03F800
FE07F800
FF0FF800
FFFFF800
7FFFFC00
7FFFFC00
3FFEFC00
1FF8FC00
03C00000
ENDCHAR
STARTCHAR 0202
ENCODING 514
SWIDTH 486 0
DWIDTH 27 0
BBX 29 45 0 0
BITMAP
00003FC0
00007FF0
0000FFF0
0001FFF8
0003F9F8
0003F0F8
0003E0F8
0003E0F8
00000000
00000000
00000000
00007F80
0000FF80
0000FF80
0001FF80
0003FF80
0003FF80
0007EF80
0007EF80
000FCF80
000FCFC0
001F8FC0
001F8FC0
003F0FC0
003F0FC0
007E0FC0
007E0FC0
00FC0FC0
00FC0FC0
01F80FC0
01F80FC0
03FFFFC0
03FFFFC0
07FFFFC0
07FFFFC0
0FFFFFC0
0FFFFFC0
1FC00FC0
1F800FC0
3F800FC0
3F000FC0
7F000FC0
7F000FC0
FE000FC0
FE000FC0
ENDCHAR
STARTCHAR 0203
ENCODING 515
SWIDTH 486 0
DWIDTH 27 0
BBX 25 38 4 0
BITMAP
0003FC00
000FFE00
001FFF00
003FFF00
003F1F80
007E1F80
007C0F80
007C1F80
00000000
00000000
0007E000
003FFE00
00FFFF80
03FFFF80
07FFFF80
0FFFFF00
1FF07F00
3FE07F00
3F807F00
7F807E00
7F00FE00
FE00FE00
FE00FE00
FE00FC00
FE01FC00
FC01FC00
FC01FC00
FC01F800
FC01F800
FE03F800
FE07F800
FF0FF800
FFFFF800
7FFFFC00
7FFFFC00
3FFEFC00
1FF8FC00
03C00000
ENDCHAR
STARTCHAR 0204
ENCODING 516
SWIDTH 486 0
DWIDTH 27 0
BBX 29 46 3 0
BITMAP
00020180
00070380
001F07C0
001F8FC0
001F87E0
000FC3E0
0007E1F0
0003E0F8
0001C0E0
00000040
00000000
00000000
00FFFFF0
00FFFFF0
01FFFFF0
01FFFFF0
01FFFFE0
01FC0000
01F80000
03F80000
03F80000
03F80000
03F00000
07F00000
07F00000
07FFFE00
07FFFE00
0FFFFE00
0FFFFE00
0FFFFE00
0FFFFC00
1FC00000
1FC00000
1FC00000
1FC00000
3F800000
3F800000
3F800000
3F800000
7F000000
7FFFFE00
7FFFFE00
7FFFFC00
7FFFFC00
FFFFFC00
FFFFFC00
ENDCHAR
STARTCHAR 0205
ENCODING 517
SWIDTH 486 0
DWIDTH 27 0
BBX 26 39 4 -1
BITMAP
00100C00
00781C00
00F83E00
00FC7E00
00FC3F00
007E1F80
003F0F80
001F07C0
000E0700
00000200
00000000
0007C000
003FFC00
00FFFE00
03FFFF00
07FFFF00
0FFFFF80
1FF03F80
1FC03F80
3F803F80
3F003F80
7F007F00
7E00FF00
7E07FE00
FFFFFE00
FFFFF800
FFFFF000
FFFF8000
FFE00000
FE000000
FE000000
7F000000
7FC03800
7FFFF800
3FFFF800
1FFFF800
0FFFF800
03FFE000
007E0000
ENDCHAR
STARTCHAR 0206
ENCODING 518
SWIDTH 486 0
DWIDTH 27 0
BBX 28 45 3 0
BITMAP
00007F80
0001FFC0
0003FFE0
0007FFE0
0007E7E0
000FC3F0
000F81F0
000F83F0
00000000
00000000
00000000
00FFFFF0
00FFFFF0
01FFFFF0
01FFFFF0
01FFFFE0
01FC0000
01F80000
03F80000
03F80000
03F80000
03F00000
07F00000
07F00000
07FFFE00
07FFFE00
0FFFFE00
0FFFFE00
0FFFFE00
0FFFFC00
1FC00000
1FC00000
1FC00000
1FC00000
3F800000
3F800000
3F800000
3F800000
7F000000
7FFFFE00
7FFFFE00
7FFFFC00
7FFFFC00
FFFFFC00
FFFFFC00
ENDCHAR
STARTCHAR 0207
ENCODING 519
SWIDTH 486 0
DWIDTH 27 0
BBX 25 39 4 -1
BITMAP
00004000
0007F800
000FFC00
001FFE00
003FFF00
007F3F00
007C1F00
007C1F00
00FC1F00
00000000
00000000
0007C000
003FFC00
00FFFE00
03FFFF00
07FFFF00
0FFFFF80
1FF03F80
1FC03F80
3F803F80
3F003F80
7F007F00
7E00FF00
7E07FE00
FFFFFE00
FFFFF800
FFFFF000
FFFF8000
FFE00000
FE000000
FE000000
7F000000
7FC03800
7FFFF800
3FFFF800
1FFFF800
0FFFF800
03FFE000
007E0000
ENDCHAR
STARTCHAR 0208
ENCODING 520
SWIDTH 486 0
DWIDTH 27 0
BBX 30 46 2 0
BITMAP
00020180
00070380
001F07C0
001F8FC0
001F87E0
000FC3E0
0007E1F0
0003E0F8
0001C0E0
00000040
00000000
00000000
00FFFFFC
00FFFFFC
01FFFFF8
01FFFFF8
01FFFFF8
0003F800
0003F800
0003F800
0003F000
0007F000
0007F000
0007F000
0007F000
000FE000
000FE000
000FE000
000FE000
001FC000
001FC000
001FC000
001FC000
003F8000
003F8000
003F8000
003F8000
007F0000
007F0000
007F0000
7FFFFE00
7FFFFE00
7FFFFE00
7FFFFC00
FFFFFC00
FFFFFC00
ENDCHAR
STARTCHAR 0209
ENCODING 521
SWIDTH 486 0
DWIDTH 27 0
BBX 22 39 6 -1
BITMAP
0100C0
0381C0
0F83E0
0FC7E0
07C3F0
07E1F8
03F0F8
01F07C
00E030
000020
000000
000000
7FFE00
7FFE00
7FFE00
7FFE00
FFFE00
FFFC00
01FC00
01FC00
01FC00
03F800
03F800
03F800
03F800
03F000
07F000
07F000
07F000
07F000
07F000
07F000
07F8E0
07FFE0
07FFE0
03FFE0
03FFE0
01FFE0
001C00
ENDCHAR
STARTCHAR 020A
ENCODING 522
SWIDTH 486 0
DWIDTH 27 0
BBX 30 45 2 0
BITMAP
00007F80
0001FFC0
0003FFE0
0007FFE0
0007E7E0
000FC3F0
000F81F0
000F83F0
00000000
00000000
00000000
00FFFFFC
00FFFFFC
01FFFFF8
01FFFFF8
01FFFFF8
0003F800
0003F800
0003F800
0003F000
0007F000
0007F000
0007F000
0007F000
000FE000
000FE000
000FE000
000FE000
001FC000
001FC000
001FC000
001FC000
003F8000
003F8000
003F8000
003F8000
007F0000
007F0000
007F0000
7FFFFE00
7FFFFE00
7FFFFE00
7FFFFC00
FFFFFC00
FFFFFC00
ENDCHAR
STARTCHAR 020B
ENCODING 523
SWIDTH 486 0
DWIDTH 27 0
BBX 20 39 6 -1
BITMAP
000400
007F80
00FFC0
01FFE0
03FFF0
07F3F0
07C1F0
07C1F0
0FC1F0
000000
000000
000000
7FFE00
7FFE00
7FFE00
7FFE00
FFFE00
FFFC00
01FC00
01FC00
01FC00
03F800
03F800
03F800
03F800
03F000
07F000
07F000
07F000
07F000
07F000
07F000
07F8E0
07FFE0
07FFE0
03FFE0
03FFE0
01FFE0
001C00
ENDCHAR
STARTCHAR 020C
ENCODING 524
SWIDTH 486 0
DWIDTH 27 0
BBX 26 47 4 -1
BITMAP
00100400
00381E00
007C3E00
00FC3F00
007E3F00
003E1F80
001F0F80
001F87C0
000E0380
00040000
00000000
000FF000
003FFC00
00FFFE00
01FFFF00
03FFFF80
07FFFF80
07F83F80
0FF01FC0
0FE01FC0
1FC01FC0
1FC01FC0
3F801FC0
3F801FC0
3F001FC0
7F001FC0
7F001FC0
7F001FC0
FE003F80
FE003F80
FE003F80
FE003F80
FE007F00
FE007F00
FE007F00
FE00FE00
FE00FE00
FE01FC00
FE03FC00
FE07F800
FF9FF800
7FFFF000
7FFFE000
3FFFC000
1FFF8000
0FFE0000
01F00000
ENDCHAR
STARTCHAR 020D
ENCODING 525
SWIDTH 486 0
DWIDTH 27 0
BBX 25 39 4 -1
BITMAP
00300800
00701C00
00F87C00
01F87E00
00FC3E00
007E3F00
003E1F80
001F0F80
001C0700
00080200
00000000
000F8000
007FF000
01FFF800
03FFFC00
07FFFE00
0FFFFE00
1FF1FF00
3FC0FF00
3F807F00
7F007F00
7F007F00
7E007F00
FE007F00
FE007F00
FE007F00
FC007E00
FC00FE00
FE00FE00
FE01FC00
FE03FC00
FE07F800
FF8FF800
FFFFF000
7FFFE000
7FFFC000
3FFF8000
0FFE0000
03E00000
ENDCHAR
STARTCHAR 020E
ENCODING 526
SWIDTH 486 0
DWIDTH 27 0
BBX 26 46 4 -1
BITMAP
0001FE00
0003FF00
0007FF80
000FFFC0
001FCFC0
001F07C0
001F07C0
003F07C0
00000000
00000000
000FF000
003FFC00
00FFFE00
01FFFF00
03FFFF80
07FFFF80
07F83F80
0FF01FC0
0FE01FC0
1FC01FC0
1FC01FC0
3F801FC0
3F801FC0
3F001FC0
7F001FC0
7F001FC0
7F001FC0
FE003F80
FE003F80
FE003F80
FE003F80
FE007F00
FE007F00
FE007F00
FE00FE00
FE00FE00
FE01FC00
FE03FC00
FE07F800
FF9FF800
7FFFF000
7FFFE000
3FFFC000
1FFF8000
0FFE0000
01F00000
ENDCHAR
STARTCHAR 020F
ENCODING 527
SWIDTH 486 0
DWIDTH 27 0
BBX 24 39 4 -1
BITMAP
000040
0007F8
000FFC
001FFE
003FFF
007F3F
007C1F
007C1F
00FC1F
000000
000000
000F80
007FF0
01FFF8
03FFFC
07FFFE
0FFFFE
1FF1FF
3FC0FF
3F807F
7F007F
7F007F
7E007F
FE007F
FE007F
FE007F
FC007E
FC00FE
FE00FE
FE01FC
FE03FC
FE07F8
FF8FF8
FFFFF0
7FFFE0
7FFFC0
3FFF80
0FFE00
03E000
ENDCHAR
STARTCHAR 0210
ENCODING 528
SWIDTH 486 0
DWIDTH 27 0
BBX 28 46 2 0
BITMAP
00040300
000E0700
003E0F80
003F1F80
003F0FC0
001F87C0
000FC3E0
0007C1F0
000381C0
00000080
00000000
000FF000
00FFFE00
00FFFF80
01FFFFC0
01FFFFC0
01FFFFE0
01F81FE0
03F80FE0
03F807F0
03F807F0
03F807F0
07F007E0
07F00FE0
07F00FE0
07F01FE0
07E03FC0
0FE1FF80
0FFFFF80
0FFFFF00
0FFFFC00
1FFFF800
1FFFE000
1FC7F000
1F83F000
3F83F800
3F81F800
3F81FC00
3F01FC00
7F00FC00
7F00FE00
7F00FE00
7E007E00
FE007F00
FE007F00
FE007F00
ENDCHAR
STARTCHAR 0211
ENCODING 529
SWIDTH 486 0
DWIDTH 27 0
BBX 26 38 4 0
BITMAP
00300800
00703C00
00F87C00
01F87E00
00FC3E00
007E3F00
003E1F80
001F0F80
001C0700
00080000
00000000
0001E000
007FFFC0
03FFFF80
07FFFF80
07FFFF00
07FFFF00
07FFFF00
0FF00000
0FE00000
0FE00000
0FE00000
0FC00000
1FC00000
1FC00000
1FC00000
1F800000
3F800000
3F800000
3F800000
3F000000
7F000000
7F000000
7F000000
7F000000
FE000000
FE000000
FE000000
ENDCHAR
STARTCHAR 0212
ENCODING 530
SWIDTH 486 0
DWIDTH 27 0
BBX 28 45 2 0
BITMAP
00007F80
0001FFC0
0003FFE0
0007FFE0
0007E7E0
000FC3F0
000F81F0
000F83F0
00000000
00000000
000FF000
00FFFE00
00FFFF80
01FFFFC0
01FFFFC0
01FFFFE0
01F81FE0
03F80FE0
03F807F0
03F807F0
03F807F0
07F007E0
07F00FE0
07F00FE0
07F01FE0
07E03FC0
0FE1FF80
0FFFFF80
0FFFFF00
0FFFFC00
1FFFF800
1FFFE000
1FC7F000
1F83F000
3F83F800
3F81F800
3F81FC00
3F01FC00
7F00FC00
7F00FE00
7F00FE00
7E007E00
FE007F00
FE007F00
FE007F00
ENDCHAR
STARTCHAR 0213
ENCODING 531
SWIDTH 486 0
DWIDTH 27 0
BBX 26 37 4 1
BITMAP
0003FC00
000FFE00
001FFF00
003FFF00
003F1F80
007E1F80
007C0F80
007C1F80
00000000
00000000
0001E000
007FFFC0
03FFFF80
07FFFF80
07FFFF00
07FFFF00
07FFFF00
0FF00000
0FE00000
0FE00000
0FE00000
0FC00000
1FC00000
1FC00000
1FC00000
1F800000
3F800000
3F800000
3F800000
3F000000
7F000000
7F000000
7F000000
7F000000
FE000000
FE000000
FE000000
ENDCHAR
STARTCHAR 0214
ENCODING 532
SWIDTH 486 0
DWIDTH 27 0
BBX 28 47 4 -1
BITMAP
00080600
001C0E00
007C1F00
007E3F00
007E1F80
003F0F80
001F87C0
000F83E0
00070380
00000100
00000000
00000000
07F007F0
07F007F0
07F007E0
07E00FE0
0FE00FE0
0FE00FE0
0FE00FC0
0FC01FC0
1FC01FC0
1FC01FC0
1FC01FC0
1F803F80
3F803F80
3F803F80
3F803F80
3F807F00
7F007F00
7F007F00
7F007F00
7F00FE00
FE00FE00
FE00FE00
FE00FE00
FE01FC00
FE01FC00
FE01FC00
FE03F800
FE03F800
FF0FF800
FFFFF000
7FFFE000
7FFFE000
3FFF8000
1FFF0000
01F00000
ENDCHAR
STARTCHAR 0215
ENCODING 533
SWIDTH 486 0
DWIDTH 27 0
BBX 25 39 4 -1
BITMAP
00300800
00701C00
00F87C00
01F87E00
00FC3E00
007E3F00
003E1F80
001F0F80
001C0700
00080200
00000000
00000000
0FE03F80
0FE03F80
1FC03F80
1FC07F00
1FC07F00
1FC07F00
3F807F00
3F807E00
3F80FE00
3F80FE00
3F00FE00
7F00FC00
7F01FC00
7F01FC00
7E01FC00
FE01F800
FE03F800
FE03F800
FE03F800
FE07F800
FF9FF800
7FFFF800
7FFFF800
7FFFFC00
3FFDFC00
1FF8FC00
03800000
ENDCHAR
STARTCHAR 0216
ENCODING 534
SWIDTH 486 0
DWIDTH 27 0
BBX 28 46 4 -1
BITMAP
0001FE00
0007FF00
000FFF80
001FFF80
001F9F80
003F0FC0
003E07C0
003E0FC0
00000000
00000000
00000000
07F007F0
07F007F0
07F007E0
07E00FE0
0FE00FE0
0FE00FE0
0FE00FC0
0FC01FC0
1FC01FC0
1FC01FC0
1FC01FC0
1F803F80
3F803F80
3F803F80
3F803F80
3F807F00
7F007F00
7F007F00
7F007F00
7F00FE00
FE00FE00
FE00FE00
FE00FE00
FE01FC00
FE01FC00
FE01FC00
FE03F800
FE03F800
FF0FF800
FFFFF000
7FFFE000
7FFFE000
3FFF8000
1FFF0000
01F00000
ENDCHAR
STARTCHAR 0217
ENCODING 535
SWIDTH 486 0
DWIDTH 27 0
BBX 25 39 4 -1
BITMAP
00004000
0007F800
001FFC00
003FFE00
003FFF00
007F3F00
007C1F00
007C1F00
00FC1F00
00000000
00000000
00000000
0FE03F80
0FE03F80
1FC03F80
1FC07F00
1FC07F00
1FC07F00
3F807F00
3F807E00
3F80FE00
3F80FE00
3F00FE00
7F00FC00
7F01FC00
7F01FC00
7E01FC00
FE01F800
FE03F800
FE03F800
FE03F800
FE07F800
FF9FF800
7FFFF800
7FFFF800
7FFFFC00
3FFDFC00
1FF8FC00
03800000
ENDCHAR
STARTCHAR 0218
ENCODING 536
SWIDTH 486 0
DWIDTH 27 0
BBX 28 44 2 -9
BITMAP
0007FF00
001FFFE0
007FFFF0
00FFFFF0
01FFFFE0
01FFFFE0
03FC01C0
03F80000
03F80000
03F00000
03F80000
03F80000
03FC0000
03FE0000
03FF8000
01FFE000
00FFF800
007FFC00
003FFE00
000FFE00
0003FF00
0001FF00
0000FF00
00007F00
00007F00
00007F00
00007F00
00007F00
3800FF00
3E03FE00
7FFFFE00
FFFFFC00
FFFFF800
7FFFF000
1FFFC000
00FC0000
00000000
01F80000
01F00000
03F00000
07F00000
3FE00000
3FC00000
3F800000
ENDCHAR
STARTCHAR 0219
ENCODING 537
SWIDTH 486 0
DWIDTH 27 0
BBX 25 36 3 -9
BITMAP
0007F000
007FFF00
00FFFF80
01FFFF00
03FFFF00
07FFFE00
07F80E00
07F00000
07F00000
07F00000
07F80000
07FF0000
07FFC000
03FFF000
01FFF800
007FF800
000FFC00
0003FC00
0001FC00
0001FC00
3001FC00
3C07FC00
7FFFF800
7FFFF800
FFFFF000
FFFFE000
3FFF8000
01F80000
00000000
01F80000
01F00000
03F00000
07F00000
3FE00000
3FC00000
3F800000
ENDCHAR
STARTCHAR 021A
ENCODING 538
SWIDTH 486 0
DWIDTH 27 0
BBX 29 43 4 -9
BITMAP
0FFFFFF8
0FFFFFF8
0FFFFFF8
0FFFFFF8
1FFFFFF0
000FE000
000FE000
000FE000
001FC000
001FC000
001FC000
001FC000
003F8000
003F8000
003F8000
003F8000
003F0000
007F0000
007F0000
007F0000
007E0000
00FE0000
00FE0000
00FE0000
00FC0000
01FC0000
01FC0000
01FC0000
01FC0000
03F80000
03F80000
03F80000
03F80000
07F00000
00000000
00000000
07E00000
07E00000
07C00000
1FC00000
FF800000
FF800000
FE000000
ENDCHAR
ENDFONT
